<svg width="48" height="48" viewBox="0 0 48 48" fill="none" xmlns="http://www.w3.org/2000/svg">
<path d="M36.9886 8.01312C36.3354 7.35987 35.4666 7 34.5423 7H33.0081V8.53527C33.0081 10.2284 31.6293 11.6058 29.9345 11.6058H16.1038C14.409 11.6058 13.0302 10.2284 13.0302 8.53527V7H11.4909C9.58646 7 8.03539 8.54786 8.03323 10.4505L8 40.5418C7.99893 41.4652 8.35816 42.3335 9.01131 42.9869C9.66462 43.6402 10.5334 44 11.4577 44H34.509C36.4135 44 37.9646 42.4521 37.9667 40.5495L38 10.4582C38.0011 9.53481 37.6418 8.66646 36.9886 8.01312ZM23.3918 18.5145H31.5805C32.2171 18.5145 32.7331 19.0301 32.7331 19.666C32.7331 20.3019 32.2171 20.8174 31.5805 20.8174H23.3918C22.7553 20.8174 22.2393 20.3019 22.2393 19.666C22.2393 19.0301 22.7553 18.5145 23.3918 18.5145ZM23.3918 26.1909H31.5805C32.2171 26.1909 32.7331 26.7064 32.7331 27.3423C32.7331 27.9782 32.2171 28.4938 31.5805 28.4938H23.3918C22.7553 28.4938 22.2393 27.9782 22.2393 27.3423C22.2393 26.7064 22.7553 26.1909 23.3918 26.1909ZM23.3918 33.8672H31.6135C32.25 33.8672 32.766 34.3828 32.766 35.0187C32.766 35.6546 32.25 36.1701 31.6135 36.1701H23.3918C22.7553 36.1701 22.2393 35.6546 22.2393 35.0187C22.2393 34.3828 22.7553 33.8672 23.3918 33.8672ZM13.5716 18.56C14.0218 18.1103 14.7515 18.1103 15.2016 18.56L15.8283 19.1861L18.4863 16.5307C18.9365 16.0811 19.6662 16.081 20.1162 16.5307C20.5663 16.9803 20.5663 17.7094 20.1162 18.1591L16.6432 21.6287C16.5363 21.7356 16.4092 21.8204 16.2694 21.8783C16.1295 21.9361 15.9796 21.9659 15.8282 21.9659C15.6768 21.9659 15.5269 21.9361 15.3871 21.8783C15.2472 21.8204 15.1202 21.7356 15.0132 21.6287L13.5715 20.1883C13.1215 19.7387 13.1215 19.0096 13.5716 18.56ZM13.5716 26.8226C14.0218 26.3729 14.7515 26.3729 15.2016 26.8226L15.8283 27.4486L18.4863 24.7932C18.9364 24.3436 19.6662 24.3436 20.1162 24.7932C20.5663 25.2428 20.5663 25.9719 20.1162 26.4216L16.6432 29.8913C16.5363 29.9981 16.4092 30.0829 16.2694 30.1408C16.1295 30.1987 15.9796 30.2284 15.8282 30.2284C15.6768 30.2284 15.5269 30.1987 15.3871 30.1408C15.2473 30.0829 15.1202 29.9981 15.0132 29.8913L13.5715 28.4509C13.1215 28.0013 13.1215 27.2722 13.5716 26.8226ZM13.5716 34.4989C14.0218 34.0492 14.7515 34.0492 15.2016 34.4989L15.8283 35.125L18.4863 32.4696C18.9364 32.02 19.6662 32.02 20.1162 32.4696C20.5663 32.9192 20.5663 33.6483 20.1162 34.098L16.6432 37.5676C16.5363 37.6745 16.4092 37.7593 16.2694 37.8172C16.1295 37.875 15.9796 37.9048 15.8282 37.9048C15.6768 37.9048 15.5269 37.875 15.3871 37.8172C15.2473 37.7593 15.1202 37.6745 15.0132 37.5676L13.5715 36.1272C13.1215 35.6776 13.1215 34.9486 13.5716 34.4989Z" fill="#E25730"/>
<path d="M15 8.16667C15 8.62692 15.3582 9 15.8 9H30.2C30.6418 9 31 8.62692 31 8.16667V4.83333C31 4.37308 30.6418 4 30.2 4H15.8C15.3582 4 15 4.37308 15 4.83333V8.16667Z" fill="#E25730"/>
</svg>
