<svg width="48" height="48" viewBox="0 0 48 48" fill="none" xmlns="http://www.w3.org/2000/svg">
<path fill-rule="evenodd" clip-rule="evenodd" d="M37.735 18.0942C35.455 18.0942 33.6067 19.9425 33.6067 22.2226C33.6067 24.5027 35.455 26.351 37.735 26.351C40.0151 26.351 41.8634 24.5027 41.8634 22.2226C41.8634 19.9425 40.0151 18.0942 37.735 18.0942ZM24.9354 1.56947C25.4039 1.61813 25.7639 1.98206 25.8075 2.4511L25.9284 3.75141C25.9943 4.46063 26.8269 4.8016 27.3713 4.34231L28.369 3.50072C28.729 3.19706 29.2408 3.19013 29.6089 3.48394C30.1165 3.8892 30.5791 4.34793 30.9885 4.85222C31.2854 5.21794 31.2827 5.72982 30.9819 6.09235L30.1481 7.09697C29.6933 7.64513 30.0408 8.47481 30.7506 8.5351L32.0522 8.64553C32.5217 8.68538 32.8886 9.04275 32.9409 9.51113C33.0127 10.1564 33.0151 10.8075 32.9482 11.4533C32.8995 11.9218 32.5356 12.2818 32.0665 12.3254L30.7662 12.4463C30.057 12.5122 29.716 13.3448 30.1753 13.8892L31.0169 14.8869C31.3206 15.2469 31.3275 15.7587 31.0337 16.1268C30.6284 16.6344 30.1697 17.097 29.6654 17.5064C29.2997 17.8033 28.7878 17.8006 28.4253 17.4998L27.4207 16.666C26.8725 16.2112 26.0428 16.5588 25.9825 17.2685L25.8721 18.5701C25.8323 19.0396 25.4749 19.4065 25.0065 19.4588C24.3612 19.5306 23.7101 19.533 23.0643 19.4661C22.5958 19.4174 22.2358 19.0535 22.1922 18.5844L22.0714 17.2841C22.0055 16.5749 21.1729 16.2339 20.6285 16.6932L19.6307 17.5348C19.2707 17.8386 18.7589 17.8454 18.3909 17.5516C17.8832 17.1463 17.4207 16.6876 17.0112 16.1833C16.7143 15.8176 16.717 15.3057 17.0179 14.9432L17.8516 13.9386C18.3065 13.3904 17.9589 12.5607 17.2492 12.5004L15.9475 12.39C15.478 12.3502 15.1111 11.9928 15.0589 11.5244C14.987 10.8791 14.9846 10.228 15.0516 9.58219C15.1002 9.11363 15.4642 8.75372 15.9332 8.71013L17.2335 8.58928C17.9427 8.52338 18.2837 7.69078 17.8244 7.14638L16.9828 6.1486C16.6792 5.7886 16.6722 5.27681 16.966 4.90875C17.3713 4.4011 17.83 3.93856 18.3343 3.52913C18.7 3.23222 19.2119 3.23494 19.5744 3.53578L20.5791 4.3695C21.1272 4.82438 21.9569 4.47685 22.0172 3.76706L22.1276 2.46544C22.1675 1.99594 22.5249 1.629 22.9932 1.57678C23.6385 1.50493 24.2896 1.50248 24.9354 1.56947ZM23.9999 6.47916C21.7695 6.47916 19.9614 8.28731 19.9614 10.5177C19.9614 12.7481 21.7695 14.5563 23.9999 14.5563C26.2303 14.5563 28.0385 12.7481 28.0385 10.5177C28.0385 8.28731 26.2303 6.47916 23.9999 6.47916ZM23.9999 34.4569C19.5677 34.5236 15.8877 37.8466 15.2602 42.1268C15.1344 42.9846 15.4858 43.7866 16.2018 44.2756C20.5038 47.2136 27.4959 47.2136 31.798 44.2756C32.5139 43.7866 32.8654 42.9846 32.7396 42.1268C32.112 37.8466 28.4321 34.5236 23.9998 34.4569H23.9999ZM23.9999 23.7235C21.7199 23.7235 19.8715 25.5719 19.8715 27.8519C19.8715 30.1319 21.7199 31.9803 23.9999 31.9803C26.2799 31.9803 28.1283 30.1319 28.1283 27.8519C28.1283 25.5719 26.28 23.7235 23.9999 23.7235ZM10.2648 18.0943C7.98479 18.0943 6.13642 19.9426 6.13642 22.2227C6.13642 24.5028 7.98479 26.3511 10.2648 26.3511C12.5448 26.3511 14.3932 24.5028 14.3932 22.2227C14.3932 19.9426 12.5449 18.0943 10.2648 18.0943ZM37.735 28.8277C42.1674 28.8944 45.8472 32.2174 46.4748 36.4975C46.6006 37.3553 46.249 38.1574 45.5332 38.6464C42.0974 40.9928 37.3764 41.3699 33.436 40.2224C32.7012 38.0377 31.2417 36.1975 29.3602 34.9698C30.5375 31.4512 33.8467 28.8863 37.7351 28.8278L37.735 28.8277ZM10.2649 28.8277C14.1534 28.8863 17.4624 31.4512 18.6398 34.9698C16.7583 36.1975 15.2987 38.0376 14.564 40.2223C10.6234 41.3698 5.90242 40.9928 2.46676 38.6463C1.75079 38.1573 1.39933 37.3553 1.52514 36.4974C2.1527 32.2173 5.83267 28.8943 10.2649 28.8276V28.8277Z" fill="#E25730"/>
</svg>
