<svg width="56" height="56" viewBox="0 0 56 56" fill="none" xmlns="http://www.w3.org/2000/svg">
<g clip-path="url(#clip0_1171_1965)">
<path d="M40.1172 46.6152C36.7867 48.7803 32.9346 50.0089 28.9655 50.1721V47.3103C28.9655 47.0543 28.8638 46.8087 28.6827 46.6276C28.5017 46.4465 28.2561 46.3448 28 46.3448C27.7439 46.3448 27.4983 46.4465 27.3173 46.6276C27.1362 46.8087 27.0345 47.0543 27.0345 47.3103V50.1808C21.4919 49.9201 16.2458 47.6013 12.3223 43.6777C8.39873 39.7542 6.07987 34.5081 5.81917 28.9655H8.68966C8.94573 28.9655 9.19131 28.8638 9.37238 28.6827C9.55345 28.5017 9.65517 28.2561 9.65517 28C9.65517 27.7439 9.55345 27.4983 9.37238 27.3173C9.19131 27.1362 8.94573 27.0345 8.68966 27.0345H5.83462C5.92285 24.7561 6.36487 22.5053 7.14483 20.3628C7.19018 20.2437 7.21112 20.1168 7.20639 19.9896C7.20166 19.8623 7.17137 19.7373 7.11731 19.6219C7.06326 19.5066 6.98655 19.4034 6.89175 19.3183C6.79695 19.2333 6.686 19.1682 6.56552 19.1269C6.32592 19.0418 6.06255 19.0537 5.83164 19.1602C5.60073 19.2666 5.42058 19.4591 5.32966 19.6966V19.7062C4.4739 22.0593 3.99269 24.5322 3.90359 27.0345H0.965517C0.709446 27.0345 0.463863 27.1362 0.282793 27.3173C0.101724 27.4983 0 27.7439 0 28C0 28.2561 0.101724 28.5017 0.282793 28.6827C0.463863 28.8638 0.709446 28.9655 0.965517 28.9655H3.88621C4.13752 35.0243 6.65702 40.7672 10.9449 45.0551C15.2328 49.343 20.9757 51.8625 27.0345 52.1138V55.0345C27.0345 55.2906 27.1362 55.5361 27.3173 55.7172C27.4983 55.8983 27.7439 56 28 56C28.2561 56 28.5017 55.8983 28.6827 55.7172C28.8638 55.5361 28.9655 55.2906 28.9655 55.0345V52.1032C33.3095 51.9403 37.5276 50.6008 41.1697 48.2276C41.3829 48.0875 41.532 47.8688 41.5845 47.6191C41.6369 47.3695 41.5885 47.1092 41.4497 46.8952C41.3068 46.6853 41.0883 46.5389 40.8399 46.4867C40.5914 46.4345 40.3325 46.4806 40.1172 46.6152ZM55.0345 27.0345H52.1138C51.8638 20.9753 49.3447 15.2316 45.0566 10.9434C40.7684 6.65527 35.0247 4.1362 28.9655 3.88621V0.965517C28.9655 0.709446 28.8638 0.463863 28.6827 0.282793C28.5017 0.101724 28.2561 0 28 0C27.7439 0 27.4983 0.101724 27.3173 0.282793C27.1362 0.463863 27.0345 0.709446 27.0345 0.965517V3.89007C23.5465 4.01626 20.1287 4.90614 17.0221 6.49697C13.7464 8.1844 10.8946 10.5906 8.68 13.5356C8.52636 13.7404 8.46039 13.9979 8.4966 14.2514C8.53281 14.5049 8.66825 14.7337 8.8731 14.8873C9.08017 15.0347 9.33596 15.0968 9.58755 15.0609C9.83914 15.0249 10.0673 14.8936 10.2248 14.6942C12.1854 12.0529 14.7132 9.88471 17.6222 8.34915C20.5313 6.81359 23.7476 5.94973 27.0345 5.8211V8.68966C27.0345 8.94573 27.1362 9.19131 27.3173 9.37238C27.4983 9.55345 27.7439 9.65517 28 9.65517C28.2561 9.65517 28.5017 9.55345 28.6827 9.37238C28.8638 9.19131 28.9655 8.94573 28.9655 8.68966V5.81917C34.5081 6.07987 39.7542 8.39873 43.6777 12.3223C47.6013 16.2458 49.9201 21.4919 50.1808 27.0345H47.3103C47.0543 27.0345 46.8087 27.1362 46.6276 27.3173C46.4465 27.4983 46.3448 27.7439 46.3448 28C46.3448 28.2561 46.4465 28.5017 46.6276 28.6827C46.8087 28.8638 47.0543 28.9655 47.3103 28.9655H50.1644C49.9578 33.8779 48.1236 38.5821 44.9506 42.3379C44.7873 42.5346 44.7078 42.7876 44.7295 43.0424C44.7512 43.2971 44.8722 43.5331 45.0665 43.6993C45.1599 43.7851 45.2699 43.851 45.3897 43.8928C45.5095 43.9346 45.6366 43.9515 45.7632 43.9425C45.8897 43.9335 46.0131 43.8987 46.1257 43.8402C46.2384 43.7818 46.3379 43.701 46.4182 43.6028C46.4182 43.5931 46.4182 43.5931 46.4279 43.5931C49.8903 39.4827 51.8845 34.3358 52.0954 28.9655H55.0345C55.2906 28.9655 55.5361 28.8638 55.7172 28.6827C55.8983 28.5017 56 28.2561 56 28C56 27.7439 55.8983 27.4983 55.7172 27.3173C55.5361 27.1362 55.2906 27.0345 55.0345 27.0345Z" fill="#E25730"/>
<path d="M38.9217 27.6988C39.3762 27.3009 39.7386 26.8196 39.9867 26.285C40.2347 25.7503 40.363 25.1736 40.3636 24.5906C40.3621 23.4457 39.8763 22.3482 39.0129 21.5387C38.1494 20.7292 36.9787 20.2737 35.7576 20.2723C34.8439 20.2742 33.9521 20.5343 33.1985 21.0187C32.7173 20.1119 31.9758 19.3491 31.0575 18.8158C30.1391 18.2825 29.0803 18 28 18C26.9197 18 25.8609 18.2825 24.9425 18.8158C24.0242 19.3491 23.2827 20.1119 22.8015 21.0187C22.0479 20.5343 21.1561 20.2742 20.2424 20.2723C19.0213 20.2737 17.8506 20.7292 16.9871 21.5387C16.1237 22.3482 15.6379 23.4457 15.6364 24.5906C15.637 25.1736 15.7653 25.7503 16.0133 26.285C16.2614 26.8196 16.6238 27.3009 17.0783 27.6988C15.5774 28.2838 14.2945 29.2718 13.3909 30.5385C12.4873 31.8053 12.0034 33.2942 12 34.8181C12 35.0592 12.1022 35.2905 12.284 35.4609C12.4659 35.6314 12.7125 35.7272 12.9697 35.7272H17.439C17.3709 36.179 17.3355 36.6346 17.3333 37.0909C17.3333 37.332 17.4355 37.5632 17.6174 37.7337C17.7992 37.9042 18.0459 38 18.303 38H37.697C37.9541 38 38.2008 37.9042 38.3827 37.7337C38.5645 37.5632 38.6667 37.332 38.6667 37.0909C38.6645 36.6346 38.6291 36.179 38.561 35.7272H43.0303C43.2875 35.7272 43.5341 35.6314 43.716 35.4609C43.8978 35.2905 44 35.0592 44 34.8181C43.9966 33.2942 43.5127 31.8053 42.6091 30.5385C41.7055 29.2718 40.4226 28.2838 38.9217 27.6988ZM35.7576 22.0905C36.2376 22.0897 36.709 22.2103 37.122 22.4398C37.535 22.6692 37.8742 22.9989 38.104 23.394C38.3337 23.7892 38.4454 24.2351 38.4273 24.6849C38.4092 25.1346 38.262 25.5714 38.0011 25.9492C37.7402 26.327 37.3754 26.6318 36.9452 26.8313C36.5149 27.0309 36.0352 27.1179 35.5566 27.0832C35.0779 27.0484 34.6182 26.8931 34.2259 26.6338C33.8336 26.3745 33.5232 26.0206 33.3275 25.6097C33.6495 24.9311 33.8166 24.1969 33.8182 23.4542C33.8182 23.2724 33.8075 23.0951 33.7891 22.9187C34.0369 22.6589 34.3402 22.4509 34.6793 22.3082C35.0185 22.1655 35.3858 22.0914 35.7576 22.0905ZM31.6228 27.697C31.8122 27.5536 31.9919 27.3994 32.161 27.2352C32.2922 27.3999 32.4368 27.5549 32.5935 27.6988C32.4432 27.7579 32.3025 27.8325 32.1581 27.9016C31.9758 27.8307 31.8051 27.7588 31.6228 27.697ZM28 19.8177C28.7672 19.8177 29.5171 20.031 30.1549 20.4306C30.7928 20.8302 31.29 21.3981 31.5835 22.0626C31.8771 22.727 31.9539 23.4582 31.8043 24.1636C31.6546 24.869 31.2852 25.517 30.7427 26.0255C30.2003 26.5341 29.5091 26.8805 28.7567 27.0208C28.0043 27.1611 27.2244 27.0891 26.5157 26.8138C25.8069 26.5386 25.2011 26.0725 24.7749 25.4745C24.3487 24.8765 24.1212 24.1734 24.1212 23.4542C24.1212 22.4897 24.5299 21.5648 25.2573 20.8828C25.9847 20.2009 26.9713 19.8177 28 19.8177ZM23.4065 27.6988C23.5632 27.5549 23.7078 27.3999 23.839 27.2352C24.0081 27.3994 24.1878 27.5536 24.3772 27.697C24.1949 27.7588 24.0194 27.8307 23.8419 27.9016C23.6975 27.8325 23.5568 27.7579 23.4065 27.6988ZM20.2424 22.0905C20.6142 22.0914 20.9815 22.1655 21.3207 22.3082C21.6598 22.4509 21.9631 22.6589 22.2109 22.9187C22.1925 23.0951 22.1818 23.2733 22.1818 23.4542C22.1834 24.1969 22.3505 24.9311 22.6725 25.6097C22.4766 26.0199 22.1662 26.373 21.7741 26.6317C21.3821 26.8904 20.9228 27.0452 20.4448 27.0796C19.9668 27.1141 19.4877 27.027 19.058 26.8276C18.6284 26.6281 18.2641 26.3237 18.0035 25.9464C17.743 25.5691 17.5958 25.1329 17.5776 24.6837C17.5594 24.2345 17.6708 23.7891 17.9 23.3943C18.1292 22.9995 18.4678 22.67 18.8801 22.4406C19.2923 22.2111 19.763 22.0902 20.2424 22.0905ZM14.0141 33.909C14.2473 32.5168 15.0027 31.2484 16.1444 30.3318C17.2862 29.4152 18.7393 28.9106 20.2424 28.9089C20.719 28.9105 21.1937 28.9657 21.6562 29.0734C19.9055 30.2883 18.5922 31.9754 17.8919 33.909H14.0141ZM19.3261 36.1818C19.5631 34.1805 20.5791 32.3314 22.1794 30.9884C23.7798 29.6455 25.8522 28.9029 28 28.9029C30.1478 28.9029 32.2202 29.6455 33.8206 30.9884C35.4209 32.3314 36.4369 34.1805 36.6739 36.1818H19.3261ZM38.1081 33.909C37.4078 31.9754 36.0945 30.2883 34.3438 29.0734C34.8063 28.9657 35.281 28.9105 35.7576 28.9089C37.2607 28.9106 38.7138 29.4152 39.8556 30.3318C40.9973 31.2484 41.7527 32.5168 41.9859 33.909H38.1081Z" fill="#E25730"/>
<path d="M7 19C7.55228 19 8 18.5523 8 18C8 17.4477 7.55228 17 7 17C6.44772 17 6 17.4477 6 18C6 18.5523 6.44772 19 7 19Z" fill="#E25730"/>
<path d="M44 46C44.5523 46 45 45.7761 45 45.5C45 45.2239 44.5523 45 44 45C43.4477 45 43 45.2239 43 45.5C43 45.7761 43.4477 46 44 46Z" fill="#E25730"/>
</g>
<defs>
<clipPath id="clip0_1171_1965">
<rect width="56" height="56" fill="white"/>
</clipPath>
</defs>
</svg>
