<svg width="56" height="56" viewBox="0 0 56 56" fill="none" xmlns="http://www.w3.org/2000/svg">
<path d="M55.0284 47.6499C55.0829 47.5434 55.115 47.427 55.1229 47.3076C55.1307 47.1883 55.114 47.0686 55.0739 46.956L46.3239 22.456C46.2491 22.2466 46.0974 22.0735 45.8996 21.972C45.7018 21.8704 45.4728 21.8479 45.259 21.9091L43.4425 22.428L40.4211 11.8528L40.4999 11.8029C41.1135 11.4226 41.5777 10.843 41.8147 10.1612C42.0518 9.47934 42.0472 8.73676 41.8019 8.05788C41.6469 7.65037 41.4074 7.2803 41.0992 6.97198C40.7909 6.66367 40.4209 6.42411 40.0134 6.26906C39.6059 6.114 39.1702 6.04696 38.735 6.07236C38.2998 6.09775 37.8748 6.21499 37.4881 6.41638L35.9683 7.245L36.9404 5.81788C37.2994 5.23218 37.4185 4.5305 37.2728 3.85916C37.1271 3.18781 36.7279 2.5986 36.1584 2.21439C35.5889 1.83018 34.8931 1.68062 34.2161 1.7969C33.539 1.91317 32.9329 2.28631 32.5243 2.8385L30.6439 5.39875C30.5941 5.46606 30.5352 5.52614 30.4689 5.57725L20.7529 13.0165L17.6746 13.1985L21.7224 9.32838C22.1161 8.98412 22.4152 8.54495 22.5914 8.05256C22.7675 7.56017 22.8149 7.03091 22.729 6.51506C22.6431 5.99921 22.4267 5.51388 22.1005 5.10518C21.7742 4.69647 21.3489 4.37795 20.8649 4.17988C20.4029 3.99279 19.9024 3.92031 19.4063 3.96861C18.9102 4.01691 18.4331 4.18456 18.0159 4.45725C9.89939 10.2725 9.89939 10.2725 9.86351 10.3075C6.02489 13.9353 4.27227 18.578 2.72702 22.6748L0.947266 26.7759L2.55202 27.4741L4.31864 23.4141L4.36414 23.2934C5.83764 19.3891 7.50714 14.966 11.0238 11.6191C11.68 11.1484 18.9968 5.90713 18.9959 5.90625C19.1737 5.79353 19.376 5.72495 19.5857 5.70623C19.7955 5.68751 20.0066 5.71919 20.2016 5.79863C20.411 5.88159 20.5951 6.01786 20.7355 6.19391C20.8759 6.36996 20.9679 6.57968 21.0023 6.80225C21.0413 7.03048 21.0192 7.26497 20.9384 7.48194C20.8576 7.69891 20.7208 7.89066 20.542 8.03775L15.0881 13.251C14.9329 13.3996 14.8269 13.5922 14.7846 13.8029C14.7423 14.0136 14.7656 14.2322 14.8515 14.4292C14.9373 14.6262 15.0816 14.7921 15.2647 14.9045C15.4479 15.017 15.6611 15.0705 15.8756 15.0579L25.4131 14.4926C25.9628 14.5058 26.507 14.381 26.996 14.1295L34.976 9.779C35.4681 9.94842 35.8984 10.2608 36.2119 10.6763C36.5254 11.0917 36.7077 11.5912 36.7356 12.1109L25.995 18.8974C25.737 19.0633 25.46 19.1976 25.1699 19.2973L19.6093 21.2039C17.7105 21.8549 13.1929 23.6784 12.2523 26.5431C12.2434 26.5716 12.2358 26.6005 12.2295 26.6298L11.3948 30.4378L13.1045 30.8123L13.9288 27.0506C14.529 25.3356 17.5425 23.7624 20.1763 22.8594L24.2126 21.4751L23.755 23.7598L22.8739 23.6338C22.6647 23.6044 22.4519 23.6515 22.2746 23.7664C22.0973 23.8814 21.9674 24.0564 21.9088 24.2594L14.9088 48.7594C14.8749 48.8779 14.8665 49.0022 14.884 49.1241C14.9015 49.2461 14.9446 49.363 15.0105 49.4672C15.0763 49.5713 15.1634 49.6604 15.2661 49.7286C15.3687 49.7968 15.4846 49.8425 15.6061 49.8628L25.5304 51.5165L25.3773 53.3006C25.367 53.4214 25.3819 53.543 25.421 53.6577C25.4602 53.7725 25.5228 53.8778 25.6048 53.967C25.6868 54.0563 25.7865 54.1275 25.8975 54.1763C26.0085 54.225 26.1284 54.2501 26.2496 54.25H41.9996C42.1209 54.2501 42.2408 54.225 42.3518 54.1763C42.4628 54.1275 42.5625 54.0563 42.6445 53.967C42.7265 53.8778 42.7891 53.7725 42.8282 53.6577C42.8674 53.543 42.8823 53.4214 42.872 53.3006L42.7136 51.4561L54.4903 48.0909C54.6054 48.0581 54.7125 48.002 54.805 47.9262C54.8976 47.8503 54.9736 47.7563 55.0284 47.6499ZM41.7599 22.9084L40.3021 23.3249L40.247 22.6756C40.2284 22.4571 40.1284 22.2536 39.9668 22.1053C39.8053 21.9571 39.5939 21.8749 39.3746 21.875H38.4996V13.0664L38.8794 12.8266L41.7599 22.9084ZM31.4996 21.875V17.4895L36.7496 14.1733V21.875H31.4996ZM26.1779 12.5825C25.9317 12.7004 25.6604 12.7559 25.3878 12.7444L23.8696 12.8345L31.5346 6.96588C31.7316 6.81437 31.9063 6.63587 32.0535 6.43563L33.9348 3.87363C34.0555 3.70886 34.228 3.58933 34.4247 3.53414C34.6214 3.47894 34.8309 3.49126 35.0198 3.56913C35.1435 3.61843 35.2547 3.69454 35.3455 3.79197C35.4363 3.88941 35.5043 4.00575 35.5448 4.13263C35.5858 4.25274 35.6007 4.38026 35.5883 4.5066C35.5759 4.63293 35.5366 4.75515 35.473 4.865L32.6004 9.08163L26.1779 12.5825ZM36.7785 8.79638L38.3054 7.96425C38.4737 7.87804 38.6585 7.82848 38.8473 7.81883C39.0362 7.80918 39.225 7.83967 39.4013 7.90829C39.5775 7.97691 39.7373 8.0821 39.8699 8.21692C40.0026 8.35175 40.1051 8.51315 40.1709 8.6905C40.2677 8.99229 40.2601 9.3179 40.1491 9.61479C40.0381 9.91167 39.8303 10.1625 39.5593 10.3268L38.3281 11.1055C38.0777 10.1872 37.5338 9.37593 36.7794 8.7955L36.7785 8.79638ZM26.1341 20.7891C26.4122 20.6728 26.6803 20.5338 26.9356 20.3735L29.7496 18.5955V21.875H28.8746C28.6554 21.8749 28.444 21.9571 28.2825 22.1053C28.1209 22.2536 28.0209 22.4571 28.0023 22.6756L27.8596 24.3469L25.4901 24.0083L26.1341 20.7891ZM16.86 48.2983L23.3814 25.4739L27.71 26.0925L25.68 49.7682L16.86 48.2983ZM27.2025 52.5L29.6779 23.625H38.5714L41.0468 52.5H27.2025ZM42.5614 49.6799L40.4544 25.1011L44.9519 23.8166L53.1113 46.6655L42.5614 49.6799Z" fill="#E25730"/>
<path d="M34.9995 25.375H33.2495V46.7547L29.2988 49.1251L30.2001 50.6249L34.1245 48.2703L38.0488 50.6249L38.9501 49.1251L34.9995 46.7547V25.375Z" fill="#E25730"/>
</svg>
