<svg width="40" height="40" viewBox="0 0 40 40" fill="none" xmlns="http://www.w3.org/2000/svg">
<path d="M19.0723 33.6974V28.3578H14.8594C15.4479 29.9791 16.2031 31.3704 17.1208 32.3682C17.7483 33.0506 18.406 33.4815 19.0723 33.6974ZM19.0723 19.1666H13.5362C13.4565 21.7722 13.7284 24.2966 14.2961 26.5196H19.0723V19.1666ZM27.6322 26.5196H34.356C35.2569 24.5548 35.8334 22.3807 35.8334 20.0857V19.1666H28.3206C28.3981 21.7571 28.1617 24.2662 27.6322 26.5196ZM25.1406 28.3578H20.9278V33.6974C21.594 33.4815 22.2518 33.0506 22.8793 32.3682C23.7969 31.3704 24.5522 29.9791 25.1406 28.3578ZM27.1089 28.3578C26.4146 30.4774 25.4553 32.2963 24.251 33.6059C23.2454 34.6989 22.1103 35.5328 20.9278 35.7683V35.8333C26.1675 35.529 30.7194 32.5201 33.3556 28.3578H27.1089ZM26.4638 19.1666H20.9278V26.5196H25.7039C26.2716 24.2966 26.5435 21.7722 26.4638 19.1666ZM19.0723 35.7683C17.8897 35.5329 16.7546 34.699 15.7491 33.606C14.5448 32.2963 13.5855 30.4775 12.8912 28.3579H6.64448C9.28067 32.5201 13.8326 35.529 19.0723 35.8333V35.7683ZM12.3679 26.5196C11.8383 24.2662 11.602 21.7571 11.6794 19.1666H4.16669V20.0857C4.16669 22.3807 4.74312 24.5548 5.64401 26.5196H12.3679Z" fill="#E25730"/>
<path d="M20 13.3333C22.7614 13.3333 25 11.2813 25 8.74996C25 6.21865 22.7614 4.16663 20 4.16663C17.2386 4.16663 15 6.21865 15 8.74996C15 11.2813 17.2386 13.3333 20 13.3333Z" fill="#E25730"/>
<path d="M9.58337 13.3333C11.6544 13.3333 13.3334 11.6543 13.3334 9.58325C13.3334 7.51218 11.6544 5.83325 9.58337 5.83325C7.51231 5.83325 5.83337 7.51218 5.83337 9.58325C5.83337 11.6543 7.51231 13.3333 9.58337 13.3333Z" fill="#E25730"/>
<path d="M30.4167 13.3333C32.4878 13.3333 34.1667 11.6543 34.1667 9.58325C34.1667 7.51218 32.4878 5.83325 30.4167 5.83325C28.3456 5.83325 26.6667 7.51218 26.6667 9.58325C26.6667 11.6543 28.3456 13.3333 30.4167 13.3333Z" fill="#E25730"/>
<path d="M35.8334 17.4999C35.0448 15.0801 32.951 13.3333 30.4721 13.3333C28.3375 13.3333 26.4951 14.6357 25.5148 16.5384C24.3147 14.6061 22.291 13.3333 20 13.3333C17.7091 13.3333 15.6853 14.6062 14.4853 16.5384C13.5049 14.6358 11.6624 13.3333 9.5279 13.3333C7.04899 13.3333 4.95521 15.0801 4.16669 17.4999H35.8334Z" fill="#E25730"/>
</svg>
