<svg width="40" height="40" viewBox="0 0 40 40" fill="none" xmlns="http://www.w3.org/2000/svg">
<path d="M30.9056 10.5192C32.9267 10.5192 34.5652 8.88069 34.5652 6.85955C34.5652 4.83841 32.9267 3.19995 30.9056 3.19995C28.8844 3.19995 27.246 4.83841 27.246 6.85955C27.246 8.88069 28.8844 10.5192 30.9056 10.5192Z" fill="#E25730"/>
<path d="M20 23.7952C22.0211 23.7952 23.6596 22.1567 23.6596 20.1356C23.6596 18.1144 22.0211 16.476 20 16.476C17.9789 16.476 16.3404 18.1144 16.3404 20.1356C16.3404 22.1567 17.9789 23.7952 20 23.7952Z" fill="#E25730"/>
<path d="M32.3112 33.7447L28.9968 30.4303C30.3056 28.6103 31.0856 26.3859 31.0856 23.9783C31.0856 17.8659 26.1128 12.8923 19.9996 12.8923C13.8864 12.8923 8.914 17.8659 8.914 23.9783C8.914 30.0907 13.8868 35.0643 20 35.0643C22.4076 35.0643 24.632 34.2843 26.4516 32.9755L29.766 36.2899C29.9331 36.4571 30.1315 36.5897 30.3498 36.6802C30.5682 36.7707 30.8022 36.8173 31.0386 36.8173C31.275 36.8173 31.509 36.7707 31.7274 36.6802C31.9457 36.5897 32.1441 36.4571 32.3112 36.2899C32.4784 36.1228 32.611 35.9245 32.7015 35.7061C32.792 35.4877 32.8385 35.2537 32.8385 35.0173C32.8385 34.781 32.792 34.5469 32.7015 34.3286C32.611 34.1102 32.4784 33.9118 32.3112 33.7447ZM10.714 23.9783C10.714 18.8583 14.8796 14.6923 20 14.6923C25.1204 14.6923 29.286 18.8583 29.286 23.9783C29.286 29.0983 25.1204 33.2643 20 33.2643C14.8796 33.2643 10.714 29.0983 10.714 23.9783Z" fill="#E25730"/>
<path d="M22.9944 24.6923C22.1336 25.2599 21.1064 25.5955 20 25.5955C18.8936 25.5955 17.8668 25.2599 17.0056 24.6923C15.6908 25.5511 14.764 26.9539 14.5548 28.5835C14.5076 28.9515 14.7764 29.2851 15.1476 29.2851H24.856C25.1996 29.2851 25.4924 28.9943 25.4532 28.6527C25.262 26.9935 24.3276 25.5631 22.9944 24.6923ZM33.8996 11.4159C33.0388 11.9835 32.0116 12.3191 30.9052 12.3191C29.7988 12.3191 28.772 11.9835 27.9108 11.4159C27.3371 11.7938 26.8386 12.275 26.4408 12.8351C27.8509 13.6531 29.0941 14.7298 30.1052 16.0087H35.7572C36.1284 16.0087 36.3972 15.6755 36.35 15.3071C36.1416 13.6775 35.2144 12.2751 33.8996 11.4159Z" fill="#E25730"/>
<path d="M9.09435 10.5192C11.1155 10.5192 12.754 8.88069 12.754 6.85955C12.754 4.83841 11.1155 3.19995 9.09435 3.19995C7.07321 3.19995 5.43475 4.83841 5.43475 6.85955C5.43475 8.88069 7.07321 10.5192 9.09435 10.5192Z" fill="#E25730"/>
<path d="M6.10037 11.4159C6.96117 11.9835 7.98837 12.3191 9.09477 12.3191C10.2012 12.3191 11.228 11.9835 12.0892 11.4159C12.6629 11.7938 13.1613 12.275 13.5592 12.8351C12.149 13.6531 10.9058 14.7298 9.89477 16.0087H4.24277C3.87157 16.0087 3.60277 15.6755 3.64997 15.3071C3.85837 13.6775 4.78557 12.2751 6.10037 11.4159Z" fill="#E25730"/>
</svg>
