<svg xmlns="http://www.w3.org/2000/svg" viewBox="0 0 64.76 24.37"><defs><style>.cls-1{fill:#003471;}</style></defs><title>logo 1</title><g id="Layer_2" data-name="Layer 2"><g id="Layer_1-2" data-name="Layer 1"><path class="cls-1" d="M34.73,7.2H32.08l-2.58,7-2.61-7H24.26l.16,1.19c.42,6.43-5.21,13-11.14,12.86v0c5.89,1.35,12.22-3.7,13-9.93.3,1.07,2.4,6.48,2.64,7.08h1.23l2.63-6.89.71,6.89H35.9Z"/><path class="cls-1" d="M0,10.82a8.47,8.47,0,0,0,0,.89A14.15,14.15,0,0,0,24.35,20a16.3,16.3,0,0,1-9,2.64C7.39,22.63.82,17.05,0,9.9c0,0,0,.45,0,.92"/><path class="cls-1" d="M46.43,7.2V18.33a17.72,17.72,0,0,0,2.63.17,6.73,6.73,0,0,0,4.42-1.28,3.39,3.39,0,0,0,1-2.53A3.2,3.2,0,0,0,53.26,12a5.12,5.12,0,0,0-3.07-.92,11.13,11.13,0,0,0-1.33.08V9.23h2.85a2.16,2.16,0,0,0,2.44-2Zm2.41,9.25V13a7.63,7.63,0,0,1,.85-.07,2.63,2.63,0,0,1,1.62.5,1.53,1.53,0,0,1,.58,1.25,1.78,1.78,0,0,1-.53,1.3,2.39,2.39,0,0,1-1.58.56,5.73,5.73,0,0,1-.93-.06"/><path class="cls-1" d="M5.56,9.35c4.59,1.79,6.42,5.46,7.37,10.11C8.15,17.82,6.17,14.27,5.56,9.35m8.64,4.18a11.17,11.17,0,0,0-4.14-4,9.42,9.42,0,0,0-1-.55,9.44,9.44,0,0,0-1.5-.63,5.37,5.37,0,0,1,.1-1.19A10.65,10.65,0,0,1,8,6.09a13.87,13.87,0,0,1,3.45,1.76,15.82,15.82,0,0,1,2.79,2.51c1.74-2.49,3.27-4.12,6.9-5C17,4.83,15.75,6,14.22,7.69a8,8,0,0,0-3.65-2.43l-.09,0a8,8,0,0,1,.79-1.67,4.32,4.32,0,0,1,1.3-1.48,5.13,5.13,0,0,1,1.64,1.22,3.37,3.37,0,0,1,.67-.71c.66-.54.95-.49.95-.49a3.06,3.06,0,0,1,1.57.72,7.56,7.56,0,0,1,1.5,1.28,5.82,5.82,0,0,0-1.1-2.4A4.5,4.5,0,0,0,16,0c-.08,0-.34,0-1,.39a2.69,2.69,0,0,0-.87.76,3.35,3.35,0,0,0-.9-.81C12.72,0,12.53,0,12.4,0a5.7,5.7,0,0,0-1.19.62A9.22,9.22,0,0,0,9.68,2a9,9,0,0,0-1.6,2.59,11.15,11.15,0,0,0-2.35-.43,12,12,0,0,0-.81,1.76,7.76,7.76,0,0,0-.37,1.81,12.36,12.36,0,0,0-2.1,0s-.07.77-.08,1.1A11.1,11.1,0,0,0,4.3,15.18c2.48,3.71,7,6,11.2,5.07.16-7,3.17-10,7.79-12-5.08-.07-6.74,2.21-9.09,5.27"/><path class="cls-1" d="M45,15.43l0-.24,0-.06a2.71,2.71,0,0,0-2.64-2.63v0a2.65,2.65,0,0,0,2.25-2.6c0-1.62-1.45-2.83-3.9-2.83a6.89,6.89,0,0,0-3.5.89l.58,1.78A6.1,6.1,0,0,1,40.29,9c1.09,0,1.7.49,1.7,1.21,0,.88-.86,1.39-2,1.39H38.9V13.5H40c1.07,0,2.37.24,2.37,1.45,0,0,0,.08,0,.17a1.65,1.65,0,0,1-1.56,1.33H39.15a2.14,2.14,0,0,0-2.44,2h3.73c2,0,4.28-.67,4.58-2.78h0Z"/><polygon class="cls-1" points="64.76 7.2 62.36 7.2 62.36 7.2 62.36 11.47 58.31 11.47 58.31 7.2 55.86 7.2 55.86 18.43 58.31 18.43 58.31 18.43 58.31 13.73 62.36 13.73 62.36 18.43 64.76 18.43 64.76 7.2"/></g></g></svg>