<svg width="48" height="48" viewBox="0 0 48 48" fill="none" xmlns="http://www.w3.org/2000/svg">
<path d="M43.459 39.5676H4.54012C3.68027 39.5665 2.85594 39.2245 2.24794 38.6165C1.63993 38.0085 1.2979 37.1842 1.29688 36.3243V7.78377C1.2979 6.92393 1.63993 6.09959 2.24794 5.49159C2.85594 4.88359 3.68027 4.54156 4.54012 4.54053H43.459C44.3189 4.54156 45.1432 4.88359 45.7512 5.49159C46.3592 6.09959 46.7013 6.92393 46.7023 7.78377V15.5676H45.405V7.78377C45.405 7.26767 45.2 6.77271 44.835 6.40778C44.4701 6.04284 43.9751 5.83782 43.459 5.83782H4.54012C4.02402 5.83782 3.52906 6.04284 3.16413 6.40778C2.79919 6.77271 2.59417 7.26767 2.59417 7.78377V36.3243C2.59417 36.8404 2.79919 37.3354 3.16413 37.7003C3.52906 38.0652 4.02402 38.2703 4.54012 38.2703H43.459C43.9751 38.2703 44.4701 38.0652 44.835 37.7003C45.2 37.3354 45.405 36.8404 45.405 36.3243V15.5676H46.7023V36.3243C46.7013 37.1842 46.3592 38.0085 45.7512 38.6165C45.1432 39.2245 44.3189 39.5665 43.459 39.5676Z" fill="#E25730"/>
<path d="M43.4592 34.3784H4.54025C4.36822 34.3784 4.20323 34.31 4.08159 34.1884C3.95994 34.0667 3.8916 33.9018 3.8916 33.7297V7.78378C3.8916 7.61175 3.95994 7.44676 4.08159 7.32512C4.20323 7.20347 4.36822 7.13513 4.54025 7.13513H43.4592C43.6312 7.13513 43.7962 7.20347 43.9178 7.32512C44.0395 7.44676 44.1078 7.61175 44.1078 7.78378V33.7297C44.1078 33.9018 44.0395 34.0667 43.9178 34.1884C43.7962 34.31 43.6312 34.3784 43.4592 34.3784ZM5.1889 33.0811H42.8105V8.43243H5.1889V33.0811ZM21.4051 35.6757H26.5943V36.973H21.4051V35.6757ZM15.5673 42.1622H32.4321V43.4595H15.5673V42.1622Z" fill="#E25730"/>
<path d="M28.574 39.1426L29.8051 38.7327L31.1017 42.6265L29.8706 43.0365L28.574 39.1426ZM16.9067 42.5837L18.2034 38.6905L19.4345 39.1005L18.1372 42.9943L16.9067 42.5837ZM26.8576 23.4642L33.8364 16.4854L34.7536 17.4025L27.7748 24.3814L26.8576 23.4642ZM13.2373 24.1109L17.6209 19.7273L18.5381 20.6445L14.1545 25.0281L13.2373 24.1109ZM20.3711 20.6445L21.2883 19.7273L25.0245 23.4635L24.1074 24.3807L20.3711 20.6445Z" fill="#E25730"/>
<path d="M35.6754 18.1621C35.1623 18.1621 34.6606 18.0099 34.234 17.7248C33.8073 17.4397 33.4747 17.0345 33.2783 16.5604C33.082 16.0863 33.0306 15.5646 33.1307 15.0613C33.2308 14.558 33.4779 14.0957 33.8408 13.7328C34.2036 13.37 34.666 13.1229 35.1693 13.0228C35.6726 12.9226 36.1942 12.974 36.6683 13.1704C37.1424 13.3668 37.5477 13.6993 37.8328 14.126C38.1179 14.5527 38.27 15.0543 38.27 15.5675C38.27 16.2556 37.9967 16.9156 37.5101 17.4022C37.0235 17.8887 36.3636 18.1621 35.6754 18.1621ZM35.6754 14.2702C35.4189 14.2702 35.168 14.3463 34.9547 14.4888C34.7414 14.6314 34.5751 14.834 34.4769 15.071C34.3787 15.3081 34.353 15.5689 34.4031 15.8206C34.4531 16.0722 34.5767 16.3034 34.7581 16.4848C34.9395 16.6663 35.1707 16.7898 35.4223 16.8399C35.674 16.8899 35.9348 16.8642 36.1719 16.766C36.4089 16.6679 36.6116 16.5016 36.7541 16.2882C36.8967 16.0749 36.9727 15.8241 36.9727 15.5675C36.9727 15.2234 36.8361 14.8935 36.5928 14.6502C36.3495 14.4069 36.0195 14.2702 35.6754 14.2702ZM25.9457 27.8918C25.4325 27.8918 24.9309 27.7397 24.5042 27.4546C24.0775 27.1695 23.745 26.7642 23.5486 26.2901C23.3522 25.816 23.3009 25.2943 23.401 24.791C23.5011 24.2877 23.7482 23.8254 24.1111 23.4626C24.4739 23.0997 24.9362 22.8526 25.4395 22.7525C25.9428 22.6524 26.4645 22.7038 26.9386 22.9001C27.4127 23.0965 27.8179 23.4291 28.103 23.8557C28.3881 24.2824 28.5403 24.7841 28.5403 25.2972C28.5403 25.9854 28.2669 26.6453 27.7804 27.1319C27.2938 27.6185 26.6338 27.8918 25.9457 27.8918ZM25.9457 23.9999C25.6891 23.9999 25.4383 24.076 25.225 24.2186C25.0116 24.3611 24.8454 24.5637 24.7472 24.8008C24.649 25.0378 24.6233 25.2987 24.6733 25.5503C24.7234 25.802 24.8469 26.0331 25.0284 26.2146C25.2098 26.396 25.441 26.5195 25.6926 26.5696C25.9443 26.6197 26.2051 26.594 26.4422 26.4958C26.6792 26.3976 26.8818 26.2313 27.0244 26.018C27.1669 25.8046 27.243 25.5538 27.243 25.2972C27.243 24.9532 27.1063 24.6232 26.863 24.3799C26.6197 24.1366 26.2898 23.9999 25.9457 23.9999ZM19.4592 21.4053C18.9461 21.4053 18.4444 21.2532 18.0177 20.9681C17.5911 20.683 17.2585 20.2777 17.0621 19.8036C16.8658 19.3295 16.8144 18.8079 16.9145 18.3046C17.0146 17.8013 17.2617 17.3389 17.6246 16.9761C17.9874 16.6132 18.4497 16.3661 18.953 16.266C19.4563 16.1659 19.978 16.2173 20.4521 16.4136C20.9262 16.61 21.3315 16.9426 21.6165 17.3693C21.9016 17.7959 22.0538 18.2976 22.0538 18.8107C22.0538 19.4989 21.7805 20.1588 21.2939 20.6454C20.8073 21.132 20.1474 21.4053 19.4592 21.4053ZM19.4592 17.5134C19.2026 17.5134 18.9518 17.5895 18.7385 17.7321C18.5251 17.8746 18.3589 18.0772 18.2607 18.3143C18.1625 18.5513 18.1368 18.8122 18.1869 19.0638C18.2369 19.3155 18.3605 19.5466 18.5419 19.7281C18.7233 19.9095 18.9545 20.0331 19.2061 20.0831C19.4578 20.1332 19.7186 20.1075 19.9557 20.0093C20.1927 19.9111 20.3953 19.7448 20.5379 19.5315C20.6804 19.3181 20.7565 19.0673 20.7565 18.8107C20.7565 18.4667 20.6198 18.1367 20.3765 17.8934C20.1333 17.6501 19.8033 17.5134 19.4592 17.5134ZM12.3241 28.5405C11.8109 28.5405 11.3093 28.3883 10.8826 28.1032C10.4559 27.8181 10.1234 27.4129 9.927 26.9388C9.73062 26.4647 9.67923 25.943 9.77935 25.4397C9.87946 24.9364 10.1266 24.4741 10.4894 24.1112C10.8523 23.7484 11.3146 23.5012 11.8179 23.4011C12.3212 23.301 12.8429 23.3524 13.317 23.5488C13.7911 23.7452 14.1963 24.0777 14.4814 24.5044C14.7665 24.9311 14.9187 25.4327 14.9187 25.9459C14.9187 26.634 14.6453 27.2939 14.1587 27.7805C13.6722 28.2671 13.0122 28.5405 12.3241 28.5405ZM12.3241 24.6486C12.0675 24.6486 11.8167 24.7247 11.6033 24.8672C11.39 25.0098 11.2237 25.2124 11.1255 25.4494C11.0274 25.6865 11.0017 25.9473 11.0517 26.199C11.1018 26.4506 11.2253 26.6818 11.4068 26.8632C11.5882 27.0446 11.8193 27.1682 12.071 27.2182C12.3226 27.2683 12.5835 27.2426 12.8205 27.1444C13.0576 27.0462 13.2602 26.88 13.4028 26.6666C13.5453 26.4533 13.6214 26.2025 13.6214 25.9459C13.6214 25.6018 13.4847 25.2718 13.2414 25.0285C12.9981 24.7853 12.6682 24.6486 12.3241 24.6486Z" fill="#E25730"/>
</svg>
