<svg width="48" height="48" viewBox="0 0 48 48" fill="none" xmlns="http://www.w3.org/2000/svg">
<g clip-path="url(#clip0_1209_1607)">
<path d="M43.9432 19.9432C42.0289 19.9432 40.4212 21.2762 39.9968 23.0625H37.1994C36.9923 20.1178 35.818 17.4358 33.9923 15.3336L35.9751 13.3508C36.6139 13.7465 37.3506 13.9557 38.1021 13.955C40.3389 13.955 42.1588 12.135 42.1588 9.89812C42.1588 7.66125 40.3389 5.84128 38.1021 5.84128C35.8651 5.84128 34.0452 7.66125 34.0452 9.89812C34.0444 10.6495 34.2537 11.3862 34.6493 12.025L32.6666 14.0077C30.5644 12.1821 27.8824 11.0078 24.9377 10.8007V8.00325C26.724 7.57884 28.057 5.97113 28.057 4.05684C28.0568 1.81987 26.237 0 24 0C21.763 0 19.9432 1.81987 19.9432 4.05684C19.9432 5.97113 21.2762 7.57884 23.0625 8.00325V10.8007C20.1178 11.0078 17.4358 12.182 15.3336 14.0077L13.3508 12.025C13.7465 11.3862 13.9557 10.6495 13.955 9.89812C13.955 7.66116 12.1351 5.84128 9.89812 5.84128C7.66125 5.84128 5.84137 7.66125 5.84137 9.89812C5.84137 12.135 7.66125 13.955 9.89812 13.955C10.6496 13.9557 11.3863 13.7465 12.0251 13.3508L14.0078 15.3336C12.1821 17.4358 11.0078 20.1178 10.8007 23.0625H8.00325C7.57894 21.2762 5.97122 19.9432 4.05694 19.9432C1.81987 19.9432 0 21.763 0 24C0 26.2371 1.81987 28.0569 4.05684 28.0569C5.97113 28.0569 7.57884 26.7239 8.00316 24.9376H10.8006C11.0077 27.8823 12.182 30.5643 14.0077 32.6665L12.0249 34.6493C11.3861 34.2536 10.6494 34.0444 9.89803 34.0451C7.66116 34.0451 5.84128 35.865 5.84128 38.102C5.84128 40.3389 7.66116 42.1588 9.89803 42.1588C12.135 42.1588 13.9549 40.3389 13.9549 38.102C13.9556 37.3506 13.7464 36.6139 13.3507 35.9751L15.3335 33.9923C17.4357 35.818 20.1177 36.9923 23.0624 37.1994V39.9968C21.2761 40.4212 19.9431 42.0289 19.9431 43.9432C19.9432 46.1801 21.763 48 24 48C26.237 48 28.0568 46.1801 28.0568 43.9432C28.0568 42.0289 26.7238 40.4212 24.9375 39.9968V37.1994C27.8822 36.9923 30.5642 35.818 32.6664 33.9923L34.6492 35.9751C34.2535 36.6139 34.0443 37.3506 34.045 38.102C34.045 40.3389 35.8649 42.1588 38.1019 42.1588C40.3388 42.1588 42.1586 40.3389 42.1586 38.102C42.1586 35.865 40.3388 34.0451 38.1019 34.0451C37.3505 34.0444 36.6138 34.2536 35.975 34.6493L33.9923 32.6665C35.818 30.5643 36.9922 27.8823 37.1993 24.9376H39.9967C40.4211 26.7239 42.0288 28.0569 43.9431 28.0569C46.1801 28.0568 48 26.237 48 24C48 21.763 46.1801 19.9432 43.9432 19.9432ZM4.05684 26.1818C2.85375 26.1818 1.875 25.2031 1.875 24C1.875 22.7969 2.85375 21.8182 4.05684 21.8182C5.25994 21.8182 6.23878 22.7969 6.23878 24C6.23878 25.2031 5.25994 26.1818 4.05684 26.1818ZM38.102 7.71619C39.305 7.71619 40.2837 8.69494 40.2837 9.89803C40.2837 11.1011 39.305 12.0799 38.102 12.0799C36.8989 12.0799 35.9201 11.1011 35.9201 9.89803C35.9201 8.69494 36.8989 7.71619 38.102 7.71619ZM21.8182 4.05684C21.8182 2.85375 22.7969 1.875 24 1.875C25.2031 1.875 26.1818 2.85375 26.1818 4.05684C26.1818 5.25994 25.2031 6.23878 24 6.23878C22.7969 6.23878 21.8182 5.25994 21.8182 4.05684ZM9.89803 12.08C8.69503 12.08 7.71628 11.1012 7.71628 9.89812C7.71628 8.69503 8.69503 7.71628 9.89803 7.71628C11.1011 7.71628 12.0799 8.69503 12.0799 9.89812C12.0799 11.1012 11.1011 12.08 9.89803 12.08ZM9.89803 40.2838C8.69503 40.2838 7.71628 39.3051 7.71628 38.102C7.71628 36.8989 8.69503 35.9201 9.89803 35.9201C11.1011 35.9201 12.0799 36.8989 12.0799 38.102C12.0799 39.3051 11.1011 40.2838 9.89803 40.2838ZM26.1818 43.9432C26.1818 45.1462 25.2031 46.125 24 46.125C22.7969 46.125 21.8182 45.1462 21.8182 43.9432C21.8182 42.7401 22.7969 41.7613 24 41.7613C25.2031 41.7613 26.1818 42.7401 26.1818 43.9432ZM38.102 35.92C39.305 35.92 40.2837 36.8988 40.2837 38.1019C40.2837 39.305 39.305 40.2837 38.102 40.2837C36.8989 40.2837 35.9201 39.305 35.9201 38.1019C35.9201 36.8988 36.8989 35.92 38.102 35.92ZM24 35.358C17.7371 35.358 12.642 30.2628 12.642 23.9999C12.642 17.7371 17.7372 12.6419 24 12.6419C30.2628 12.6419 35.358 17.7371 35.358 24C35.358 30.2629 30.2629 35.358 24 35.358ZM43.9432 26.1818C42.7401 26.1818 41.7613 25.2031 41.7613 24C41.7613 22.7969 42.7401 21.8182 43.9432 21.8182C45.1462 21.8182 46.125 22.7969 46.125 24C46.125 25.2031 45.1462 26.1818 43.9432 26.1818ZM24.0002 22.2204C25.8755 22.2204 27.4011 20.6947 27.4011 18.8195C27.4011 16.9444 25.8755 15.419 24.0002 15.419C22.1249 15.419 20.5993 16.9444 20.5993 18.8195C20.5993 20.6947 22.1249 22.2204 24.0002 22.2204ZM24.0002 17.2939C24.8416 17.2939 25.5261 17.9783 25.5261 18.8194C25.5261 19.6608 24.8415 20.3453 24.0002 20.3453C23.1589 20.3453 22.4743 19.6608 22.4743 18.8194C22.4743 17.9783 23.1588 17.2939 24.0002 17.2939ZM24.0002 22.7936C20.5442 22.7936 17.7325 25.6051 17.7325 29.0609C17.7325 31.3823 21.1088 32.206 24.0001 32.206C26.8913 32.206 30.2677 31.3823 30.2677 29.0609C30.2676 25.6051 27.456 22.7936 24.0002 22.7936ZM24 30.331C21.1161 30.331 19.6074 29.5042 19.6074 29.0609C19.6074 26.639 21.5781 24.6686 24.0001 24.6686C26.422 24.6686 28.3925 26.639 28.3925 29.0609C28.3926 29.5042 26.8839 30.331 24 30.331Z" fill="#E25730"/>
</g>
<defs>
<clipPath id="clip0_1209_1607">
<rect width="48" height="48" fill="white"/>
</clipPath>
</defs>
</svg>
