<svg width="48" height="48" viewBox="0 0 48 48" fill="none" xmlns="http://www.w3.org/2000/svg">
<path d="M20.5005 17.343L17.9243 16.5833L16.4063 14.3678C16.2729 14.1736 16.0943 14.0149 15.8859 13.9052C15.6775 13.7955 15.4455 13.7382 15.21 13.7382C14.9745 13.7382 14.7425 13.7955 14.5341 13.9052C14.3257 14.0149 14.1471 14.1736 14.0138 14.3678L12.4943 16.5833L9.91876 17.343C9.69278 17.4097 9.48644 17.5303 9.31757 17.6946C9.14871 17.8589 9.02241 18.0619 8.94959 18.286C8.87677 18.51 8.85963 18.7485 8.89965 18.9806C8.93966 19.2128 9.03563 19.4317 9.17926 19.6185L10.8165 21.7478L10.743 24.4328C10.7367 24.6682 10.7879 24.9016 10.892 25.1129C10.9962 25.3242 11.1502 25.5069 11.3408 25.6453C11.5314 25.7836 11.7528 25.8735 11.9859 25.9072C12.219 25.9408 12.4568 25.9171 12.6788 25.8383L15.2093 24.9383L17.739 25.8383C17.961 25.9175 18.1991 25.9414 18.4324 25.9079C18.6658 25.8744 18.8874 25.7845 19.0782 25.6459C19.269 25.5074 19.4231 25.3245 19.5271 25.1129C19.6312 24.9014 19.6822 24.6677 19.6755 24.432L19.602 21.7478L21.2393 19.6185C21.3806 19.4311 21.4747 19.2123 21.5135 18.9808C21.5523 18.7492 21.5347 18.5118 21.4622 18.2885C21.3897 18.0652 21.2644 17.8626 21.097 17.6981C20.9296 17.5335 20.725 17.4117 20.5005 17.343ZM18.2505 21.045C18.1455 21.1814 18.0907 21.3499 18.0953 21.522L18.174 24.4005C18.084 24.3855 15.2108 23.3018 15.2093 23.3925C15.2108 23.301 12.3323 24.387 12.2445 24.4005L12.3233 21.522C12.3279 21.3499 12.273 21.1814 12.168 21.045L10.4115 18.7613L13.1745 17.9468C13.34 17.8981 13.4837 17.7937 13.581 17.6513L15.2093 15.2753L16.8375 17.6513C16.9349 17.7937 17.0785 17.8981 17.244 17.9468L20.007 18.7613L18.2505 21.045Z" fill="#E25730"/>
<path d="M42.6495 4.43106L41.5875 5.17581C41.2696 5.06263 40.9349 5.00405 40.5975 5.00256H4.5975C3.8021 5.00335 3.0395 5.31968 2.47706 5.88211C1.91462 6.44455 1.5983 7.20715 1.5975 8.00256V33.5026C1.5983 34.298 1.91462 35.0606 2.47706 35.623C3.0395 36.1854 3.8021 36.5018 4.5975 36.5026H19.5945V37.5151C16.8038 38.0228 15.0975 39.1883 15.0975 40.6276C15.0975 42.8431 18.87 44.0026 22.5975 44.0026C26.325 44.0026 30.0975 42.8431 30.0975 40.6276C30.0975 39.1876 28.389 38.0213 25.5945 37.5143V36.5018H40.5975C41.3929 36.501 42.1555 36.1847 42.7179 35.6222C43.2804 35.0598 43.5967 34.2972 43.5975 33.5018V10.1791L45.705 8.07381C46.119 7.64984 46.3606 7.08716 46.3829 6.49504C46.4052 5.90291 46.2067 5.32363 45.8259 4.86968C45.445 4.41574 44.9091 4.11954 44.3221 4.03862C43.7351 3.9577 43.139 4.09709 42.6495 4.43106ZM28.5975 40.6276C28.5975 41.2643 26.4795 42.5026 22.5975 42.5026C18.7155 42.5026 16.5975 41.2643 16.5975 40.6276C16.5975 40.1701 17.706 39.4088 19.782 39.0121C19.9919 39.5894 20.3745 40.0882 20.8777 40.4406C21.3809 40.7931 21.9804 40.9821 22.5948 40.982C23.2091 40.9819 23.8086 40.7927 24.3117 40.4402C24.8148 40.0876 25.1972 39.5887 25.407 39.0113C27.4868 39.4081 28.5975 40.1701 28.5975 40.6276ZM24.0945 38.0018C24.0945 38.3996 23.9365 38.7812 23.6552 39.0625C23.3739 39.3438 22.9923 39.5018 22.5945 39.5018C22.1967 39.5018 21.8151 39.3438 21.5338 39.0625C21.2525 38.7812 21.0945 38.3996 21.0945 38.0018V36.5018H24.0945V38.0018ZM40.5975 35.0018H4.5975C4.1998 35.0014 3.8185 34.8432 3.53728 34.562C3.25606 34.2808 3.0979 33.8995 3.0975 33.5018V33.0001H42.0975V33.5026C42.0971 33.9003 41.9389 34.2816 41.6577 34.5628C41.3765 34.844 40.9952 35.0014 40.5975 35.0018ZM42.0975 31.5001H3.0975V8.00256C3.0979 7.60485 3.25606 7.22355 3.53728 6.94234C3.8185 6.66112 4.1998 6.50295 4.5975 6.50256H39.6945L31.0395 12.5701C30.6527 12.8425 30.3614 13.2297 30.2069 13.6769C30.0524 14.124 30.0425 14.6084 30.1785 15.0616C29.7877 15.3555 29.4274 15.6879 29.103 16.0538C28.0593 15.5857 26.8777 15.527 25.7927 15.8893C24.7078 16.2517 23.7986 17.0085 23.2455 18.0098C22.3425 20.0984 21.8852 22.3524 21.903 24.6278C17.3625 31.3058 6.8775 28.0853 6.8475 20.0026C6.84728 18.3382 7.35056 16.7127 8.29122 15.3396C9.23189 13.9665 10.5659 12.9101 12.1181 12.3093C13.6702 11.7084 15.3678 11.5911 16.9878 11.9728C18.6078 12.3545 20.0744 13.2174 21.195 14.4481C21.3291 14.5953 21.5161 14.6832 21.715 14.6924C21.9139 14.7017 22.1083 14.6316 22.2555 14.4976C22.4027 14.3635 22.4906 14.1764 22.4999 13.9776C22.5092 13.7787 22.4391 13.5843 22.305 13.4371C20.9805 11.9826 19.247 10.9629 17.3323 10.5118C15.4176 10.0607 13.4112 10.1994 11.5767 10.9097C9.74227 11.6199 8.16559 12.8685 7.05383 14.4914C5.94207 16.1142 5.34725 18.0354 5.3475 20.0026C5.43 29.7661 18.12 33.4028 23.3513 25.1753C25.4798 25.3388 28.8615 25.3628 30.3165 24.1328C30.9876 23.5626 31.4903 22.82 31.7702 21.985C32.0502 21.1501 32.0968 20.2546 31.905 19.3951C32.323 19.1401 32.7138 18.8431 33.0713 18.5086C33.4938 18.721 33.9725 18.7953 34.4395 18.7207C34.9066 18.6461 35.3384 18.4265 35.6738 18.0931L42.0975 11.6768V31.5001ZM29.3513 22.9846C28.4333 23.7608 25.6755 23.8471 23.4083 23.6753C23.7353 20.7953 24.2768 15.8386 28.6703 17.5096C28.6946 17.9946 28.877 18.4584 29.1895 18.8301C29.502 19.2018 29.9276 19.4611 30.4013 19.5683C30.5702 20.1786 30.5612 20.8245 30.3751 21.4298C30.1891 22.0351 29.8338 22.5745 29.3513 22.9846ZM31.3913 17.9603C31.2389 18.0882 31.042 18.1503 30.8438 18.133C30.6456 18.1157 30.4624 18.0204 30.3345 17.8681C30.2066 17.7157 30.1445 17.5188 30.1618 17.3206C30.1791 17.1224 30.2744 16.9392 30.4268 16.8113L31.0013 16.3291L31.9658 17.4781L31.3913 17.9603ZM44.6453 7.01256L34.6133 17.0326C34.5396 17.1055 34.4517 17.1625 34.3551 17.1998C34.2584 17.2372 34.155 17.2541 34.0515 17.2496C33.948 17.2451 33.8465 17.2192 33.7534 17.1736C33.6604 17.128 33.5777 17.0636 33.5108 16.9846L32.6333 15.9391L31.7558 14.8943C31.6895 14.8144 31.6404 14.7217 31.6117 14.622C31.5829 14.5223 31.5751 14.4177 31.5887 14.3148C31.6023 14.2119 31.637 14.1129 31.6907 14.0241C31.7443 13.9353 31.8158 13.8585 31.9005 13.7986C32.6693 13.2586 43.1475 5.91381 43.5105 5.65881C43.6925 5.53595 43.9136 5.48488 44.131 5.51545C44.3484 5.54603 44.5468 5.65608 44.6879 5.82436C44.8289 5.99263 44.9027 6.20721 44.8948 6.42664C44.8869 6.64608 44.798 6.85482 44.6453 7.01256Z" fill="#E25730"/>
</svg>
