<svg width="48" height="48" viewBox="0 0 48 48" fill="none" xmlns="http://www.w3.org/2000/svg">
<g clip-path="url(#clip0_1209_1526)">
<path d="M47.9572 5.84081C47.906 5.67744 47.811 5.53121 47.6826 5.41795C47.5542 5.3047 47.3973 5.22875 47.2288 5.19834L43.4778 4.52221L42.8017 0.771183C42.7713 0.602678 42.6954 0.445702 42.5821 0.317288C42.4689 0.188874 42.3226 0.0939256 42.1592 0.0427443C41.9959 -0.00843711 41.8216 -0.0138967 41.6553 0.0269579C41.489 0.0678126 41.3371 0.153421 41.2161 0.274495L36.5694 4.92112C32.7006 2.33203 28.2052 0.966839 23.5165 0.966839C17.2351 0.966839 11.3295 3.41296 6.88781 7.85465C2.44613 12.2965 0 18.2019 0 24.4835C0 30.765 2.44613 36.6704 6.88781 41.1122C11.3295 45.5539 17.235 48 23.5165 48C29.7981 48 35.7036 45.5539 40.1452 41.1122C44.5869 36.6705 47.0331 30.765 47.0331 24.4835C47.0331 19.7953 45.6679 15.3 43.0787 11.4307L47.7254 6.78393C47.8465 6.66287 47.9321 6.51097 47.9729 6.34472C48.0138 6.17846 48.0083 6.00419 47.9572 5.84081ZM22.8536 25.1465C23.0367 25.3296 23.2766 25.4211 23.5165 25.4211C23.7564 25.4211 23.9964 25.3295 24.1794 25.1465L29.2668 20.0591C30.2122 21.285 30.7765 22.8192 30.7765 24.4835C30.7765 28.4867 27.5197 31.7435 23.5165 31.7435C19.5134 31.7435 16.2566 28.4867 16.2566 24.4835C16.2566 20.4802 19.5134 17.2235 23.5165 17.2235C25.1809 17.2235 26.7151 17.7877 27.941 18.7332L22.8536 23.8206C22.4875 24.1867 22.4875 24.7803 22.8536 25.1465ZM29.2759 17.3984C27.7032 16.1176 25.6981 15.3485 23.5165 15.3485C18.4794 15.3485 14.3816 19.4465 14.3816 24.4835C14.3816 29.5205 18.4795 33.6185 23.5165 33.6185C28.5536 33.6185 32.6515 29.5205 32.6515 24.4835C32.6515 22.3019 31.8824 20.2969 30.6017 18.7242L34.3914 14.9346C36.634 17.4854 37.9962 20.8282 37.9962 24.4835C37.9962 32.4675 31.5007 38.9631 23.5165 38.9631C15.5324 38.9631 9.03694 32.4675 9.03694 24.4835C9.03694 16.4994 15.5325 10.0039 23.5165 10.0039C27.1719 10.0039 30.5147 11.3661 33.0655 13.6087L29.2759 17.3984ZM45.1581 24.4835C45.1581 36.4166 35.4497 46.125 23.5165 46.125C11.5834 46.125 1.875 36.4166 1.875 24.4835C1.875 12.5503 11.5834 2.84193 23.5165 2.84193C27.706 2.84193 31.7272 4.02609 35.2155 6.27524L34.8434 6.64734C34.7364 6.75434 34.6569 6.88565 34.6117 7.03005C34.5665 7.17445 34.5569 7.32764 34.5837 7.47656L35.2883 11.386L34.3931 12.2812C31.5007 9.70031 27.689 8.12896 23.5166 8.12896C14.4986 8.12896 7.16203 15.4657 7.16203 24.4836C7.16203 33.5015 14.4986 40.8382 23.5166 40.8382C32.5346 40.8382 39.8713 33.5015 39.8713 24.4836C39.8713 20.3112 38.3 16.4995 35.719 13.6072L36.6142 12.712L40.5235 13.4167C40.6725 13.4435 40.8256 13.4338 40.97 13.3886C41.1144 13.3434 41.2457 13.2639 41.3527 13.1569L41.7248 12.7848C43.9739 16.2735 45.1581 20.2946 45.1581 24.4835ZM40.3735 11.4842L37.1049 10.8952L36.5158 7.62656L41.2743 2.868L41.7479 5.49562C41.7818 5.68376 41.8724 5.85704 42.0076 5.99223C42.1428 6.12742 42.316 6.21806 42.5042 6.252L45.1319 6.72562L40.3735 11.4842Z" fill="#E25730"/>
</g>
<defs>
<clipPath id="clip0_1209_1526">
<rect width="48" height="48" fill="white"/>
</clipPath>
</defs>
</svg>
