<svg width="48" height="48" viewBox="0 0 48 48" fill="none" xmlns="http://www.w3.org/2000/svg">
<path d="M8.48738 24.9252H0.9375C0.419813 24.9252 0 25.345 0 25.8627V45.4337C0 45.9514 0.419813 46.3712 0.9375 46.3712H8.48738C9.00506 46.3712 9.42488 45.9514 9.42488 45.4337V25.8627C9.42488 25.345 9.00516 24.9252 8.48738 24.9252ZM7.54987 44.4962H1.875V26.8002H7.54987V44.4962ZM21.3458 17.8269H13.7959C13.2782 17.8269 12.8584 18.2467 12.8584 18.7644V45.4337C12.8584 45.9514 13.2782 46.3712 13.7959 46.3712H21.3458C21.8634 46.3712 22.2833 45.9514 22.2833 45.4337V18.7644C22.2833 18.2467 21.8635 17.8269 21.3458 17.8269ZM20.4083 44.4962H14.7334V19.7019H20.4083V44.4962ZM34.2041 20.691H26.6543C26.1366 20.691 25.7168 21.1108 25.7168 21.6285V45.4337C25.7168 45.9514 26.1366 46.3712 26.6543 46.3712H34.2041C34.7218 46.3712 35.1416 45.9514 35.1416 45.4337V21.6285C35.1416 21.1108 34.7218 20.691 34.2041 20.691ZM33.2666 44.4962H27.5918V22.566H33.2666V44.4962ZM47.0625 12.2229H39.5126C38.9949 12.2229 38.5751 12.6427 38.5751 13.1604V45.4337C38.5751 45.9514 38.9949 46.3712 39.5126 46.3712H47.0625C47.5802 46.3712 48 45.9514 48 45.4337V13.1604C48 12.6426 47.5802 12.2229 47.0625 12.2229ZM46.125 44.4962H40.4501V14.0979H46.125V44.4962ZM4.71253 22.3936C6.93534 22.3936 8.74378 20.5852 8.74378 18.3624C8.74369 17.9995 8.69446 17.6383 8.59744 17.2886L14.5933 13.9786C15.331 14.7871 16.3927 15.2953 17.5708 15.2953C19.16 15.2953 20.537 14.3706 21.193 13.0313L26.3994 14.191C26.4333 16.3848 28.2274 18.1593 30.4292 18.1593C32.652 18.1593 34.4604 16.3509 34.4604 14.1281C34.4604 13.646 34.3751 13.1835 34.2192 12.7546L40.5313 8.59766C41.2528 9.27501 42.2223 9.69116 43.2876 9.69116C45.5104 9.69116 47.3188 7.88272 47.3188 5.65991C47.3188 3.4371 45.5104 1.62866 43.2876 1.62866C41.0648 1.62866 39.2563 3.4371 39.2563 5.65991C39.2563 6.14197 39.3416 6.60454 39.4975 7.03335L33.1854 11.1903C32.4639 10.513 31.4945 10.0968 30.4291 10.0968C28.8398 10.0968 27.4628 11.0215 26.8068 12.3608L21.6004 11.2011C21.5665 9.00735 19.7724 7.23276 17.5707 7.23276C15.3479 7.23276 13.5395 9.04119 13.5395 11.264C13.5395 11.6358 13.5911 11.9956 13.6858 12.3377L7.68984 15.6477C6.95213 14.8392 5.8905 14.331 4.71234 14.331C2.48953 14.331 0.681094 16.1395 0.681094 18.3623C0.681094 20.5851 2.48972 22.3936 4.71253 22.3936ZM43.2876 3.50385C44.4766 3.50385 45.4438 4.47107 45.4438 5.6601C45.4438 6.84913 44.4766 7.81635 43.2876 7.81635C42.0985 7.81635 41.1313 6.84913 41.1313 5.6601C41.1313 4.47107 42.0986 3.50385 43.2876 3.50385ZM30.4292 11.972C31.6182 11.972 32.5854 12.9392 32.5854 14.1283C32.5854 15.3173 31.6182 16.2845 30.4292 16.2845C29.2402 16.2845 28.2728 15.3173 28.2728 14.1283C28.2728 12.9392 29.2402 11.972 30.4292 11.972ZM17.5708 9.10785C18.7598 9.10785 19.7271 10.0751 19.7271 11.2641C19.7271 12.4531 18.7598 13.4203 17.5708 13.4203C16.3818 13.4203 15.4146 12.4531 15.4146 11.2641C15.4146 10.0751 16.3818 9.10785 17.5708 9.10785ZM4.71253 16.2061C5.90156 16.2061 6.86878 17.1734 6.86878 18.3624C6.86878 19.5514 5.90156 20.5186 4.71253 20.5186C3.5235 20.5186 2.55628 19.5514 2.55628 18.3624C2.55628 17.1734 3.5235 16.2061 4.71253 16.2061Z" fill="#E25730"/>
</svg>
