<svg width="48" height="48" viewBox="0 0 48 48" fill="none" xmlns="http://www.w3.org/2000/svg">
<g clip-path="url(#clip0_1209_1562)">
<path d="M32.6848 30.1281C32.6848 31.1635 31.8452 32.0031 30.8098 32.0031C29.7743 32.0031 28.9348 31.1635 28.9348 30.1281C28.9348 29.0926 29.7743 28.2531 30.8098 28.2531C31.8452 28.2531 32.6848 29.0926 32.6848 30.1281ZM22.7238 28.2531C21.6883 28.2531 20.8488 29.0926 20.8488 30.1281C20.8488 31.1635 21.6884 32.0031 22.7238 32.0031C23.7593 32.0031 24.5988 31.1635 24.5988 30.1281C24.5988 29.0926 23.7593 28.2531 22.7238 28.2531ZM38.8957 28.2531C37.8602 28.2531 37.0207 29.0926 37.0207 30.1281C37.0207 31.1635 37.8602 32.0031 38.8957 32.0031C39.9312 32.0031 40.7707 31.1635 40.7707 30.1281C40.7707 29.0926 39.9312 28.2531 38.8957 28.2531ZM47.9334 45.8581C47.8644 46.031 47.7456 46.1795 47.5919 46.2847C47.4383 46.3898 47.2569 46.4469 47.0707 46.4485C43.7691 46.4746 42.1917 46.0356 39.5759 44.7144C36.9037 46.3448 33.8453 47.2039 30.6952 47.2039C26.986 47.2039 23.5496 46.0144 20.7462 43.9977C17.128 43.8049 13.6172 42.7045 10.5431 40.801C7.15374 42.5242 5.16081 43.0977 0.929212 43.0615C0.743054 43.0598 0.561601 43.0028 0.407976 42.8976C0.254351 42.7925 0.135509 42.644 0.0665967 42.471C-0.00231611 42.2981 -0.0181801 42.1085 0.0210264 41.9266C0.0602328 41.7446 0.152734 41.5784 0.286743 41.4491C2.99968 38.833 3.57212 36.9242 3.65724 33.9957C1.45552 30.5342 0.293399 26.5359 0.293399 22.4126C0.293399 16.6387 2.5419 11.2103 6.62471 7.12746C10.7075 3.04464 16.1359 0.796143 21.9099 0.796143C27.042 0.796143 32.0169 2.62633 35.9182 5.94967C39.705 9.17524 42.2706 13.6152 43.166 18.4769C46.0206 21.5304 47.771 25.6284 47.771 30.1282C47.771 33.364 46.8648 36.5024 45.1477 39.2245C45.2194 41.4181 45.6671 42.8632 47.7133 44.8362C47.8473 44.9655 47.9397 45.1317 47.9789 45.3137C48.0181 45.4956 48.0023 45.6852 47.9334 45.8581ZM11.1067 38.9371C13.2772 40.3583 15.7073 41.3361 18.2572 41.8144C15.3832 38.7574 13.6196 34.6451 13.6196 30.1281C13.6196 20.7124 21.2797 13.0523 30.6953 13.0523C34.4224 13.0523 37.8739 14.2535 40.6847 16.2879C38.0863 8.25161 30.5929 2.67114 21.9099 2.67114C11.0244 2.67114 2.1684 11.5271 2.1684 22.4126C2.1684 26.2685 3.28084 30.0041 5.38543 33.2156C5.48876 33.3733 5.54215 33.5585 5.53862 33.747C5.48593 36.5739 5.04371 38.7382 3.12081 41.1366C5.75752 40.9654 7.36187 40.3422 10.161 38.8891C10.3087 38.8124 10.4741 38.7765 10.6403 38.7849C10.8066 38.7933 10.9675 38.8459 11.1067 38.9371ZM44.911 44.497C43.616 42.7291 43.3051 41.0846 43.2659 38.9775C43.2623 38.789 43.3157 38.6038 43.4191 38.4461C45.0395 35.9734 45.896 33.097 45.896 30.1281C45.896 21.7464 39.077 14.9273 30.6952 14.9273C22.3136 14.9273 15.4945 21.7463 15.4945 30.1281C15.4945 38.5099 22.3135 45.3289 30.6952 45.3289C33.6636 45.3289 36.5401 44.4723 39.0135 42.8518C39.1527 42.7606 39.3137 42.708 39.4799 42.6996C39.6461 42.6912 39.8116 42.7272 39.9593 42.8039C41.944 43.8344 43.1491 44.323 44.911 44.497Z" fill="#E25730"/>
</g>
<defs>
<clipPath id="clip0_1209_1562">
<rect width="48" height="48" fill="white"/>
</clipPath>
</defs>
</svg>
