<svg width="48" height="48" viewBox="0 0 48 48" fill="none" xmlns="http://www.w3.org/2000/svg">
<g clip-path="url(#clip0_1209_1579)">
<path d="M36.795 19.408C37.7461 18.8095 38.4267 17.8893 38.7192 16.7979C39.0267 15.6504 38.8689 14.4518 38.2749 13.423C37.0779 11.3497 34.4522 10.6052 32.3517 11.7121L28.3575 4.79392C27.8292 3.87892 26.9732 3.22361 25.9471 2.94864C24.9209 2.67367 23.8518 2.81317 22.937 3.34155C22.022 3.86983 21.3667 4.72586 21.0917 5.75186C20.8845 6.52502 20.9129 7.32255 21.1654 8.06017C19.2682 12.8412 15.2529 17.7171 9.80131 21.8767C9.71614 21.8193 9.6221 21.7762 9.52296 21.7494C9.40405 21.7175 9.28002 21.7094 9.15796 21.7254C9.0359 21.7415 8.9182 21.7815 8.81159 21.843L3.71478 24.7857C2.00009 25.7757 0.771777 27.3807 0.256152 29.305C-0.259473 31.2294 0.00171435 33.2335 0.991808 34.9482C2.36825 37.3323 4.87381 38.6665 7.44696 38.6665C8.70818 38.6665 9.98571 38.3459 11.1542 37.6713L11.446 37.5029L17.0668 44.8416C17.4552 45.3486 17.9966 45.647 18.6329 45.7046C18.7052 45.7112 18.7767 45.7144 18.8476 45.7144C19.4006 45.7144 19.9088 45.5168 20.3281 45.1363L21.8761 43.7317C22.7375 42.9499 22.8558 41.6623 22.1513 40.7367L16.8661 33.7928C23.1436 31.1969 29.3167 30.1797 34.366 30.9219C35.1309 31.7972 36.2326 32.2777 37.3594 32.2776C38.0538 32.2778 38.7359 32.0947 39.3369 31.7468C41.2317 30.6528 41.8833 28.2212 40.7892 26.3262L36.795 19.408ZM36.651 14.3605C36.9946 14.9556 37.0859 15.6489 36.908 16.3126C36.7452 16.9202 36.3743 17.4358 35.8563 17.7824L33.2902 13.3377C34.4935 12.7464 35.9709 13.1824 36.651 14.3605ZM7.44387 36.7919C5.51946 36.7918 3.64503 35.7938 2.61546 34.0107C1.87587 32.7297 1.68115 31.231 2.06721 29.7904C2.45318 28.3498 3.37118 27.1492 4.65218 26.4096L8.93712 23.9356L14.5016 33.5736L10.2166 36.0475C9.37405 36.5355 8.41755 36.7923 7.44387 36.7919ZM20.616 42.3431L19.0681 43.7477C18.9863 43.822 18.9112 43.8472 18.8016 43.8371C18.6915 43.8272 18.6225 43.7891 18.5553 43.7015L13.0835 36.5575L15.5362 35.1414L20.6592 41.8723C20.7127 41.9418 20.7379 42.0289 20.7299 42.1162C20.7219 42.2035 20.6812 42.2846 20.616 42.3431ZM15.862 32.1796L10.8246 23.4546C16.0719 19.4735 20.0783 14.8243 22.2936 10.1632L33.1073 28.8931C27.9629 28.481 21.9332 29.626 15.862 32.1796ZM38.3993 30.1228C37.3995 30.7001 36.1171 30.3562 35.54 29.3568L23.1083 7.82439C22.5312 6.82483 22.8749 5.54224 23.8744 4.96521C24.1895 4.78264 24.5472 4.68653 24.9114 4.68658C25.0946 4.68658 25.2794 4.71077 25.4618 4.75961C26.0041 4.90492 26.4559 5.25002 26.7337 5.73133L39.1653 27.2636C39.7424 28.2632 39.3987 29.5458 38.3993 30.1228ZM39.4188 12.7625C39.1599 12.3141 39.3135 11.7407 39.7619 11.4819L43.5254 9.30902C43.9738 9.05008 44.5472 9.20383 44.8061 9.65214C45.065 10.1005 44.9113 10.6739 44.4629 10.9328L40.6994 13.1056C40.5928 13.1672 40.4751 13.2072 40.3531 13.2233C40.231 13.2394 40.1069 13.2313 39.988 13.1994C39.8691 13.1676 39.7576 13.1126 39.6599 13.0376C39.5623 12.9626 39.4803 12.8691 39.4188 12.7625ZM35.0801 6.72452L37.3721 2.75458C37.6309 2.30627 38.2042 2.15242 38.6527 2.41146C39.1011 2.6703 39.2547 3.24367 38.9958 3.69208L36.7038 7.66202C36.6423 7.76866 36.5603 7.86213 36.4627 7.9371C36.365 8.01206 36.2535 8.06705 36.1346 8.09891C36.0157 8.13077 35.8916 8.1389 35.7696 8.12281C35.6475 8.10672 35.5298 8.06673 35.4232 8.00514C34.9747 7.7463 34.8211 7.17292 35.0801 6.72452ZM48 18.6016C48 19.1194 47.5802 19.5391 47.0625 19.5391H42.4785C41.9608 19.5391 41.541 19.1194 41.541 18.6016C41.541 18.0838 41.9608 17.6641 42.4785 17.6641H47.0625C47.5802 17.6641 48 18.0838 48 18.6016Z" fill="#E25730"/>
</g>
<defs>
<clipPath id="clip0_1209_1579">
<rect width="48" height="48" fill="white"/>
</clipPath>
</defs>
</svg>
