<svg width="48" height="48" viewBox="0 0 48 48" fill="none" xmlns="http://www.w3.org/2000/svg">
<g clip-path="url(#clip0_1209_1512)">
<path d="M16.7062 4.37803C9.90844 4.37803 4.37803 9.90844 4.37803 16.7062C4.37803 23.5041 9.90844 29.0346 16.7062 29.0346C23.5041 29.0346 29.0346 23.5041 29.0346 16.7062C29.0346 9.90844 23.5041 4.37803 16.7062 4.37803ZM16.7062 27.1596C10.9423 27.1596 6.25303 22.4702 6.25303 16.7062C6.25303 10.9423 10.9424 6.25303 16.7062 6.25303C22.4701 6.25303 27.1596 10.9423 27.1596 16.7062C27.1596 22.4703 22.4702 27.1596 16.7062 27.1596ZM47.1355 40.5683L36.193 29.6258C35.4134 28.8462 34.3038 28.594 33.3098 28.8677L30.5257 26.0835C32.3467 23.4082 33.4125 20.1795 33.4125 16.7062C33.4125 7.49437 25.9181 0 16.7062 0C7.49437 0 0 7.49437 0 16.7062C0 25.9181 7.49437 33.4125 16.7062 33.4125C20.1794 33.4125 23.4082 32.3467 26.0834 30.5256L28.8677 33.3098C28.594 34.3038 28.8462 35.4134 29.6257 36.1931L40.5682 47.1355C41.1258 47.693 41.869 48.0001 42.6613 48.0001C43.4536 48.0001 44.1968 47.6931 44.7543 47.1355L47.1354 44.7544C47.693 44.1969 48 43.4536 48 42.6614C48 41.8692 47.693 41.1258 47.1355 40.5683ZM1.875 16.7062C1.875 8.52834 8.52825 1.875 16.7062 1.875C24.8843 1.875 31.5375 8.52825 31.5375 16.7062C31.5375 24.8843 24.8843 31.5375 16.7062 31.5375C8.52825 31.5375 1.875 24.8843 1.875 16.7062ZM29.375 27.5845L31.7117 29.9212L29.9213 31.7116L27.5846 29.3749C28.2254 28.8238 28.8239 28.2253 29.375 27.5845ZM45.8096 43.4284L43.4285 45.8096C43.0122 46.2259 42.3097 46.2253 41.8942 45.8095L30.9517 34.8672C30.5287 34.4441 30.5287 33.7558 30.9517 33.3328L33.3329 30.9517C33.7449 30.5396 34.4576 30.542 34.8671 30.9517L45.8096 41.8942C46.2255 42.31 46.2248 43.0133 45.8096 43.4284Z" fill="#E25730"/>
</g>
<defs>
<clipPath id="clip0_1209_1512">
<rect width="48" height="48" fill="white"/>
</clipPath>
</defs>
</svg>
