<svg width="48" height="48" viewBox="0 0 48 48" fill="none" xmlns="http://www.w3.org/2000/svg">
<g clip-path="url(#clip0_1209_1549)">
<path d="M44.6302 6.07556H28.7949C29.5957 4.15237 28.8638 1.88081 27.0125 0.811872C25.0013 -0.349409 22.4202 0.342091 21.259 2.3535L19.1102 6.07547H4.24875C1.90603 6.07556 0 7.9815 0 10.3243V36.8015C0 39.1442 1.90603 41.0502 4.24875 41.0502H17.4145C17.5751 42.4851 17.4754 44.2014 17.1375 45.8779H11.8558C11.3381 45.8779 10.9183 46.2977 10.9183 46.8154C10.9183 47.3331 11.3381 47.7529 11.8558 47.7529H36.1448C36.6624 47.7529 37.0823 47.3331 37.0823 46.8154C37.0823 46.2977 36.6624 45.8779 36.1448 45.8779H30.8111C30.4431 44.1857 30.3244 42.4686 30.4812 41.0502H43.7512C46.094 41.0502 48 39.1442 48 36.8015V9.44597C48 7.58756 46.4883 6.07556 44.6302 6.07556ZM13.2568 21.3366L16.1155 22.987L13.2568 24.6375V21.3366ZM17.6474 21.7064L13.5999 19.3696L21.2814 6.06487L25.3289 8.40168L17.6474 21.7064ZM26.0751 2.43562C27.1909 3.07987 27.5746 4.51181 26.9304 5.62781L26.2664 6.77794L22.2189 4.44112L22.883 3.29109C23.5272 2.17509 24.9591 1.79165 26.0751 2.43562ZM4.24875 7.95056H18.0277L11.5074 19.244C11.4251 19.3865 11.3818 19.5481 11.3818 19.7127V26.2613C11.3818 26.779 11.8016 27.1988 12.3193 27.1988H35.6807C36.1984 27.1988 36.6182 26.779 36.6182 26.2613C36.6182 25.7437 36.1984 25.3238 35.6807 25.3238H15.8182L18.4594 23.7989C18.6019 23.7166 18.7202 23.5983 18.8025 23.4558L27.7545 7.95056H44.6302C45.4544 7.95056 46.125 8.62134 46.125 9.44597V32.5886H1.875V10.3243C1.875 9.01537 2.93981 7.95056 4.24875 7.95056ZM28.8973 45.8779H19.0458C19.3482 44.2119 19.4392 42.5178 19.3001 41.0502H28.596C28.4615 42.5058 28.569 44.1998 28.8973 45.8779ZM43.7512 39.1752H4.24875C2.93981 39.1752 1.875 38.1104 1.875 36.8015V34.4636H46.125V36.8015C46.125 38.1104 45.0601 39.1752 43.7512 39.1752ZM36.6182 20.5886C36.6182 21.1063 36.1984 21.5261 35.6807 21.5261H25.9686C25.4509 21.5261 25.0311 21.1063 25.0311 20.5886C25.0311 20.0709 25.4509 19.6511 25.9686 19.6511H35.6807C36.1984 19.6511 36.6182 20.0709 36.6182 20.5886Z" fill="#E25730"/>
</g>
<defs>
<clipPath id="clip0_1209_1549">
<rect width="48" height="48" fill="white"/>
</clipPath>
</defs>
</svg>
