<svg width="56" height="56" viewBox="0 0 56 56" fill="none" xmlns="http://www.w3.org/2000/svg">
<path d="M16.9532 27.3437C16.7345 27.3437 16.5157 27.3437 16.4064 27.125C16.0782 26.9062 16.0782 26.3594 16.297 26.0312L21.2189 20.2344C21.547 20.0156 21.9845 19.9062 22.3126 20.2344C22.6407 20.4531 22.6407 21 22.422 21.3281L17.5001 27.125C17.3907 27.2344 17.172 27.3437 16.9532 27.3437ZM29.7501 27.2344C29.5314 27.2344 29.3126 27.125 29.2032 27.0156L23.6251 21.2187C23.297 20.8906 23.297 20.4531 23.6251 20.125C23.9532 19.7969 24.3907 19.7969 24.7189 20.125L30.297 25.9219C30.5157 26.25 30.5157 26.6875 30.1876 27.0156C30.0782 27.125 29.8595 27.2344 29.7501 27.2344ZM31.9376 27.0156C31.7189 27.0156 31.6095 27.0156 31.5001 26.9062C31.0626 26.6875 30.9532 26.1406 31.2814 25.8125L38.8282 14.875C39.047 14.5469 39.4845 14.4375 39.8126 14.6562C40.2501 14.9844 40.2501 15.4219 40.0314 15.75L32.4845 26.6875C32.3751 26.9062 32.1564 27.0156 31.9376 27.0156Z" fill="#E25730"/>
<path d="M15.75 30.4062C14.3281 30.4062 13.3438 29.3125 13.3438 27.8906C13.3438 26.4688 14.3281 25.375 15.75 25.375C17.0625 25.375 18.2656 26.4688 18.2656 27.8906C18.2656 29.3125 17.0625 30.4062 15.75 30.4062ZM15.75 26.9062C15.3125 26.9062 14.875 27.3438 14.875 27.8906C14.875 28.4375 15.3125 28.875 15.75 28.875C16.2969 28.875 16.7344 28.4375 16.7344 27.8906C16.7344 27.3438 16.2969 26.9062 15.75 26.9062ZM22.9688 21.9844C21.5469 21.9844 20.4531 20.8906 20.4531 19.4688C20.4531 18.0469 21.5469 16.9531 22.9688 16.9531C24.2812 16.9531 25.375 18.0469 25.375 19.4688C25.375 20.8906 24.2812 21.9844 22.9688 21.9844ZM22.9688 18.4844C22.3125 18.4844 21.9844 18.9219 21.9844 19.4688C21.9844 20.0156 22.3125 20.4531 22.9688 20.4531C23.2969 20.4531 23.8438 20.0156 23.8438 19.4688C23.8438 18.9219 23.2969 18.4844 22.9688 18.4844ZM30.9531 30.1875C29.5312 30.1875 28.4375 29.0938 28.4375 27.6719C28.4375 26.25 29.5312 25.1562 30.9531 25.1562C32.2656 25.1562 33.4688 26.25 33.4688 27.6719C33.4688 29.0938 32.2656 30.1875 30.9531 30.1875ZM30.9531 26.6875C30.2969 26.6875 29.9688 27.125 29.9688 27.6719C29.9688 28.2188 30.2969 28.6562 30.9531 28.6562C31.5 28.6562 31.9375 28.2188 31.9375 27.6719C31.9375 27.125 31.5 26.6875 30.9531 26.6875ZM40.4688 16.2969C39.0469 16.2969 37.9531 15.2031 37.9531 13.8906C37.9531 12.4688 39.0469 11.375 40.4688 11.375C41.7812 11.375 42.875 12.4688 42.875 13.8906C42.875 15.2031 41.6719 16.2969 40.4688 16.2969ZM40.4688 12.9062C39.8125 12.9062 39.4844 13.3438 39.4844 13.8906C39.4844 14.3281 39.8125 14.7656 40.4688 14.7656C40.9062 14.7656 41.3438 14.3281 41.3438 13.8906C41.3438 13.3438 40.7969 12.9062 40.4688 12.9062Z" fill="#E25730"/>
<path d="M50.8594 37.625H5.25C4.8125 37.625 4.48438 37.2969 4.48438 36.8594V4.8125C4.48438 4.375 4.8125 4.04688 5.25 4.04688H50.8594C51.1875 4.04688 51.625 4.375 51.625 4.8125V36.8594C51.625 37.2969 51.1875 37.625 50.8594 37.625ZM6.01562 36.0938H50.0938V5.57812H6.01562V36.0938Z" fill="#E25730"/>
<path d="M47.3594 34.0156H8.96875C8.53125 34.0156 8.20312 33.6875 8.20312 33.25V8.42188C8.20312 7.98438 8.53125 7.65625 8.96875 7.65625H47.3594C47.6875 7.65625 48.125 7.98438 48.125 8.42188V33.25C48.125 33.6875 47.6875 34.0156 47.3594 34.0156ZM9.73438 32.4844H46.5938V9.1875H9.73438V32.4844ZM43.75 56H43.5312L39.375 55.3438C39.1562 55.3438 39.0469 55.125 38.8281 54.9062L34.7812 47.9062H21.3281L17.2812 55.0156C17.1719 55.125 16.9531 55.3438 16.7344 55.3438L12.5781 56C12.25 56 11.9219 55.8906 11.8125 55.6719C11.5938 55.4531 11.5938 55.125 11.7031 54.7969L22.3125 36.5312C22.5312 36.3125 22.75 36.2031 23.0781 36.2031H26.7969C27.0156 36.2031 27.2344 36.3125 27.4531 36.5312C27.5625 36.8594 27.5625 37.0781 27.4531 37.2969L24.0625 43.0938H32.0469L28.7656 37.4062C28.5469 37.0781 28.5469 36.8594 28.7656 36.5312C28.875 36.3125 29.0938 36.2031 29.4219 36.2031H33.1406C33.3594 36.2031 33.5781 36.3125 33.7969 36.5312L44.4062 54.7969C44.5156 55.125 44.5156 55.4531 44.2969 55.6719C44.1875 55.8906 43.9688 56 43.75 56ZM40.0312 53.9219L42.2188 54.25L32.7031 37.7344H30.7344L34.125 43.5312C34.2344 43.75 34.2344 43.9688 34.125 44.2969C33.9062 44.5156 33.6875 44.625 33.4688 44.625H22.75C22.4219 44.625 22.2031 44.5156 21.9844 44.2969C21.875 43.9688 21.875 43.75 21.9844 43.5312L25.375 37.7344H23.5156L13.8906 54.25L16.0781 53.9219L20.125 46.8125C20.3438 46.4844 20.5625 46.375 20.8906 46.375H35.3281C35.5469 46.375 35.7656 46.4844 35.9844 46.8125L40.0312 53.9219ZM31.2812 5.57812H24.9375C24.5 5.57812 24.1719 5.25 24.1719 4.8125V2.84375C24.1719 1.3125 25.375 0 27.0156 0H29.2031C30.7344 0 32.0469 1.3125 32.0469 2.84375V4.8125C32.0469 5.25 31.6094 5.57812 31.2812 5.57812ZM25.7031 4.04688H30.5156V2.84375C30.5156 2.07812 29.75 1.53125 29.2031 1.53125H27.0156C26.3594 1.53125 25.7031 2.07812 25.7031 2.84375V4.04688Z" fill="#E25730"/>
<path d="M23.5156 12.5781H12.9062C12.4688 12.5781 12.1406 12.25 12.1406 11.8125C12.1406 11.375 12.4688 11.0469 12.9062 11.0469H23.5156C23.8438 11.0469 24.2812 11.375 24.2812 11.8125C24.2812 12.25 23.8438 12.5781 23.5156 12.5781ZM30.0781 12.5781H27.125C26.6875 12.5781 26.3594 12.25 26.3594 11.8125C26.3594 11.375 26.6875 11.0469 27.125 11.0469H30.0781C30.4062 11.0469 30.8438 11.375 30.8438 11.8125C30.8438 12.25 30.4062 12.5781 30.0781 12.5781Z" fill="#E25730"/>
</svg>
