<svg width="56" height="56" viewBox="0 0 56 56" fill="none" xmlns="http://www.w3.org/2000/svg">
<path d="M53.1252 33.0412H46.7005C46.4571 33.0412 46.2237 33.1379 46.0516 33.31C45.8794 33.4821 45.7827 33.7156 45.7827 33.959C45.7827 34.2024 45.8794 34.4358 46.0516 34.6079C46.2237 34.78 46.4571 34.8767 46.7005 34.8767H50.9093L34.7689 51.0172L30.1405 46.3887C29.9726 46.2209 29.7463 46.1247 29.509 46.1201C29.2718 46.1156 29.042 46.2031 28.8678 46.3643L23.3206 51.5005L20.054 48.2339C19.8813 48.0646 19.6487 47.9703 19.4069 47.9715C19.165 47.9727 18.9334 48.0693 18.7624 48.2404C18.5914 48.4114 18.4948 48.643 18.4936 48.8849C18.4924 49.1268 18.5867 49.3593 18.7561 49.532L22.6472 53.4231C22.7324 53.5085 22.8336 53.5761 22.945 53.6223C23.0564 53.6684 23.1758 53.692 23.2963 53.6919C23.5276 53.6921 23.7503 53.6048 23.9198 53.4475L29.4669 48.3113L34.1199 52.9642C34.292 53.1363 34.5255 53.2329 34.7689 53.2329C35.0123 53.2329 35.2458 53.1363 35.4179 52.9642L52.2073 36.1748V40.3836C52.2073 40.627 52.304 40.8604 52.4761 41.0325C52.6482 41.2046 52.8817 41.3013 53.1251 41.3013C53.3685 41.3013 53.6019 41.2046 53.774 41.0325C53.9462 40.8604 54.0429 40.627 54.0429 40.3836V33.9589C54.0429 33.7155 53.9462 33.4821 53.7741 33.31C53.602 33.1379 53.3686 33.0412 53.1252 33.0412ZM20.5427 29.8289H34.31C34.5534 29.8289 34.7868 29.7322 34.9589 29.5601C35.131 29.3879 35.2277 29.1545 35.2277 28.9111V18.3563C35.2277 17.3441 34.4042 16.5207 33.3921 16.5207H28.3474C28.3561 16.5794 28.355 16.6392 28.344 16.6975V14.6851C28.344 13.673 27.5206 12.8495 26.5085 12.8495H21.4605C20.4483 12.8495 19.6248 13.673 19.6248 14.6851V21.5688H14.5769C13.5647 21.5688 12.7412 22.3922 12.7412 23.4044V28.9112C12.7412 29.1546 12.8379 29.3881 13.01 29.5602C13.1821 29.7323 13.4156 29.829 13.659 29.829L20.5427 29.8289ZM28.3442 18.3563H33.3922V27.9933H28.3442V18.3563ZM21.4606 14.685H26.5086V27.9932H21.4606V14.685ZM14.577 23.4043H19.6249V27.9933H14.577V23.4043Z" fill="#E25730"/>
<path d="M24.214 39.007C33.5766 39.007 41.1936 31.3901 41.1936 22.0276C41.1936 12.6651 33.5766 5.04797 24.214 5.04797C14.8515 5.04797 7.23438 12.665 7.23438 22.0276C7.23448 31.39 14.8515 39.007 24.214 39.007ZM24.214 6.88361C32.5644 6.88361 39.3579 13.6771 39.3579 22.0276C39.3579 30.3779 32.5644 37.1714 24.214 37.1714C15.8635 37.1714 9.07002 30.3779 9.07002 22.0276C9.07012 13.6771 15.8636 6.88361 24.214 6.88361Z" fill="#E25730"/>
<path d="M5.16912 55.1404C6.14195 55.7039 7.24638 56.0005 8.37063 56C10.5926 55.9998 12.7568 54.8476 13.9454 52.7889L19.3065 43.5033C20.9164 43.8706 22.5625 44.0556 24.2137 44.0549C36.3598 44.0549 46.2413 34.1735 46.2413 22.0275C46.2413 9.88148 36.3598 0 24.2137 0C12.0677 0 2.18624 9.88148 2.18624 22.0275C2.18624 27.853 4.46036 33.1567 8.16621 37.0999L2.81744 46.3642C1.04622 49.4323 2.10115 53.3692 5.16912 55.1404ZM24.2137 1.83564C35.3476 1.83564 44.4056 10.8936 44.4056 22.0276C44.4056 33.1614 35.3476 42.2194 24.2137 42.2194C13.0799 42.2194 4.02177 33.1614 4.02177 22.0276C4.02188 10.8936 13.0799 1.83564 24.2137 1.83564ZM4.40721 47.282L9.52137 38.4241C11.7979 40.4661 14.5003 42.0417 17.4774 43.0001L12.3557 51.8711C11.0906 54.0624 8.27843 54.8161 6.08688 53.5509C3.89555 52.2856 3.14196 49.4735 4.40721 47.282Z" fill="#E25730"/>
</svg>
