<svg width="90" height="90" viewBox="0 0 90 90" fill="none" xmlns="http://www.w3.org/2000/svg">
<path d="M86.5581 81.5864L83.3617 74.2148C84.0227 73.6575 84.4964 72.9106 84.7189 72.0752C84.9414 71.2398 84.9018 70.3561 84.6056 69.544L76.5548 47.3083C76.3227 46.6658 76.3172 45.9632 76.5393 45.3171L77.8092 41.6383C78.2162 40.4486 78.2007 39.155 77.7652 37.9754C77.3298 36.7958 76.501 35.8024 75.4185 35.1626L49.9253 20.186C49.0348 19.6641 48.0143 19.406 46.9827 19.4417C45.9511 19.4774 44.9508 19.8055 44.0985 20.3878L34.292 10.1369C33.2441 9.04717 31.8941 8.29589 30.4157 7.97974L8.9704 3.36724C8.81236 3.33307 8.64912 3.33041 8.49005 3.35944C8.33097 3.38846 8.17919 3.44859 8.04339 3.53638C7.9076 3.62416 7.79046 3.73788 7.69869 3.87102C7.60692 4.00416 7.54233 4.15409 7.50861 4.31224L6.1797 10.4997C6.11128 10.8188 6.1724 11.152 6.34962 11.426C6.52684 11.7 6.80564 11.8924 7.1247 11.9608L27.9309 16.4313C28.1051 16.4692 28.2645 16.5571 28.3893 16.6844L37.8112 26.5282L37.6579 26.6815C36.9355 27.4078 36.4313 28.3222 36.2026 29.3208C35.9739 30.3193 36.0299 31.362 36.3642 32.3304L52.1015 77.4843C52.3027 78.0628 52.6265 78.591 53.0507 79.0328C53.4749 79.4745 53.9896 79.8194 54.5594 80.0439C55.1293 80.2684 55.7409 80.3671 56.3524 80.3333C56.964 80.2996 57.561 80.1341 58.1027 79.8483L68.099 74.5818L68.8724 76.3586C69.2513 77.233 69.9132 77.9546 70.7517 78.4074C71.5901 78.8603 72.5565 79.0181 73.4955 78.8554L76.5604 85.9183C76.6559 86.1385 76.8136 86.326 77.0142 86.4577C77.2149 86.5893 77.4496 86.6595 77.6896 86.6594C77.859 86.6601 78.0266 86.6254 78.1818 86.5575L85.9225 83.2043C86.0708 83.1402 86.2051 83.0476 86.3175 82.9316C86.43 82.8156 86.5185 82.6786 86.5779 82.5284C86.6374 82.3782 86.6666 82.2177 86.6639 82.0562C86.6612 81.8947 86.6267 81.7353 86.5624 81.5871L86.5581 81.5864ZM30.1675 14.9857C29.7047 14.5013 29.107 14.1671 28.4519 14.0266L8.84384 9.81279L9.65595 6.03208L29.8968 10.3851C30.8954 10.5983 31.8075 11.1052 32.516 11.8406L42.2894 22.0528L39.5528 24.7872L30.1675 14.9857ZM72.1441 76.3432C71.919 76.2592 71.7132 76.1304 71.5392 75.9648C71.3652 75.7991 71.2265 75.5999 71.1316 75.3792L69.8329 72.386C69.7656 72.2306 69.6669 72.0908 69.543 71.9753C69.419 71.8599 69.2726 71.7713 69.1128 71.7151C68.9531 71.6589 68.7834 71.6363 68.6145 71.6488C68.4456 71.6613 68.2811 71.7086 68.1313 71.7876L56.9601 77.6728C56.7315 77.7931 56.4797 77.8627 56.2218 77.8767C55.9639 77.8908 55.706 77.8491 55.4657 77.7544C55.2254 77.6596 55.0084 77.5142 54.8294 77.3279C54.6505 77.1416 54.5138 76.919 54.4288 76.675L38.6873 31.5183C38.5046 30.9878 38.4742 30.4168 38.5996 29.8699C38.725 29.3231 39.0012 28.8224 39.3967 28.4245L45.0534 22.7714C45.5213 22.3041 46.1311 22.0051 46.7871 21.9214C47.4431 21.8377 48.1084 21.9739 48.6787 22.3087L74.1719 37.2853C74.7656 37.6362 75.2202 38.181 75.459 38.8279C75.6979 39.4748 75.7064 40.1843 75.4832 40.8368L74.2134 44.5155C73.8074 45.6941 73.8171 46.9762 74.2408 48.1486L82.2916 70.3835C82.446 70.8042 82.4366 71.2676 82.2654 71.6818C82.0941 72.096 81.7734 72.4306 81.367 72.6194C81.3564 72.6236 81.3452 72.625 81.3346 72.63C81.3241 72.6349 81.2995 72.6504 81.2812 72.6595L73.7092 76.2096C73.7036 76.2096 73.6973 76.2131 73.6917 76.2159L73.6614 76.2321L73.5391 76.2897C73.3217 76.3929 73.0857 76.4508 72.8453 76.46C72.6049 76.4691 72.3651 76.4294 72.1406 76.3432H72.1441ZM78.3316 83.8118L75.7898 77.9533L81.2038 75.4143L83.8152 81.4359L78.3316 83.8118Z" fill="#E25730"/>
<path d="M52.1641 29.25L55.8907 31.4388C56.1721 31.6042 56.5077 31.6511 56.8236 31.569C57.1396 31.487 57.41 31.2829 57.5754 31.0015C57.7408 30.7201 57.7876 30.3845 57.7056 30.0685C57.6236 29.7526 57.4194 29.4822 57.138 29.3168L53.4115 27.1279C53.1301 26.9625 52.7945 26.9157 52.4786 26.9977C52.1626 27.0797 51.8922 27.2839 51.7268 27.5653C51.5614 27.8467 51.5145 28.1823 51.5966 28.4982C51.6786 28.8141 51.8827 29.0846 52.1641 29.25ZM60.8484 48.7772C60.3814 47.455 59.4438 46.3511 58.2145 45.6764L55.5138 44.1921C54.5013 43.6356 53.3437 43.3991 52.194 43.5141C51.0443 43.629 49.9565 44.0898 49.0741 44.8357C48.1917 45.5816 47.5562 46.5776 47.2515 47.6921C46.9468 48.8067 46.9872 49.9874 47.3674 51.0785L55.6291 74.785C55.6874 74.9522 55.781 75.1048 55.9036 75.2325C56.0262 75.3601 56.175 75.4598 56.3396 75.5248C56.5043 75.5897 56.681 75.6184 56.8577 75.6088C57.0345 75.5992 57.2071 75.5516 57.3638 75.4692L67.32 70.2316C67.5818 70.0939 67.7852 69.8666 67.893 69.5911C68.0008 69.3157 68.0058 69.0107 67.9071 68.7318L60.8484 48.7772ZM57.4826 72.6258L49.6912 50.2664C49.5208 49.7763 49.47 49.2526 49.5432 48.7389C49.6164 48.2252 49.8113 47.7364 50.1119 47.3134C50.4124 46.8904 50.8097 46.5455 51.2707 46.3073C51.7317 46.0691 52.2429 45.9446 52.7618 45.9443H52.7787L58.6695 61.3279L57.7125 64.395C57.6643 64.5492 57.6469 64.7114 57.6614 64.8723C57.6759 65.0332 57.722 65.1897 57.797 65.3328C57.8721 65.4758 57.9746 65.6027 58.0987 65.7062C58.2228 65.8096 58.3661 65.8875 58.5204 65.9355C58.6391 65.9731 58.7629 65.992 58.8874 65.9918C59.1495 65.9918 59.4048 65.908 59.6159 65.7527C59.827 65.5973 59.983 65.3786 60.0609 65.1283L61.1459 61.6556C61.2287 61.3914 61.2198 61.1069 61.1205 60.8484L55.8984 47.2099L57.0305 47.8322C57.7302 48.217 58.264 48.8456 58.5302 49.5984L65.2338 68.549L57.4826 72.6258ZM12.1254 26.6034C11.7668 26.9718 3.33984 35.7187 3.33984 42.6093C3.33984 43.879 3.58991 45.1362 4.07577 46.3091C4.56163 47.4821 5.27377 48.5479 6.17153 49.4456C7.06928 50.3434 8.13507 51.0555 9.30804 51.5414C10.481 52.0273 11.7382 52.2773 13.0078 52.2773C14.2774 52.2773 15.5346 52.0273 16.7076 51.5414C17.8806 51.0555 18.9463 50.3434 19.8441 49.4456C20.7419 48.5479 21.454 47.4821 21.9399 46.3091C22.4257 45.1362 22.6758 43.879 22.6758 42.6093C22.6758 35.7187 14.2488 26.9747 13.8902 26.6062C13.6543 26.3761 13.338 26.247 13.0084 26.2465C12.6788 26.2459 12.362 26.374 12.1254 26.6034ZM13.0078 49.8136C11.0975 49.8115 9.26598 49.0519 7.91493 47.7014C6.56387 46.3509 5.80357 44.5197 5.80078 42.6093C5.80078 37.9033 10.9111 31.6526 13.0085 29.2851C15.1059 31.6476 20.2148 37.8935 20.2148 42.6093C20.2121 44.5197 19.4518 46.3509 18.1007 47.7014C16.7496 49.0519 14.9181 49.8115 13.0078 49.8136Z" fill="#E25730"/>
</svg>
