<svg width="90" height="90" viewBox="0 0 90 90" fill="none" xmlns="http://www.w3.org/2000/svg">
<path d="M41.4773 27.6507C41.4773 28.9749 43.0546 30.0482 45.0001 30.0482C46.9455 30.0482 48.5228 28.9749 48.5228 27.6507C48.5228 25.9383 47.1137 25.2534 45.0001 24.5684C42.8864 23.8834 41.4773 23.1984 41.4773 21.4861C41.4773 20.162 43.0546 19.0886 45.0001 19.0886C46.9455 19.0886 48.5228 20.162 48.5228 21.4861" stroke="#E25730" stroke-width="2" stroke-miterlimit="10" stroke-linecap="round" stroke-linejoin="round"/>
<path d="M44.9998 17.5229V19.0886" stroke="#E25730" stroke-width="2" stroke-miterlimit="10" stroke-linecap="round" stroke-linejoin="round"/>
<path d="M44.9998 30.0482V31.6139" stroke="#E25730" stroke-width="2" stroke-miterlimit="10" stroke-linecap="round" stroke-linejoin="round"/>
<path d="M1.31836 82.3407H88.6814" stroke="#E25730" stroke-width="2" stroke-miterlimit="10" stroke-linecap="round" stroke-linejoin="round"/>
<path d="M15.4087 76.7045H85.8632V82.3407" stroke="#E25730" stroke-width="2" stroke-miterlimit="10" stroke-linecap="round" stroke-linejoin="round"/>
<path d="M4.13647 82.3407V76.7045H9.77306" stroke="#E25730" stroke-width="2" stroke-miterlimit="10" stroke-linecap="round" stroke-linejoin="round"/>
<path d="M6.95483 76.7045V71.0682H83.0452V76.7045" stroke="#E25730" stroke-width="2" stroke-miterlimit="10" stroke-linecap="round" stroke-linejoin="round"/>
<path d="M9.77295 42.8865V71.0682" stroke="#E25730" stroke-width="2" stroke-miterlimit="10" stroke-linecap="round" stroke-linejoin="round"/>
<path d="M83.045 37.2501V42.8864H6.95459V37.2501" stroke="#E25730" stroke-width="2" stroke-miterlimit="10" stroke-linecap="round" stroke-linejoin="round"/>
<path d="M74.5913 37.2501H2.72754V33.0229L45 7.65955L87.2724 33.0229V37.2501H80.2266" stroke="#E25730" stroke-width="2" stroke-miterlimit="10" stroke-linecap="round" stroke-linejoin="round"/>
<path d="M18.2273 42.8865V71.0682" stroke="#E25730" stroke-width="2" stroke-miterlimit="10" stroke-linecap="round" stroke-linejoin="round"/>
<path d="M26.6816 42.8865V71.0682" stroke="#E25730" stroke-width="2" stroke-miterlimit="10" stroke-linecap="round" stroke-linejoin="round"/>
<path d="M35.1362 42.8865V71.0682" stroke="#E25730" stroke-width="2" stroke-miterlimit="10" stroke-linecap="round" stroke-linejoin="round"/>
<path d="M54.8635 42.8865V71.0682" stroke="#E25730" stroke-width="2" stroke-miterlimit="10" stroke-linecap="round" stroke-linejoin="round"/>
<path d="M63.3179 42.8865V71.0682" stroke="#E25730" stroke-width="2" stroke-miterlimit="10" stroke-linecap="round" stroke-linejoin="round"/>
<path d="M71.7725 42.8865V71.0682" stroke="#E25730" stroke-width="2" stroke-miterlimit="10" stroke-linecap="round" stroke-linejoin="round"/>
<path d="M80.2268 42.8865V71.0682" stroke="#E25730" stroke-width="2" stroke-miterlimit="10" stroke-linecap="round" stroke-linejoin="round"/>
<path d="M40.7727 71.0681V58.3864C40.7727 56.0517 42.6653 54.1592 44.9999 54.1592C47.3346 54.1592 49.2272 56.0517 49.2272 58.3864V71.0681" stroke="#E25730" stroke-width="2" stroke-miterlimit="10" stroke-linecap="round" stroke-linejoin="round"/>
<path d="M36.5454 24.5685H33.7273" stroke="#E25730" stroke-width="2" stroke-miterlimit="10" stroke-linecap="round" stroke-linejoin="round"/>
<path d="M56.2725 24.5685H53.4543" stroke="#E25730" stroke-width="2" stroke-miterlimit="10" stroke-linecap="round" stroke-linejoin="round"/>
</svg>
