<svg width="90" height="90" viewBox="0 0 90 90" fill="none" xmlns="http://www.w3.org/2000/svg">
<g clip-path="url(#clip0_1214_2167)">
<path d="M85.5 21H69V16.5C68.9934 10.7038 64.2962 6.00656 58.5 6H31.5C25.7038 6.00656 21.0066 10.7038 21 16.5V21H4.5C2.01469 21 0 23.0147 0 25.5V55.5C0.00384445 56.4274 0.294126 57.331 0.831132 58.0871C1.36814 58.8432 2.12564 59.4149 3 59.724V79.5C3 81.9853 5.01469 84 7.5 84H82.5C84.9853 84 87 81.9853 87 79.5V59.724C87.8744 59.4149 88.6319 58.8432 89.1689 58.0871C89.7059 57.331 89.9962 56.4274 90 55.5V25.5C90 23.0147 87.9853 21 85.5 21ZM24 16.5C24.0049 12.36 27.36 9.00488 31.5 9H58.5C62.64 9.00488 65.9951 12.36 66 16.5V21H62.94L63 16.5C62.9951 14.0168 60.9832 12.0049 58.5 12H31.4445C28.9612 12.0049 26.9494 14.0168 26.9445 16.5V16.515L26.985 21H24V16.5ZM60 16.479L59.94 21H29.985L29.9385 16.5C29.9385 16.1022 30.0965 15.7206 30.3778 15.4393C30.6591 15.158 31.0407 15 31.4385 15H58.5C58.8942 15 59.2726 15.1551 59.5533 15.4319C59.834 15.7087 59.9945 16.0848 60 16.479ZM84 79.5C84 79.8978 83.842 80.2794 83.5607 80.5607C83.2794 80.842 82.8978 81 82.5 81H7.5C7.10218 81 6.72064 80.842 6.43934 80.5607C6.15804 80.2794 6 79.8978 6 79.5V60H16.5V64.5C16.5 64.8978 16.658 65.2794 16.9393 65.5607C17.2206 65.842 17.6022 66 18 66H24C24.3978 66 24.7794 65.842 25.0607 65.5607C25.342 65.2794 25.5 64.8978 25.5 64.5V60H64.5V64.5C64.5 64.8978 64.658 65.2794 64.9393 65.5607C65.2206 65.842 65.6022 66 66 66H72C72.3978 66 72.7794 65.842 73.0607 65.5607C73.342 65.2794 73.5 64.8978 73.5 64.5V60H84V79.5ZM19.5 63V55.5C19.4996 55.3 19.5403 55.1019 19.6195 54.9182C19.6987 54.7345 19.8148 54.569 19.9605 54.432C20.0954 54.2933 20.2572 54.1835 20.4359 54.1092C20.6146 54.0349 20.8065 53.9978 21 54C21.3978 54 21.7794 54.158 22.0607 54.4393C22.342 54.7206 22.5 55.1022 22.5 55.5V63H19.5ZM67.5 63V55.5C67.5 55.1022 67.658 54.7206 67.9393 54.4393C68.2206 54.158 68.6022 54 69 54C69.2002 53.9993 69.3984 54.0397 69.5823 54.1187C69.7663 54.1976 69.9321 54.3134 70.0695 54.459C70.2072 54.5949 70.3163 54.7571 70.3902 54.9359C70.4642 55.1147 70.5015 55.3065 70.5 55.5V63H67.5ZM87 55.5C87 55.8978 86.842 56.2794 86.5607 56.5607C86.2794 56.842 85.8978 57 85.5 57H73.5V55.5C73.4893 53.0192 71.4808 51.0107 69 51C66.5147 51 64.5 53.0147 64.5 55.5V57H25.5V55.5C25.5 53.0147 23.4853 51 21 51C18.5205 51.0139 16.5139 53.0205 16.5 55.5V57H4.5C4.10218 57 3.72064 56.842 3.43934 56.5607C3.15804 56.2794 3 55.8978 3 55.5V25.5C3 25.1022 3.15804 24.7206 3.43934 24.4393C3.72064 24.158 4.10218 24 4.5 24H85.5C85.8978 24 86.2794 24.158 86.5607 24.4393C86.842 24.7206 87 25.1022 87 25.5V55.5Z" fill="#E25730"/>
</g>
<defs>
<clipPath id="clip0_1214_2167">
<rect width="90" height="90" fill="white"/>
</clipPath>
</defs>
</svg>
