<svg width="183" height="227" viewBox="0 0 183 227" fill="none" xmlns="http://www.w3.org/2000/svg">
<path d="M97.2658 109.703V117.016L26.4786 227L8.7113 218.28C3.82295 216.03 1.00274 212.936 0.250684 208.998C-0.50137 204.872 0.438702 200.371 3.07089 195.496L46.22 124.048C49.0402 119.36 51.7664 115.797 54.3986 113.359C52.8945 112.234 51.4844 110.828 50.1683 109.14C49.0402 107.265 47.7241 105.202 46.22 102.952L3.07089 31.223C0.438702 26.3474 -0.50137 21.9405 0.250684 18.0025C1.00274 14.0644 3.82295 10.8765 8.7113 8.43867L26.4786 0L97.2658 109.703ZM183 109.703V117.016L112.213 227L94.4455 218.28C89.5572 216.03 86.737 212.936 85.9849 208.998C85.2329 204.872 86.1729 200.371 88.8051 195.496L131.954 124.048C134.774 119.36 137.501 115.797 140.133 113.359C138.629 112.234 137.219 110.828 135.903 109.14C134.774 107.265 133.458 105.202 131.954 102.952L88.8051 31.223C86.1729 26.3474 85.2329 21.9405 85.9849 18.0025C86.737 14.0644 89.5572 10.8765 94.4455 8.43867L112.213 0L183 109.703Z" fill="#E25730"/>
<path d="M119.5 55.5C116.5 59.5 110 61 108.5 64L111 68.5C115 63.5 118.843 64.3214 125 55.5C129.728 48.6303 132.356 44.546 137 37L130.5 28C125.5 38 125.786 46.1032 119.5 55.5Z" fill="#191919"/>
<path d="M32 143.845L33 136.345C40.6045 134.836 42.1921 138.27 43.5 146.845C44 151.345 49.382 149.345 49 152.845C48.4316 158.053 49.7361 159.266 56 157.345C59.705 156.019 63.0296 157.547 69 160.345V162.845C52.5 162.845 44.9146 165.574 45 158.345C45.0413 154.845 40 154.845 41 151.345C42.5 147.345 41.3403 146.259 32 143.845Z" fill="#191919"/>
</svg>
