<svg width="45" height="45" viewBox="0 0 45 45" fill="none" xmlns="http://www.w3.org/2000/svg">
<path fill-rule="evenodd" clip-rule="evenodd" d="M39.0249 29.4651L30.5355 31.9506C30.653 33.3163 29.9695 34.6102 28.7789 35.2976C28.0055 35.7441 27.0659 35.9014 26.1414 35.6648L17.9556 33.4718C17.8725 33.4495 17.7945 33.4111 17.7262 33.3588C17.6579 33.3064 17.6005 33.2411 17.5574 33.1666C17.4704 33.0162 17.4468 32.8373 17.4916 32.6693C17.5139 32.5862 17.5522 32.5082 17.6046 32.4399C17.6569 32.3716 17.7222 32.3143 17.7968 32.2712C17.9472 32.1842 18.1261 32.1605 18.294 32.2054L26.4411 34.3884C27.6228 34.7051 28.8454 34.0003 29.1623 32.8184C29.4412 31.6098 28.809 30.4228 27.5919 30.0968L21.4616 28.4542C21.3861 28.4337 21.3149 28.3998 21.2514 28.3542C19.2921 26.9648 17.8406 26.4613 16.5115 26.4955C15.1736 26.53 13.875 27.1146 12.2833 27.8929C10.8075 28.6145 9.37149 29.301 7.9507 29.9741L11.7481 39.0926L13.2089 38.3824C14.2804 37.8614 15.3795 37.7692 16.5234 38.1013L23.2845 40.0644C25.0695 40.5827 27.398 39.6766 29.2453 38.9577L42.3467 33.9079C43.6262 33.4148 44.6751 31.7199 44.2548 30.3576C43.6448 28.3789 40.4192 29.0569 39.0249 29.4651ZM10.6762 43.5443L7.4257 44.8942C6.72042 45.187 5.90649 44.8512 5.61295 44.1462L0.108611 30.9292C0.037648 30.761 0.000736468 30.5804 1.09088e-05 30.3978C-0.000714651 30.2153 0.0347603 30.0344 0.104384 29.8657C0.174008 29.6969 0.276398 29.5436 0.405633 29.4147C0.534868 29.2858 0.688383 29.1838 0.857298 29.1145L4.1078 27.7648C4.81308 27.4719 5.62702 27.8077 5.92055 28.5127L11.4248 41.7299C11.4958 41.8981 11.5327 42.0787 11.5334 42.2612C11.5341 42.4437 11.4987 42.6246 11.429 42.7933C11.3594 42.962 11.2571 43.1153 11.1278 43.2442C10.9986 43.3731 10.8451 43.4751 10.6762 43.5443ZM34.6503 3.27037C34.6503 5.07684 36.1147 6.54122 37.9212 6.54122C39.7277 6.54122 41.1921 5.07684 41.1921 3.27037C41.1921 1.46437 39.7277 0 37.9212 0C36.1147 0 34.6503 1.46437 34.6503 3.27037ZM25.7899 5.71978C25.7899 7.52634 27.2543 8.99063 29.0608 8.99063C30.8672 8.99063 32.3316 7.52634 32.3316 5.71978C32.3316 3.91378 30.8672 2.44941 29.0608 2.44941C27.2543 2.44941 25.7899 3.91378 25.7899 5.71978ZM36.1376 17.9523C36.1376 21.8606 21.9837 21.8606 21.9837 17.9523C21.9837 14.044 25.1525 10.8756 29.0609 10.8756C32.9692 10.8756 36.1376 14.044 36.1376 17.9523ZM16.9295 3.27037C16.9295 5.07684 18.3939 6.54122 20.2004 6.54122C22.0069 6.54122 23.4713 5.07684 23.4713 3.27037C23.4713 1.46437 22.0069 0 20.2004 0C18.3939 0 16.9295 1.46437 16.9295 3.27037ZM44.998 15.5029C44.998 11.5945 41.8296 8.42616 37.9213 8.42616C35.9666 8.42616 34.197 9.21872 32.9161 10.4998C35.6094 11.8961 37.4501 14.7095 37.4501 17.9523C37.4502 18.1112 37.4377 18.2698 37.4126 18.4268C41.1121 18.5249 44.998 17.5508 44.998 15.5029ZM20.7087 18.4268C20.6835 18.2698 20.671 18.1112 20.6712 17.9523C20.6712 14.7095 22.512 11.8962 25.2054 10.4999C23.9247 9.21872 22.1551 8.42616 20.2005 8.42616C16.2921 8.42616 13.1233 11.5946 13.1233 15.5029C13.1232 17.5508 17.009 18.5249 20.7087 18.4268Z" fill="#E25730"/>
</svg>
