<svg width="129" height="30" viewBox="0 0 129 30" fill="none" xmlns="http://www.w3.org/2000/svg">
<g clip-path="url(#clip0_1023_963)">
<path d="M34.5733 0.0428772L26.5452 24.7551C27.2716 25.114 27.9172 24.8691 28.5401 24.6329C28.7846 24.5401 29.0257 24.4487 29.2667 24.3956C29.5509 24.333 29.8351 24.2651 30.1077 24.2C30.7934 24.0361 31.4062 23.8897 31.7635 23.8897C32.1227 23.8897 32.9985 22.9803 33.6479 22.306C33.9013 22.0427 34.1204 21.8154 34.2605 21.692C34.4654 21.5117 34.8382 21.5643 35.2928 21.6286C35.9469 21.721 36.7703 21.8373 37.5067 21.3187C38.3632 20.7156 40.6273 18.8844 42.0948 17.6819H38.4126L40.9174 7.27273L43.3767 17.6819H42.612C41.2518 18.802 38.9111 20.7417 38.006 21.5384C36.7575 22.6374 35.509 23.7363 34.2605 23.7363C33.3046 23.7363 32.9341 24.1229 32.4769 24.5999C32.337 24.7459 32.1888 24.9006 32.0134 25.055C31.4376 25.5619 28.0488 25.7034 26.2339 25.7137L24.8414 30H35.4069L36.8187 24.2727H44.9251L46.2914 30H57.1301L50.6017 9.9974C50.5035 9.99329 50.4066 9.98416 50.3116 9.9693C49.0554 9.77279 41.3089 7.61113 40.2622 6.82506C39.7139 6.4134 39.1084 5.30104 38.5054 4.19369C37.957 3.18661 37.411 2.18367 36.9123 1.71567C36.1617 1.01111 35.1307 0.359163 34.5733 0.0428772Z" fill="white"/>
<path d="M50.2041 8.77906L47.3387 0H44.1683C44.1111 1.02368 44.1845 2.64914 44.2401 3.48431C43.8213 4.00836 42.942 5.09573 42.7745 5.25294C42.607 5.41016 42.4257 6.10451 42.3559 6.43203C42.9141 6.36653 44.4494 6.35343 46.1244 6.82506C47.0846 7.09544 47.6043 7.48981 48.0878 7.85654C48.64 8.27551 49.1447 8.6584 50.2041 8.77906Z" fill="white"/>
<path d="M43.4675 0C43.3192 0.577037 43.1932 1.17422 43.1932 1.51916C43.1932 2.30521 42.5651 4.85989 41.5184 5.64596C41.2763 5.24839 41.1218 4.96571 41.0041 4.7505C40.7144 4.22111 40.6482 4.09997 40.0528 3.68081C39.2154 3.09127 36.9123 1.32264 36.7029 0.733091C36.6416 0.560137 36.5219 0.293806 36.3813 0H43.4675Z" fill="white"/>
<path d="M0 8.4549V30H12.221C12.5605 29.5536 12.9 29.1071 13.3526 28.9286C14.2579 28.5714 15.6157 27.5 16.0684 26.0714C16.2984 25.3454 16.906 23.716 17.4733 22.2273H10.6111V13.9051C10.4982 13.9007 10.3743 13.8983 10.2385 13.8983C9.67206 13.8983 8.92465 13.9181 8.14661 13.9387L8.14516 13.9387C6.48831 13.9826 4.69279 14.0301 4.21033 13.8983C3.89091 13.8111 3.85922 13.4095 3.82369 12.959C3.78032 12.4093 3.7312 11.7868 3.14654 11.5739C2.56746 11.363 2.61883 10.9225 2.67148 10.4711C2.71554 10.0933 2.76049 9.70788 2.43735 9.4431C2.18117 9.2332 1.19248 8.85742 0 8.4549Z" fill="white"/>
<path d="M10.6111 13.2011V0H0V5.24319C0.178166 5.82451 0.309765 6.27707 0.309765 6.34383C1.37356 6.15011 2.43735 6.15011 2.79195 7.11864C2.92492 7.48184 3.05789 8.00847 3.19087 8.53511C3.41249 9.41283 3.63412 10.2906 3.85574 10.4116C3.95322 10.4649 4.0775 10.5035 4.20649 10.5436C4.54668 10.6492 4.91953 10.7651 4.91953 11.1864C4.91953 11.3107 4.88712 11.4614 4.85348 11.6179C4.72976 12.1936 4.58933 12.847 5.98332 12.5424C7.17661 12.2816 7.56678 12.1964 7.91057 12.2866C8.07756 12.3305 8.23363 12.4157 8.46551 12.5424C8.93685 12.7999 9.72145 13.0573 10.6111 13.2011Z" fill="white"/>
<path d="M20.3149 22.2273L18.3316 25.3571C17.879 26.0714 15.6157 29.2857 15.1631 29.6429C15.0398 29.7401 14.8492 29.864 14.628 30H24.2279V22.2273H20.3149Z" fill="white"/>
<path d="M60.7624 26.2637C62.8282 25.6167 68.926 23.4531 69.9471 22.4913C69.974 22.4051 70.1624 22.0936 70.3691 21.7514C70.6213 21.3341 70.9013 20.8709 70.9496 20.7157L70.95 20.7143C71.3072 19.5679 71.716 17.8033 72.0912 16.1839C72.5079 14.3851 72.8833 12.7654 73.1004 12.3693C73.6738 11.324 74.2471 11.0627 75.1071 10.8014C75.7894 10.5941 80.6625 8.31377 83.0734 7.17144L81.5879 0H72.4796L68.2443 21.6819L64.7376 0H53.3068L60.7624 26.2637Z" fill="white"/>
<path d="M61.6879 29.5241L61.823 30H73.4815L75.8043 18.7273L76.9115 11.5437C76.8764 11.5618 76.8482 11.5758 76.8271 11.5854C76.3684 11.7944 74.916 12.5436 74.2471 12.892C74.4382 13.7631 74.2753 15.8886 73.8167 17.1429C73.2433 18.7109 71.3804 23.345 71.0938 23.8676C71.0387 23.968 70.989 24.0787 70.9362 24.1957C70.7149 24.6879 70.443 25.292 69.5167 25.7143C69.4785 25.7317 69.3011 25.7973 69.0971 25.8727L69.0951 25.8734C68.8231 25.9741 68.5043 26.092 68.4074 26.1357C66.8737 26.8263 62.4166 28.8331 61.6879 29.5241Z" fill="white"/>
<path d="M77.1794 11.3991L78.309 18.7273L80.6772 30H91.9258L100.488 0H89.4667L86.051 21.5454L83.1338 7.46256V7.92683C81.4757 8.90931 78.2927 10.7835 77.1794 11.3991Z" fill="white"/>
<path d="M118.961 15.7684C119.447 15.2777 120.663 14.1328 121.15 14.1328C121.636 14.1328 122.366 13.4785 121.879 12.8242C121.533 12.3592 122.294 11.6462 122.849 11.1552L125.594 19.5651C125.497 19.5344 125.398 19.5031 125.297 19.4714C123.818 19.005 122.01 18.4353 121.636 18.0584C121.531 17.9527 121.415 17.8167 121.283 17.6619C120.801 17.0974 120.106 16.2819 118.961 15.7684Z" fill="white"/>
<path d="M126.005 20.8236L129 30H118.161L116.795 24.2727H108.689L107.277 30H96.7112L106.457 0H119.209L122.567 10.2908C122.143 10.7046 121.702 11.0497 121.393 11.1885C120.663 11.5157 120.42 12.0064 120.42 12.6607C120.42 13.3149 119.447 14.2963 118.474 14.4599C118.37 14.4774 118.275 14.4949 118.186 14.5111C117.441 14.6473 117.154 14.6997 116.286 13.9692C115.617 13.4068 114.718 12.9218 114.063 12.6737L112.787 7.27273L110.283 17.6819H115.246L114.77 15.6629C114.861 15.6897 114.961 15.7244 115.07 15.7684C115.252 15.8421 115.451 15.9196 115.663 16.0017C116.859 16.4669 118.451 17.0854 119.69 18.0584C120.921 19.0237 121.114 19.059 121.581 19.1443C121.668 19.1601 121.765 19.1777 121.879 19.2034C122.429 19.3267 124.639 20.194 126.005 20.8236Z" fill="white"/>
</g>
<defs>
<clipPath id="clip0_1023_963">
<rect width="129" height="30" fill="white"/>
</clipPath>
</defs>
</svg>
