<svg width="90" height="90" viewBox="0 0 90 90" fill="none" xmlns="http://www.w3.org/2000/svg">
<path d="M86.3516 26.7568H3.64885C3.44476 26.7568 3.24395 26.7054 3.06492 26.6075C2.88589 26.5095 2.7344 26.368 2.6244 26.1961C2.5144 26.0242 2.44942 25.8274 2.43547 25.6238C2.42151 25.4201 2.45901 25.2163 2.54453 25.031L9.84182 9.22017C9.93917 9.00921 10.0949 8.83055 10.2906 8.70532C10.4863 8.58009 10.7138 8.51355 10.9461 8.51355H79.0543C79.2866 8.51355 79.5141 8.58009 79.7098 8.70532C79.9055 8.83055 80.0612 9.00921 80.1586 9.22017L87.4559 25.031C87.5414 25.2163 87.5789 25.4201 87.5649 25.6238C87.551 25.8274 87.486 26.0242 87.376 26.1961C87.266 26.368 87.1145 26.5095 86.9355 26.6075C86.7565 26.7054 86.5556 26.7568 86.3516 26.7568ZM5.5498 24.3244H84.4506L78.2759 10.946H11.7245L5.5498 24.3244Z" fill="#E25730"/>
<path d="M9.556 41.3514C7.66745 41.3491 5.8569 40.5979 4.5215 39.2625C3.18609 37.9271 2.43487 36.1165 2.43262 34.228V25.5406C2.43262 25.218 2.56075 24.9086 2.78884 24.6806C3.01692 24.4525 3.32627 24.3243 3.64883 24.3243H15.4632C15.7857 24.3243 16.0951 24.4525 16.3232 24.6806C16.5512 24.9086 16.6794 25.218 16.6794 25.5406V34.228C16.6771 36.1165 15.9259 37.9271 14.5905 39.2625C13.2551 40.5979 11.4445 41.3491 9.556 41.3514ZM4.86505 26.7568V34.228C4.86505 35.4721 5.35927 36.6653 6.239 37.545C7.11872 38.4247 8.31188 38.9189 9.556 38.9189C10.8001 38.9189 11.9933 38.4247 12.873 37.545C13.7527 36.6653 14.2469 35.4721 14.2469 34.228V26.7568H4.86505Z" fill="#E25730"/>
<path d="M21.3704 41.3514C19.4819 41.3491 17.6714 40.5979 16.3359 39.2625C15.0005 37.9271 14.2493 36.1165 14.2471 34.228V25.5406C14.2471 25.218 14.3752 24.9086 14.6033 24.6806C14.8314 24.4525 15.1407 24.3243 15.4633 24.3243H27.2776C27.6002 24.3243 27.9095 24.4525 28.1376 24.6806C28.3657 24.9086 28.4938 25.218 28.4938 25.5406V34.228C28.4916 36.1165 27.7404 37.9271 26.405 39.2625C25.0695 40.5979 23.259 41.3491 21.3704 41.3514ZM16.6795 26.7568V34.228C16.6795 35.4721 17.1737 36.6653 18.0534 37.545C18.9332 38.4247 20.1263 38.9189 21.3704 38.9189C22.6146 38.9189 23.8077 38.4247 24.6875 37.545C25.5672 36.6653 26.0614 35.4721 26.0614 34.228V26.7568H16.6795Z" fill="#E25730"/>
<path d="M33.1859 41.3514C31.2973 41.3491 29.4868 40.5979 28.1514 39.2625C26.816 37.9271 26.0648 36.1165 26.0625 34.228V25.5406C26.0625 25.218 26.1906 24.9086 26.4187 24.6806C26.6468 24.4525 26.9562 24.3243 27.2787 24.3243H39.093C39.4156 24.3243 39.7249 24.4525 39.953 24.6806C40.1811 24.9086 40.3093 25.218 40.3093 25.5406V34.228C40.307 36.1165 39.5558 37.9271 38.2204 39.2625C36.885 40.5979 35.0744 41.3491 33.1859 41.3514ZM28.4949 26.7568V34.228C28.4949 35.4721 28.9892 36.6653 29.8689 37.545C30.7486 38.4247 31.9418 38.9189 33.1859 38.9189C34.43 38.9189 35.6232 38.4247 36.5029 37.545C37.3826 36.6653 37.8768 35.4721 37.8768 34.228V26.7568H28.4949Z" fill="#E25730"/>
<path d="M45.0003 41.3514C43.1118 41.3491 41.3012 40.5979 39.9658 39.2625C38.6304 37.9271 37.8792 36.1165 37.877 34.228V25.5406C37.877 25.218 38.0051 24.9086 38.2332 24.6806C38.4613 24.4525 38.7706 24.3243 39.0932 24.3243H50.9075C51.2301 24.3243 51.5394 24.4525 51.7675 24.6806C51.9956 24.9086 52.1237 25.218 52.1237 25.5406V34.228C52.1215 36.1165 51.3702 37.9271 50.0348 39.2625C48.6994 40.5979 46.8889 41.3491 45.0003 41.3514ZM40.3094 26.7568V34.228C40.3094 35.4721 40.8036 36.6653 41.6833 37.545C42.5631 38.4247 43.7562 38.9189 45.0003 38.9189C46.2444 38.9189 47.4376 38.4247 48.3173 37.545C49.1971 36.6653 49.6913 35.4721 49.6913 34.228V26.7568H40.3094Z" fill="#E25730"/>
<path d="M56.8143 41.3514C54.9258 41.3491 53.1152 40.5979 51.7798 39.2625C50.4444 37.9271 49.6932 36.1165 49.6909 34.228V25.5406C49.6909 25.218 49.8191 24.9086 50.0471 24.6806C50.2752 24.4525 50.5846 24.3243 50.9071 24.3243H62.7215C63.044 24.3243 63.3534 24.4525 63.5815 24.6806C63.8095 24.9086 63.9377 25.218 63.9377 25.5406V34.228C63.9354 36.1165 63.1842 37.9271 61.8488 39.2625C60.5134 40.5979 58.7028 41.3491 56.8143 41.3514ZM52.1234 26.7568V34.228C52.1234 35.4721 52.6176 36.6653 53.4973 37.545C54.377 38.4247 55.5702 38.9189 56.8143 38.9189C58.0584 38.9189 59.2516 38.4247 60.1313 37.545C61.011 36.6653 61.5052 35.4721 61.5052 34.228V26.7568H52.1234Z" fill="#E25730"/>
<path d="M68.6302 41.3514C66.7417 41.3491 64.9311 40.5979 63.5957 39.2625C62.2603 37.9271 61.5091 36.1165 61.5068 34.228V25.5406C61.5068 25.218 61.635 24.9086 61.8631 24.6806C62.0911 24.4525 62.4005 24.3243 62.7231 24.3243H74.5374C74.8599 24.3243 75.1693 24.4525 75.3974 24.6806C75.6255 24.9086 75.7536 25.218 75.7536 25.5406V34.228C75.7513 36.1165 75.0001 37.9271 73.6647 39.2625C72.3293 40.5979 70.5188 41.3491 68.6302 41.3514ZM63.9381 26.7568V34.228C63.9381 35.4721 64.4323 36.6653 65.312 37.545C66.1917 38.4247 67.3849 38.9189 68.629 38.9189C69.8731 38.9189 71.0663 38.4247 71.946 37.545C72.8257 36.6653 73.3199 35.4721 73.3199 34.228V26.7568H63.9381Z" fill="#E25730"/>
<path d="M80.4442 41.3514C78.5556 41.3491 76.7451 40.5979 75.4097 39.2625C74.0743 37.9271 73.3231 36.1165 73.3208 34.228V25.5406C73.3208 25.218 73.4489 24.9086 73.677 24.6806C73.9051 24.4525 74.2145 24.3243 74.537 24.3243H86.3513C86.6739 24.3243 86.9833 24.4525 87.2113 24.6806C87.4394 24.9086 87.5676 25.218 87.5676 25.5406V34.228C87.5653 36.1165 86.8141 37.9271 85.4787 39.2625C84.1433 40.5979 82.3327 41.3491 80.4442 41.3514ZM75.7532 26.7568V34.228C75.7532 35.4721 76.2475 36.6653 77.1272 37.545C78.0069 38.4247 79.2001 38.9189 80.4442 38.9189C81.6883 38.9189 82.8815 38.4247 83.7612 37.545C84.6409 36.6653 85.1351 35.4721 85.1351 34.228V26.7568H75.7532Z" fill="#E25730"/>
<path d="M82.7028 85.1352H7.1879C6.86534 85.1352 6.55599 85.007 6.3279 84.7789C6.09982 84.5509 5.97168 84.2415 5.97168 83.9189V38.9189H8.40411V82.7027H81.4865V38.9189H83.919V83.9189C83.919 84.2415 83.7908 84.5509 83.5628 84.7789C83.3347 85.007 83.0253 85.1352 82.7028 85.1352Z" fill="#E25730"/>
<path d="M72.973 85.1351H52.2973C51.9748 85.1351 51.6654 85.007 51.4373 84.7789C51.2093 84.5508 51.0811 84.2415 51.0811 83.9189V49.8649C51.0811 49.5423 51.2093 49.2329 51.4373 49.0049C51.6654 48.7768 51.9748 48.6486 52.2973 48.6486H72.973C73.2956 48.6486 73.6049 48.7768 73.833 49.0049C74.0611 49.2329 74.1892 49.5423 74.1892 49.8649V83.9189C74.1892 84.2415 74.0611 84.5508 73.833 84.7789C73.6049 85.007 73.2956 85.1351 72.973 85.1351ZM53.5136 82.7027H71.7568V51.0811H53.5136V82.7027ZM45 74.7973H14.5946C14.2721 74.7973 13.9627 74.6692 13.7346 74.4411C13.5066 74.213 13.3784 73.9036 13.3784 73.5811V49.2567C13.3784 48.9342 13.5066 48.6248 13.7346 48.3967C13.9627 48.1687 14.2721 48.0405 14.5946 48.0405H45C45.3226 48.0405 45.632 48.1687 45.86 48.3967C46.0881 48.6248 46.2163 48.9342 46.2163 49.2567V73.5811C46.2163 73.9036 46.0881 74.213 45.86 74.4411C45.632 74.6692 45.3226 74.7973 45 74.7973ZM15.8109 72.3649H43.7838V50.473H15.8109V72.3649Z" fill="#E25730"/>
</svg>
