<svg width="48" height="48" viewBox="0 0 48 48" fill="none" xmlns="http://www.w3.org/2000/svg">
<g clip-path="url(#clip0_1166_1537)">
<path d="M43.3 38.2737C46.351 34.1666 48 29.2101 48 24C48 17.5894 45.5036 11.5625 40.9706 7.02938C36.4375 2.49647 30.4106 0 24 0V2.8125C29.6594 2.8125 34.9801 5.01638 38.9818 9.01819C42.9836 13.02 45.1875 18.3406 45.1875 24C45.1875 28.5715 43.7487 32.9215 41.0867 36.5344L40.7643 32.8492L37.9625 33.0942L38.6978 41.4996L47.1033 40.7642L46.8582 37.9624L43.3 38.2737ZM2.8125 24C2.8125 19.4285 4.25128 15.0785 6.91331 11.4656L7.23572 15.1508L10.0375 14.9058L9.30216 6.50044L0.896719 7.23572L1.14178 10.0375L4.69987 9.72628C1.64897 13.8334 0 18.7899 0 24C0 30.4106 2.49638 36.4375 7.02938 40.9706C11.5625 45.5035 17.5894 48 24 48V45.1875C18.3406 45.1875 13.0199 42.9836 9.01819 38.9818C5.01638 34.98 2.8125 29.6594 2.8125 24Z" fill="#E25730"/>
<path d="M24 28.3125C26.3817 28.3125 28.3125 26.3817 28.3125 24C28.3125 21.6183 26.3817 19.6875 24 19.6875C21.6183 19.6875 19.6875 21.6183 19.6875 24C19.6875 26.3817 21.6183 28.3125 24 28.3125Z" fill="#E25730"/>
<path d="M37.0288 18.2881L34.2694 19.1847C33.6556 17.8828 32.8009 16.7089 31.7504 15.725L33.4585 13.3739L31.1831 11.7207L29.4771 14.069C28.2174 13.3708 26.8355 12.9208 25.4063 12.7433V9.84375H22.5938V12.7433C21.1645 12.9208 19.7826 13.3708 18.523 14.069L16.8169 11.7207L14.5415 13.3739L16.2496 15.725C15.1991 16.7088 14.3444 17.8828 13.7306 19.1847L10.9712 18.2881L10.1021 20.9629L12.8598 21.8589C12.5883 23.2734 12.5883 24.7266 12.8598 26.1411L10.1021 27.0371L10.9712 29.7119L13.7306 28.8153C14.3444 30.1172 15.1991 31.2911 16.2496 32.275L14.5415 34.6261L16.8169 36.2793L18.523 33.931C19.7826 34.6292 21.1645 35.0792 22.5938 35.2567V38.1562H25.4063V35.2567C26.8355 35.0792 28.2174 34.6292 29.4771 33.931L31.1831 36.2793L33.4585 34.6261L31.7504 32.275C32.801 31.2912 33.6557 30.1172 34.2694 28.8153L37.0288 29.7119L37.898 27.0371L35.1402 26.1411C35.4117 24.7266 35.4117 23.2734 35.1402 21.8589L37.898 20.9629L37.0288 18.2881ZM31.125 24C31.125 27.9287 27.9288 31.125 24 31.125C20.0712 31.125 16.875 27.9287 16.875 24C16.875 20.0713 20.0712 16.875 24 16.875C27.9288 16.875 31.125 20.0713 31.125 24Z" fill="#E25730"/>
</g>
<defs>
<clipPath id="clip0_1166_1537">
<rect width="48" height="48" fill="white"/>
</clipPath>
</defs>
</svg>
