<svg width="130" height="60" viewBox="0 0 130 60" fill="none" xmlns="http://www.w3.org/2000/svg">
<path d="M68.1995 20.1111C65.5986 18.0249 62.1327 16.7157 57.7432 16.7157C48.4709 16.7157 40.9501 24.7394 40.9501 34.634C40.9501 44.5286 48.4709 52.5621 57.7432 52.5621C62.1405 52.5621 65.5986 51.2548 68.1995 49.1667V51.9066H77.2154V17.3497H68.1995V20.1111ZM59.1014 44.2605C54.0543 44.2605 49.968 39.9551 49.968 34.636C49.968 29.3168 54.0543 25.0192 59.1014 25.0192C61.6529 25.0192 64.1 26.0329 65.9041 27.837C67.7084 29.6413 68.722 32.0883 68.722 34.6399C68.722 37.1914 67.7084 39.6384 65.9041 41.4427C64.1 43.2469 61.6529 44.2605 59.1014 44.2605ZM113.225 51.9144H122.24V24.1856H113.225V51.9144ZM111.463 15.2577C111.463 16.9202 112.123 18.5146 113.299 19.69C114.474 20.8656 116.069 21.526 117.731 21.526C119.394 21.526 120.988 20.8656 122.164 19.69C123.339 18.5146 124 16.9202 124 15.2577C124 10.4611 120.102 7.11658 114.459 7.00308C107.904 6.87979 99.6328 10.4396 95.9302 21.3871V17.3497H86.9202V51.9144H95.9322V31.8218C95.9322 18.8801 103.316 8.37298 114.404 8.48453C115.433 8.50162 116.453 8.67111 117.431 8.98748C115.823 9.06639 114.305 9.76156 113.194 10.9289C112.083 12.0963 111.464 13.6463 111.465 15.2577H111.463ZM41.866 17.3497H29.1318L15.0159 30.7396V7.39056H6V51.9144H15.0159V39.3269L29.1318 51.9144H41.7956L23.247 34.6693L41.866 17.3497Z" fill="#991E66"/>
<path d="M24.3371 10.8799H26.5152V9.8877H24.3371V8.38277H26.7696V7.39057H23.2744V13.4377H26.8616V12.4455H24.3371V10.8799ZM31.1475 12.5394C29.9126 12.5394 29.0574 11.6764 29.0574 10.4141C29.0574 9.10099 29.9028 8.28883 31.0262 8.28883C31.5142 8.27487 31.9941 8.41676 32.3961 8.69393L32.8716 7.91113C32.3523 7.49038 31.6979 7.27269 31.0301 7.29859C29.0339 7.29859 27.936 8.68024 27.936 10.418C27.936 12.3026 29.2081 13.5375 31.0555 13.5375C31.8383 13.5375 32.6211 13.2616 32.9929 12.8545L32.5859 12.06C32.1726 12.3744 31.6668 12.543 31.1475 12.5394ZM35.2572 8.6C34.9891 12.2459 34.3746 12.4455 33.9088 12.3848L33.8834 13.4377C35.0752 13.6119 35.8619 13.0463 36.2161 9.5237L36.3375 8.38277H38.0988V13.4377H39.1536V7.39057H35.3394L35.2572 8.6ZM42.0343 11.696V7.39057H40.9697V13.4377H41.9031L45.0696 9.15187V13.4377H46.1323V7.39057H45.1988L42.0343 11.696ZM53.7333 7.29859C51.876 7.29859 50.5884 8.6685 50.5884 10.418C50.5884 12.3026 51.9367 13.5375 53.7333 13.5375C55.5298 13.5375 56.888 12.2322 56.888 10.418C56.8821 8.52955 55.5259 7.29468 53.7274 7.29468L53.7333 7.29859ZM53.7333 12.5434C52.6021 12.5434 51.7116 11.6275 51.7116 10.418C51.7116 9.16557 52.5766 8.29275 53.7333 8.29275C54.8899 8.29275 55.7646 9.16557 55.7646 10.418C55.7588 11.6059 54.9975 12.5394 53.7274 12.5394L53.7333 12.5434ZM60.1229 9.68026C59.8514 9.68118 59.5802 9.69817 59.3107 9.73114V8.38277H61.7825V7.39057H58.248V13.4377C58.6023 13.4377 59.1209 13.4729 59.8137 13.4729C61.299 13.4729 62.1464 12.7567 62.1464 11.5022C62.1543 10.3887 61.3851 9.68026 60.1229 9.68026ZM59.9839 12.4788C59.7609 12.4788 59.5534 12.4631 59.3107 12.4455V10.7175C59.5514 10.6853 59.7939 10.6683 60.0368 10.6666C60.7804 10.6666 61.0994 11.058 61.0994 11.5727C61.0994 12.0874 60.7706 12.4788 59.9839 12.4788ZM66.0937 10.9132L64.0545 7.39057H62.7785L65.5282 11.9778L64.7903 13.4573H65.9215L68.947 7.39057H67.8139L66.0937 10.9132ZM72.7221 10.2478V10.2302C72.9888 10.1174 73.2146 9.92571 73.3693 9.68083C73.524 9.43594 73.6 9.14961 73.5871 8.86028C73.5871 8.02268 73.043 7.36513 71.5988 7.36513C70.994 7.36513 70.1917 7.39253 69.8531 7.40818V13.4299C70.2073 13.4553 70.9862 13.4729 71.5381 13.4729C72.818 13.4729 73.7867 12.9034 73.7867 11.6588C73.8079 11.3352 73.7121 11.0148 73.5167 10.7561C73.3212 10.4974 73.0391 10.3177 72.7221 10.2497V10.2478ZM70.9157 8.38082C71.1114 8.3632 71.3404 8.35537 71.5831 8.35537C72.1525 8.35537 72.5323 8.61566 72.5323 9.10686C72.5323 9.66069 72.1271 9.91119 71.6339 9.91119H70.9157V8.38082ZM71.6163 12.4788C71.3822 12.4782 71.1483 12.4639 70.9157 12.4357V10.8368H71.6692C72.3345 10.8368 72.7221 11.0971 72.7221 11.6059C72.7221 12.1774 72.3345 12.4788 71.6163 12.4788ZM77.0784 9.41999C76.8474 9.4208 76.6167 9.43517 76.3876 9.46303V7.39057H75.323V13.4377C75.6791 13.4377 76.274 13.4553 76.8533 13.4553C78.462 13.4553 79.3603 12.6529 79.3603 11.3731C79.3603 10.1891 78.642 9.41999 77.0784 9.41999ZM76.9747 12.4631C76.7672 12.4631 76.5832 12.4455 76.3876 12.4357V10.4572C76.6283 10.4318 76.8357 10.4141 76.9923 10.4141C77.7359 10.4141 78.2369 10.7175 78.2369 11.3926C78.2389 12.1422 77.7515 12.4631 76.9747 12.4631ZM80.783 12.2557C80.6964 12.2468 80.609 12.2568 80.5266 12.2849C80.4443 12.3129 80.3689 12.3584 80.3059 12.4182C80.2427 12.478 80.1931 12.5508 80.1607 12.6315C80.1282 12.7122 80.1134 12.7989 80.1175 12.8858C80.1058 13.0168 80.1451 13.1473 80.2271 13.2501C80.3091 13.3529 80.4276 13.4201 80.558 13.4377C80.6283 13.4377 80.7321 13.4377 80.783 13.3692C80.805 13.5046 80.7779 13.6434 80.7066 13.7606C80.6575 13.8709 80.5846 13.9691 80.4933 14.0483C80.402 14.1274 80.2944 14.1855 80.1782 14.2185L80.4463 14.6863C80.7702 14.6044 81.056 14.4136 81.2558 14.1461C81.4558 13.8785 81.5576 13.5503 81.5443 13.2166C81.5462 12.6608 81.2526 12.2557 80.783 12.2557ZM84.153 8.38277H86.1099V13.4377H87.1726V8.38277H89.1296V7.39057H84.1549L84.153 8.38277ZM92.6228 7.29468C90.7656 7.29468 89.478 8.66458 89.478 10.4141C89.478 12.2987 90.8263 13.5336 92.6228 13.5336C94.4194 13.5336 95.7776 12.2283 95.7776 10.4141C95.7795 8.52955 94.4213 7.29468 92.6248 7.29468H92.6228ZM92.6228 12.5394C91.4898 12.5394 90.6012 11.6236 90.6012 10.4141C90.6012 9.16166 91.4643 8.28883 92.6228 8.28883C93.7814 8.28883 94.6542 9.16166 94.6542 10.4141C94.6562 11.6059 93.8949 12.5394 92.6248 12.5394H92.6228Z" fill="#9F1A6E"/>
</svg>
