<?xml version="1.0" encoding="UTF-8"?>
<svg width="168px" height="52px" viewBox="0 0 168 52" version="1.1" xmlns="http://www.w3.org/2000/svg" xmlns:xlink="http://www.w3.org/1999/xlink">
    <!-- Generator: sketchtool 52.2 (67145) - http://www.bohemiancoding.com/sketch -->
    <title>55ED9499-DB90-4AE4-9781-326FA366471A</title>
    <desc>Created with sketchtool.</desc>
    <g id="pages" stroke="none" stroke-width="1" fill="none" fill-rule="evenodd">
        <g id="home_07_1" transform="translate(-36.000000, -36.000000)">
            <g id="header">
                <g id="logo" transform="translate(36.000000, 36.000000)">
                    <path d="M128.5,43.4702586 C127.380576,43.4702586 126.470356,44.3810237 126.470356,45.5001412 C126.470356,46.6192586 127.380576,47.5297414 128.5,47.5297414 C129.619142,47.5297414 130.529644,46.6192586 130.529644,45.5001412 C130.529644,44.3810237 129.619142,43.4702586 128.5,43.4702586 M128.5,52 C124.915867,52 122,49.0841966 122,45.5001412 C122,41.9158034 124.915867,39 128.5,39 C132.084133,39 135,41.9158034 135,45.5001412 C135,49.0841966 132.084133,52 128.5,52" id="weel_02" fill="#002F6C"></path>
                    <path d="M109.499859,43.4702586 C108.380741,43.4702586 107.470259,44.3810237 107.470259,45.5001412 C107.470259,46.6192586 108.380741,47.5297414 109.499859,47.5297414 C110.619259,47.5297414 111.529459,46.6192586 111.529459,45.5001412 C111.529459,44.3810237 110.619259,43.4702586 109.499859,43.4702586 M109.499859,52 C105.915803,52 103,49.0841966 103,45.5001412 C103,41.9158034 105.915803,39 109.499859,39 C113.084197,39 116,41.9158034 116,45.5001412 C116,49.0841966 113.084197,52 109.499859,52" id="weel_01" fill="#002F6C"></path>
                    <path d="M105.813386,7.91862188 C104.977404,3.46418869 100.987011,0.181711534 96.2542339,0.05529143 L87,0 L87,5.24990738 L94.9482292,5.24990738 C97.205324,5.31020005 99.108376,6.87586441 99.5071827,9 L106,9 L105.813386,7.91862188 Z" id="handle" fill="#002F6C"></path>
                    <g id="txt" transform="translate(0.000000, 1.000000)" fill="#FFFFFF">
                        <path d="M156.28018,31.1362921 C152.387174,31.1362921 149.671506,28.1413139 149.671506,24.4465744 C149.671506,20.7518348 152.387174,17.756565 156.28018,17.756565 C158.557782,17.756565 160.566198,18.9231254 161.754303,20.6978949 L161.754303,28.1949622 C160.566198,29.9697318 158.557782,31.1362921 156.28018,31.1362921 Z M161.754303,12.5582135 L161.754303,13.8335284 C159.895498,12.6063221 157.693835,11.8928571 155.33151,11.8928571 C148.686566,11.8928571 143.3,17.513398 143.3,24.4465744 C143.3,31.3794592 148.686566,37 155.33151,37 C157.693835,37 159.895498,36.2868266 161.754303,35.0593287 L161.754303,36.4326102 L168,36.4326102 L168,12.5582135 L161.754303,12.5582135 Z" id="a"></path>
                        <path d="M128.591766,10.5714286 C125.12346,10.5714286 122.298305,11.7661287 120.439453,13.8703119 C118.686503,11.7818915 116.056215,10.5714286 112.963296,10.5714286 C110.436039,10.5714286 108.17712,11.4577135 106.425891,12.9373334 L106.425891,11.3259604 L100.1,11.3259604 L100.1,35.6785714 L106.425891,35.6785714 L106.425891,19.8345929 C107.606866,17.7577716 109.80609,16.643075 111.971736,16.643075 C114.639046,16.643075 116.423566,18.2639652 116.423566,22.1710541 L116.423566,27.1169997 L116.423566,35.6785714 L122.74917,35.6785714 L122.74917,27.1169997 L122.74917,20.7161193 C122.74917,20.310748 122.729654,19.9145965 122.69378,19.5276647 C123.839168,17.6634923 125.635168,16.643075 127.721891,16.643075 C130.3892,16.643075 132.774109,18.2639652 132.774109,22.1710541 L132.774109,27.1169997 L132.774109,35.6785714 L139.1,35.6785714 L139.1,27.1169997 L139.1,21.108107 C139.1,14.7979369 134.257574,10.5714286 128.591766,10.5714286" id="t"></path>
                        <polygon id="n" points="86.9744171 21.5621872 75.5255829 21.5621872 75.5255829 11.8928571 68.9 11.8928571 68.9 37 75.5255829 37 75.5255829 27.3312832 86.9744171 27.3312832 86.9744171 37 93.6 37 93.6 11.8928571 86.9744171 11.8928571"></polygon>
                        <path d="M50.6801801,31.1362921 C46.7871745,31.1362921 44.0717896,28.1413139 44.0717896,24.4465744 C44.0717896,20.7518348 46.7871745,17.756565 50.6801801,17.756565 C52.9577825,17.756565 54.9661982,18.9231254 56.1545864,20.6978949 L56.1545864,28.1949622 C54.9661982,29.9697318 52.9577825,31.1362921 50.6801801,31.1362921 Z M56.1545864,13.8335284 C54.2957818,12.6063221 52.0941184,11.8928571 49.7315097,11.8928571 C43.0868498,11.8928571 37.7,17.513398 37.7,24.4465744 C37.7,31.3794592 43.0868498,37 49.7315097,37 C52.0941184,37 54.2957818,36.2868266 56.1545864,35.0593287 L56.1545864,36.4326102 L62.4,36.4326102 L62.4,12.5582135 L56.1545864,12.5582135 L56.1545864,13.8335284 Z" id="a"></path>
                        <path d="M17.7093907,6.30737979 C23.6510984,6.30737979 26.6340878,9.73626924 27.9820272,14.4524631 L35.1,14.4527573 C33.5291799,6.219716 27.5327141,0 17.7093907,0 C7.92868997,0 0,7.98681783 0,17.8392857 C0,27.6914594 7.92868997,35.6785714 17.7093907,35.6785714 C27.5886562,35.6785714 33.4460067,29.5306338 35.0721769,21.3690768 L27.9402926,21.3690768 C26.5512105,26.011433 23.8198128,29.3711916 17.7093907,29.3711916 C11.7756748,29.3711916 6.96583379,24.2081478 6.96583379,17.8392857 C6.96583379,11.4704236 11.7756748,6.30737979 17.7093907,6.30737979" id="s"></path>
                    </g>
                </g>
            </g>
        </g>
    </g>
</svg>