<svg width="48" height="48" viewBox="0 0 48 48" fill="none" xmlns="http://www.w3.org/2000/svg">
<path d="M12.2418 46.7825C11.1353 46.782 10.0741 46.3426 9.29111 45.5607C8.50812 44.7788 8.06723 43.7183 8.06517 42.6117V9.53518C8.06517 9.36314 8.13351 9.19816 8.25516 9.07651C8.3768 8.95487 8.54179 8.88653 8.71382 8.88653C8.88585 8.88653 9.05084 8.95487 9.17248 9.07651C9.29413 9.19816 9.36247 9.36314 9.36247 9.53518V42.6117C9.37382 43.368 9.68221 44.0894 10.221 44.6202C10.7598 45.151 11.4858 45.4485 12.2421 45.4485C12.9985 45.4485 13.7245 45.151 14.2633 44.6202C14.8021 44.0894 15.1105 43.368 15.1218 42.6117V39.5177C15.1218 39.3456 15.1902 39.1806 15.3118 39.059C15.4335 38.9374 15.5984 38.869 15.7705 38.869H41.4699V5.55572C41.4691 4.79216 41.1654 4.06011 40.6255 3.5202C40.0855 2.98028 39.3535 2.67657 38.5899 2.67572H4.84982C4.67779 2.67572 4.5128 2.60738 4.39116 2.48573C4.26951 2.36409 4.20117 2.1991 4.20117 2.02707C4.20117 1.85503 4.26951 1.69005 4.39116 1.5684C4.5128 1.44676 4.67779 1.37842 4.84982 1.37842H38.5899C39.6974 1.37962 40.7593 1.82011 41.5424 2.60325C42.3255 3.38638 42.766 4.4482 42.7672 5.55572V39.5177C42.7672 39.6897 42.6989 39.8547 42.5772 39.9763C42.4556 40.098 42.2906 40.1663 42.1186 40.1663H16.4191V42.6117C16.4169 43.7183 15.9759 44.7789 15.1928 45.5607C14.4097 46.3426 13.3484 46.782 12.2418 46.7825Z" fill="#E25730"/>
<path d="M41.8759 46.7838H12.2424C12.0704 46.7838 11.9054 46.7154 11.7837 46.5938C11.6621 46.4721 11.5938 46.3072 11.5938 46.1351C11.5938 45.9631 11.6621 45.7981 11.7837 45.6765C11.9054 45.5548 12.0704 45.4865 12.2424 45.4865C13.0051 45.4865 13.7367 45.1839 14.2766 44.6452C14.8165 44.1065 15.1207 43.3757 15.1224 42.613V39.5189C15.1224 39.3469 15.1907 39.1819 15.3124 39.0602C15.434 38.9386 15.599 38.8703 15.771 38.8703H45.3974C45.5695 38.8703 45.7344 38.9386 45.8561 39.0602C45.9777 39.1819 46.0461 39.3469 46.0461 39.5189V42.613C46.045 43.7187 45.6054 44.7789 44.8236 45.5608C44.0417 46.3427 42.9817 46.7826 41.8759 46.7838ZM15.2677 45.4865H41.8759C42.6377 45.4856 43.368 45.1826 43.9066 44.6439C44.4452 44.1051 44.7481 43.3747 44.7488 42.613V40.1676H16.4197V42.613C16.4206 43.6835 16.0078 44.713 15.2677 45.4865ZM21.4175 35.1626C21.2992 35.1627 21.1831 35.1304 21.0818 35.0692C20.9805 35.008 20.8979 34.9203 20.8428 34.8156L19.8945 33.0091L17.9525 33.6298C17.834 33.6679 17.707 33.6711 17.5868 33.639C17.4666 33.6069 17.3581 33.5409 17.2743 33.4489C17.1906 33.3568 17.1351 33.2426 17.1144 33.1199C17.0938 32.9972 17.1088 32.8711 17.1579 32.7567L19.9256 26.2748C19.9932 26.1165 20.1208 25.9916 20.2805 25.9274C20.4401 25.8632 20.6187 25.8651 20.777 25.9326C20.9353 26.0002 21.0602 26.1278 21.1244 26.2874C21.1886 26.4471 21.1867 26.6257 21.1192 26.784L18.9079 31.9621L20.0177 31.608C20.1631 31.5613 20.3203 31.5674 20.4616 31.6252C20.6029 31.683 20.7193 31.7887 20.7903 31.9239L21.3559 33.0013L23.7287 27.4229C23.7604 27.3423 23.808 27.2688 23.8686 27.2069C23.9292 27.145 24.0016 27.0958 24.0815 27.0623C24.1614 27.0288 24.2472 27.0117 24.3338 27.0119C24.4205 27.0121 24.5062 27.0297 24.5859 27.0635C24.6657 27.0974 24.7378 27.147 24.7981 27.2092C24.8584 27.2714 24.9056 27.3451 24.937 27.4259C24.9683 27.5067 24.9831 27.5929 24.9806 27.6795C24.9781 27.7661 24.9582 27.8513 24.9222 27.9301L22.0136 34.7676C21.9657 34.8804 21.8867 34.9773 21.7859 35.0471C21.6851 35.1169 21.5666 35.1567 21.4441 35.1619L21.4175 35.1626ZM28.7297 35.1626H28.7032C28.5804 35.1576 28.4616 35.1179 28.3606 35.0481C28.2595 34.9783 28.1804 34.8812 28.1323 34.7682L25.2322 27.9282C25.165 27.7698 25.1634 27.5911 25.2279 27.4315C25.2923 27.2719 25.4176 27.1444 25.576 27.0772C25.7345 27.0099 25.9131 27.0083 26.0727 27.0728C26.2323 27.1373 26.3598 27.2625 26.427 27.421L28.794 32.9993L29.3589 31.9232C29.4299 31.7882 29.5462 31.6826 29.6874 31.6248C29.8286 31.567 29.9856 31.5608 30.1308 31.6073L31.2394 31.9615L29.0307 26.7976C28.9947 26.7189 28.9749 26.6339 28.9722 26.5474C28.9696 26.4609 28.9843 26.3748 29.0155 26.2941C29.0467 26.2134 29.0937 26.1397 29.1538 26.0775C29.2138 26.0152 29.2857 25.9656 29.3653 25.9315C29.4448 25.8975 29.5303 25.8797 29.6169 25.8792C29.7034 25.8787 29.7891 25.8955 29.869 25.9286C29.9489 25.9617 30.0214 26.0105 30.0822 26.0721C30.143 26.1337 30.1908 26.2068 30.2229 26.2871L32.9881 32.7567C33.037 32.871 33.052 32.9969 33.0314 33.1194C33.0108 33.242 32.9554 33.356 32.8718 33.448C32.7882 33.54 32.68 33.606 32.56 33.6382C32.44 33.6705 32.3132 33.6675 32.1948 33.6298L30.2528 33.0091L29.3045 34.8156C29.2494 34.9203 29.1668 35.008 29.0655 35.0692C28.9642 35.1304 28.8481 35.1627 28.7297 35.1626Z" fill="#E25730"/>
<path d="M25.0765 28.6613C24.7239 28.6613 24.3815 28.5435 24.1035 28.3266L23.0689 27.5216C23.0073 27.4764 22.9309 27.456 22.8549 27.4645L21.5576 27.6449C21.2081 27.6947 20.8521 27.626 20.5463 27.4496C20.2406 27.2732 20.0028 26.9994 19.8711 26.6719L19.3801 25.4596C19.3659 25.4233 19.3445 25.3903 19.3173 25.3624C19.2902 25.3346 19.2577 25.3125 19.2218 25.2974L18.0095 24.8064C17.6823 24.6743 17.4087 24.4364 17.2324 24.1308C17.056 23.8251 16.9871 23.4693 17.0365 23.1199L17.2162 21.8226C17.2216 21.7848 17.2193 21.7462 17.2094 21.7093C17.1995 21.6724 17.1821 21.6379 17.1584 21.6079L16.3535 20.57C16.1364 20.2921 16.0186 19.9497 16.0186 19.5971C16.0186 19.2445 16.1364 18.902 16.3535 18.6241L17.1571 17.5863C17.1808 17.5561 17.1982 17.5215 17.2082 17.4845C17.2182 17.4475 17.2207 17.4089 17.2155 17.3709L17.0359 16.0736C16.9864 15.7242 17.0554 15.3683 17.2317 15.0627C17.4081 14.7571 17.6816 14.5192 18.0088 14.3871L19.2218 13.8954C19.2574 13.8812 19.2897 13.8599 19.3168 13.8328C19.3439 13.8057 19.3652 13.7734 19.3794 13.7378L19.8711 12.5249C20.003 12.1975 20.2408 11.9238 20.5465 11.7474C20.8522 11.5711 21.2082 11.5022 21.5576 11.5519L22.8549 11.7322C22.8929 11.7375 22.9315 11.7351 22.9685 11.725C23.0055 11.715 23.0401 11.6976 23.0702 11.6738L24.1042 10.8695C24.3823 10.6529 24.7247 10.5353 25.0771 10.5353C25.4296 10.5353 25.772 10.6529 26.0501 10.8695L27.0847 11.6745C27.1149 11.6981 27.1495 11.7154 27.1865 11.7253C27.2235 11.7353 27.2621 11.7376 27.3001 11.7322L28.5974 11.5519C28.9468 11.5025 29.3026 11.5714 29.6083 11.7477C29.9139 11.9241 30.1517 12.1976 30.2838 12.5249L30.7749 13.7378C30.7894 13.7735 30.811 13.8059 30.8383 13.8331C30.8656 13.8603 30.8981 13.8817 30.9338 13.8961L32.1461 14.3871C32.4731 14.5195 32.7465 14.7574 32.9228 15.063C33.0991 15.3685 33.1682 15.7243 33.1191 16.0736L32.9388 17.3709C32.9288 17.4473 32.9496 17.5245 32.9965 17.5856L33.8008 18.6234C34.0182 18.9012 34.1363 19.2437 34.1363 19.5964C34.1363 19.9491 34.0182 20.2916 33.8008 20.5694L32.9958 21.604C32.9493 21.6652 32.9288 21.7424 32.9388 21.8187L33.1191 23.116C33.1682 23.4653 33.0991 23.8211 32.9228 24.1266C32.7465 24.4322 32.4731 24.6701 32.1461 24.8025L30.9306 25.2974C30.8949 25.3119 30.8625 25.3334 30.8352 25.3606C30.8079 25.3877 30.7863 25.4201 30.7716 25.4557L30.2813 26.668C30.1489 26.995 29.911 27.2683 29.6054 27.4446C29.2998 27.6209 28.9441 27.69 28.5948 27.641L27.2975 27.4606C27.2209 27.4508 27.1435 27.4715 27.0821 27.5184L26.0482 28.3227C25.7712 28.5409 25.4291 28.66 25.0765 28.6613ZM22.8912 26.1646C23.2433 26.1652 23.5854 26.2822 23.8642 26.4974L24.902 27.303C24.9523 27.3419 25.0142 27.3631 25.0778 27.3631C25.1414 27.3631 25.2032 27.3419 25.2536 27.303L26.2875 26.498C26.4549 26.3685 26.6465 26.2736 26.8509 26.2189C27.0554 26.1643 27.2687 26.1509 27.4784 26.1796L28.7757 26.3592C28.839 26.3697 28.904 26.3579 28.9596 26.3258C29.0152 26.2938 29.0579 26.2435 29.0806 26.1834L29.5716 24.9705C29.6518 24.7739 29.7704 24.5953 29.9205 24.4453C30.0707 24.2952 30.2494 24.1767 30.446 24.0967L31.659 23.6057C31.7181 23.5818 31.7675 23.5387 31.7993 23.4835C31.8312 23.4283 31.8436 23.364 31.8348 23.3009L31.6551 22.0036C31.6263 21.7942 31.6396 21.5813 31.694 21.3771C31.7485 21.173 31.8431 20.9818 31.9723 20.8146L32.7779 19.7767C32.817 19.7266 32.8382 19.6649 32.8382 19.6013C32.8382 19.5377 32.817 19.476 32.7779 19.4258L31.9736 18.388C31.8443 18.2214 31.7495 18.0308 31.6946 17.8272C31.6397 17.6237 31.6258 17.4112 31.6538 17.2023L31.8335 15.905C31.8423 15.8418 31.8299 15.7775 31.798 15.7223C31.7662 15.6671 31.7168 15.6241 31.6577 15.6001L30.4447 15.1084C30.2482 15.0285 30.0696 14.9101 29.9196 14.7602C29.7695 14.6103 29.651 14.4318 29.571 14.2353L29.0793 13.0224C29.0558 12.9629 29.013 12.9131 28.9576 12.881C28.9023 12.849 28.8377 12.8366 28.7744 12.8459L27.4771 13.0263C27.2676 13.055 27.0545 13.0416 26.8502 12.9869C26.646 12.9322 26.4547 12.8373 26.2875 12.7078L25.2497 11.9028C25.1995 11.8636 25.1376 11.8422 25.0739 11.8422C25.0102 11.8422 24.9483 11.8636 24.8981 11.9028L23.8603 12.7071C23.6928 12.8361 23.5015 12.9308 23.2973 12.9855C23.0932 13.0403 22.8802 13.0541 22.6707 13.0263L21.3734 12.8459C21.3102 12.8373 21.2459 12.85 21.1907 12.882C21.1355 12.9139 21.0925 12.9633 21.0685 13.0224L20.5768 14.2353C20.4968 14.4317 20.3784 14.6101 20.2285 14.7601C20.0785 14.91 19.9001 15.0284 19.7037 15.1084L18.4908 15.5994C18.4317 15.6235 18.3823 15.6665 18.3504 15.7217C18.3184 15.7769 18.3057 15.8411 18.3143 15.9043L18.4947 17.2016C18.5233 17.4113 18.5098 17.6246 18.4549 17.829C18.4 18.0334 18.3048 18.2248 18.1749 18.3919L17.377 19.4271C17.3378 19.4773 17.3165 19.5392 17.3165 19.6029C17.3165 19.6666 17.3378 19.7285 17.377 19.7787L18.182 20.8165C18.3115 20.9837 18.4063 21.175 18.461 21.3793C18.5157 21.5835 18.5291 21.7966 18.5005 22.0061L18.3202 23.3034C18.3114 23.3667 18.3239 23.431 18.3559 23.4863C18.3879 23.5415 18.4374 23.5845 18.4966 23.6083L19.7096 24.1C19.9059 24.1801 20.0843 24.2985 20.2342 24.4485C20.3841 24.5984 20.5026 24.7767 20.5827 24.9731L21.0743 26.1867C21.0985 26.2455 21.1414 26.2947 21.1964 26.3265C21.2515 26.3583 21.3155 26.371 21.3786 26.3625L22.6758 26.1828C22.7471 26.1719 22.8191 26.1658 22.8912 26.1646Z" fill="#E25730"/>
<path d="M25.0765 28.6613C24.7239 28.6613 24.3815 28.5435 24.1035 28.3266L23.0689 27.5216C23.0073 27.4764 22.9309 27.456 22.8549 27.4645L21.5576 27.6449C21.2081 27.6947 20.8521 27.626 20.5463 27.4496C20.2406 27.2732 20.0028 26.9994 19.8711 26.6719L19.3801 25.4596C19.3659 25.4233 19.3445 25.3903 19.3173 25.3624C19.2902 25.3346 19.2577 25.3125 19.2218 25.2974L18.0095 24.8064C17.6823 24.6743 17.4087 24.4364 17.2324 24.1308C17.056 23.8251 16.9871 23.4693 17.0365 23.1199L17.2162 21.8226C17.2216 21.7848 17.2193 21.7462 17.2094 21.7093C17.1995 21.6724 17.1821 21.6379 17.1584 21.6079L16.3535 20.57C16.1364 20.2921 16.0186 19.9497 16.0186 19.5971C16.0186 19.2445 16.1364 18.902 16.3535 18.6241L17.1571 17.5863C17.1808 17.5561 17.1982 17.5215 17.2082 17.4845C17.2182 17.4475 17.2207 17.4089 17.2155 17.3709L17.0359 16.0736C16.9864 15.7242 17.0554 15.3683 17.2317 15.0627C17.4081 14.7571 17.6816 14.5192 18.0088 14.3871L19.2218 13.8954C19.2574 13.8812 19.2897 13.8599 19.3168 13.8328C19.3439 13.8057 19.3652 13.7734 19.3794 13.7378L19.8711 12.5249C20.003 12.1975 20.2408 11.9238 20.5465 11.7474C20.8522 11.5711 21.2082 11.5022 21.5576 11.5519L22.8549 11.7322C22.8929 11.7375 22.9315 11.7351 22.9685 11.725C23.0055 11.715 23.0401 11.6976 23.0702 11.6738L24.1042 10.8695C24.3823 10.6529 24.7247 10.5353 25.0771 10.5353C25.4296 10.5353 25.772 10.6529 26.0501 10.8695L27.0847 11.6745C27.1149 11.6981 27.1495 11.7154 27.1865 11.7253C27.2235 11.7353 27.2621 11.7376 27.3001 11.7322L28.5974 11.5519C28.9468 11.5025 29.3026 11.5714 29.6083 11.7477C29.9139 11.9241 30.1517 12.1976 30.2838 12.5249L30.7749 13.7378C30.7894 13.7735 30.811 13.8059 30.8383 13.8331C30.8656 13.8603 30.8981 13.8817 30.9338 13.8961L32.1461 14.3871C32.4731 14.5195 32.7465 14.7574 32.9228 15.063C33.0991 15.3685 33.1682 15.7243 33.1191 16.0736L32.9388 17.3709C32.9288 17.4473 32.9496 17.5245 32.9965 17.5856L33.8008 18.6234C34.0182 18.9012 34.1363 19.2437 34.1363 19.5964C34.1363 19.9491 34.0182 20.2916 33.8008 20.5694L32.9958 21.604C32.9493 21.6652 32.9288 21.7424 32.9388 21.8187L33.1191 23.116C33.1682 23.4653 33.0991 23.8211 32.9228 24.1266C32.7465 24.4322 32.4731 24.6701 32.1461 24.8025L30.9306 25.2974C30.8949 25.3119 30.8625 25.3334 30.8352 25.3606C30.8079 25.3877 30.7863 25.4201 30.7716 25.4557L30.2813 26.668C30.1489 26.995 29.911 27.2683 29.6054 27.4446C29.2998 27.6209 28.9441 27.69 28.5948 27.641L27.2975 27.4606C27.2209 27.4508 27.1435 27.4715 27.0821 27.5184L26.0482 28.3227C25.7712 28.5409 25.4291 28.66 25.0765 28.6613ZM22.8912 26.1646C23.2433 26.1652 23.5854 26.2822 23.8642 26.4974L24.902 27.303C24.9523 27.3419 25.0142 27.3631 25.0778 27.3631C25.1414 27.3631 25.2032 27.3419 25.2536 27.303L26.2875 26.498C26.4549 26.3685 26.6465 26.2736 26.8509 26.2189C27.0554 26.1643 27.2687 26.1509 27.4784 26.1796L28.7757 26.3592C28.839 26.3697 28.904 26.3579 28.9596 26.3258C29.0152 26.2938 29.0579 26.2435 29.0806 26.1834L29.5716 24.9705C29.6518 24.7739 29.7704 24.5953 29.9205 24.4453C30.0707 24.2952 30.2494 24.1767 30.446 24.0967L31.659 23.6057C31.7181 23.5818 31.7675 23.5387 31.7993 23.4835C31.8312 23.4283 31.8436 23.364 31.8348 23.3009L31.6551 22.0036C31.6263 21.7942 31.6396 21.5813 31.694 21.3771C31.7485 21.173 31.8431 20.9818 31.9723 20.8146L32.7779 19.7767C32.817 19.7266 32.8382 19.6649 32.8382 19.6013C32.8382 19.5377 32.817 19.476 32.7779 19.4258L31.9736 18.388C31.8443 18.2214 31.7495 18.0308 31.6946 17.8272C31.6397 17.6237 31.6258 17.4112 31.6538 17.2023L31.8335 15.905C31.8423 15.8418 31.8299 15.7775 31.798 15.7223C31.7662 15.6671 31.7168 15.6241 31.6577 15.6001L30.4447 15.1084C30.2482 15.0285 30.0696 14.9101 29.9196 14.7602C29.7695 14.6103 29.651 14.4318 29.571 14.2353L29.0793 13.0224C29.0558 12.9629 29.013 12.9131 28.9576 12.881C28.9023 12.849 28.8377 12.8366 28.7744 12.8459L27.4771 13.0263C27.2676 13.055 27.0545 13.0416 26.8502 12.9869C26.646 12.9322 26.4547 12.8373 26.2875 12.7078L25.2497 11.9028C25.1995 11.8636 25.1376 11.8422 25.0739 11.8422C25.0102 11.8422 24.9483 11.8636 24.8981 11.9028L23.8603 12.7071C23.6928 12.8361 23.5015 12.9308 23.2973 12.9855C23.0932 13.0403 22.8802 13.0541 22.6707 13.0263L21.3734 12.8459C21.3102 12.8373 21.2459 12.85 21.1907 12.882C21.1355 12.9139 21.0925 12.9633 21.0685 13.0224L20.5768 14.2353C20.4968 14.4317 20.3784 14.6101 20.2285 14.7601C20.0785 14.91 19.9001 15.0284 19.7037 15.1084L18.4908 15.5994C18.4317 15.6235 18.3823 15.6665 18.3504 15.7217C18.3184 15.7769 18.3057 15.8411 18.3143 15.9043L18.4947 17.2016C18.5233 17.4113 18.5098 17.6246 18.4549 17.829C18.4 18.0334 18.3048 18.2248 18.1749 18.3919L17.377 19.4271C17.3378 19.4773 17.3165 19.5392 17.3165 19.6029C17.3165 19.6666 17.3378 19.7285 17.377 19.7787L18.182 20.8165C18.3115 20.9837 18.4063 21.175 18.461 21.3793C18.5157 21.5835 18.5291 21.7966 18.5005 22.0061L18.3202 23.3034C18.3114 23.3667 18.3239 23.431 18.3559 23.4863C18.3879 23.5415 18.4374 23.5845 18.4966 23.6083L19.7096 24.1C19.9059 24.1801 20.0843 24.2985 20.2342 24.4485C20.3841 24.5984 20.5026 24.7767 20.5827 24.9731L21.0743 26.1867C21.0985 26.2455 21.1414 26.2947 21.1964 26.3265C21.2515 26.3583 21.3155 26.371 21.3786 26.3625L22.6758 26.1828C22.7471 26.1719 22.8191 26.1658 22.8912 26.1646Z" fill="#E25730"/>
<path d="M22.7755 23.7924C22.6811 23.7924 22.5878 23.7717 22.5022 23.7319C22.4166 23.692 22.3407 23.634 22.2799 23.5618C22.219 23.4895 22.1747 23.4049 22.15 23.3138C22.1252 23.2227 22.1207 23.1272 22.1366 23.0342L22.518 20.808L20.9009 19.2311C20.8153 19.1465 20.755 19.0398 20.7266 18.9228C20.6982 18.8058 20.7029 18.6833 20.7402 18.5689C20.7775 18.4544 20.8459 18.3526 20.9378 18.2749C21.0296 18.1971 21.1413 18.1464 21.2603 18.1284L23.4955 17.8041L24.4951 15.779C24.5548 15.6779 24.6398 15.5941 24.7418 15.5359C24.8438 15.4776 24.9592 15.447 25.0766 15.447C25.194 15.447 25.3094 15.4776 25.4114 15.5359C25.5134 15.5941 25.5984 15.6779 25.6581 15.779L26.6596 17.8002L28.8942 18.1245C29.0141 18.1418 29.1267 18.1924 29.2194 18.2703C29.312 18.3483 29.3809 18.4507 29.4184 18.5659C29.4559 18.681 29.4604 18.8044 29.4313 18.922C29.4023 19.0395 29.341 19.1466 29.2542 19.2311L27.6326 20.808L28.014 23.0342C28.0344 23.1534 28.021 23.2759 27.9754 23.3879C27.9298 23.4999 27.8538 23.5969 27.756 23.668C27.6582 23.7391 27.5425 23.7815 27.4218 23.7903C27.3012 23.7991 27.1806 23.774 27.0735 23.7178L25.0737 22.667L23.0752 23.7178C22.9828 23.7665 22.88 23.7921 22.7755 23.7924ZM25.0763 21.2854C25.1814 21.2855 25.2849 21.3111 25.3779 21.36L26.5163 21.9587L26.299 20.6919C26.2812 20.5883 26.2888 20.4819 26.3212 20.3819C26.3537 20.2819 26.4099 20.1913 26.4852 20.1178L27.4062 19.2208L26.1342 19.0359C26.0302 19.0208 25.9313 18.9806 25.8462 18.9188C25.7611 18.857 25.6923 18.7754 25.6458 18.6811L25.0763 17.5278L24.5074 18.6811C24.461 18.7755 24.3922 18.8572 24.3071 18.9191C24.222 18.9811 24.1231 19.0214 24.019 19.0365L22.747 19.2214L23.6674 20.1185C23.7426 20.1919 23.7989 20.2826 23.8313 20.3826C23.8638 20.4826 23.8714 20.5889 23.8536 20.6925L23.6369 21.96L24.774 21.3613C24.8672 21.3121 24.9709 21.2861 25.0763 21.2854ZM8.72385 10.1838H1.6672C1.49517 10.1838 1.33018 10.1154 1.20854 9.9938C1.08689 9.87216 1.01855 9.70717 1.01855 9.53514V5.54919C1.03225 4.45041 1.47835 3.40127 2.26019 2.62911C3.04204 1.85694 4.09666 1.42395 5.19553 1.42395C6.2944 1.42395 7.34902 1.85694 8.13086 2.62911C8.91271 3.40127 9.35881 4.45041 9.3725 5.54919V9.53514C9.3725 9.70717 9.30416 9.87216 9.18252 9.9938C9.06087 10.1154 8.89588 10.1838 8.72385 10.1838ZM2.31585 8.88649H8.0752V5.54919C8.06385 4.79294 7.75547 4.07151 7.21666 3.54072C6.67785 3.00994 5.95187 2.71242 5.19553 2.71242C4.43919 2.71242 3.71321 3.00994 3.1744 3.54072C2.63559 4.07151 2.3272 4.79294 2.31585 5.54919V8.88649Z" fill="#E25730"/>
</svg>
