<svg width="48" height="48" viewBox="0 0 48 48" fill="none" xmlns="http://www.w3.org/2000/svg">
<path d="M31.9014 22.6268H16.0977C15.9257 22.6268 15.7607 22.5585 15.6391 22.4368C15.5174 22.3152 15.4491 22.1502 15.4491 21.9782V19.8785C15.4508 18.334 16.0652 16.8533 17.1576 15.7614C18.2499 14.6694 19.7308 14.0555 21.2753 14.0543H26.7239C28.2679 14.0562 29.7482 14.6704 30.8399 15.7623C31.9317 16.8541 32.5458 18.3345 32.5475 19.8785V21.9782C32.5475 22.1497 32.4795 22.3143 32.3584 22.4359C32.2373 22.5575 32.073 22.6261 31.9014 22.6268ZM16.7464 21.3295H31.2528V19.8785C31.2516 18.6779 30.774 17.5269 29.9248 16.6781C29.0757 15.8294 27.9245 15.3523 26.7239 15.3516H21.2753C20.0751 15.3529 18.9245 15.8303 18.076 16.679C17.2274 17.5277 16.7502 18.6784 16.749 19.8785L16.7464 21.3295ZM23.9996 12.914C23.1087 12.9141 22.2378 12.65 21.497 12.1552C20.7562 11.6603 20.1788 10.9569 19.8378 10.1339C19.4967 9.31085 19.4075 8.40518 19.5812 7.5314C19.7549 6.65763 20.1838 5.85499 20.8137 5.225C21.4436 4.59501 22.2462 4.16596 23.12 3.99211C23.9937 3.81827 24.8994 3.90743 25.7225 4.24832C26.5455 4.58921 27.249 5.16653 27.744 5.90726C28.239 6.64799 28.5031 7.51886 28.5031 8.40974C28.5019 9.60385 28.0271 10.7487 27.1828 11.5931C26.3385 12.4376 25.1937 12.9126 23.9996 12.914ZM23.9996 5.20347C23.3653 5.20334 22.7451 5.39133 22.2177 5.74366C21.6902 6.09599 21.2791 6.59684 21.0362 7.18285C20.7934 7.76886 20.7299 8.41372 20.8536 9.03586C20.9773 9.65801 21.2828 10.2295 21.7313 10.678C22.1798 11.1266 22.7513 11.432 23.3734 11.5557C23.9956 11.6794 24.6404 11.6159 25.2265 11.3731C25.8125 11.1303 26.3133 10.7191 26.6657 10.1916C27.018 9.66417 27.206 9.04406 27.2059 8.40974C27.2048 7.5597 26.8667 6.74477 26.2656 6.1437C25.6645 5.54263 24.8496 5.2045 23.9996 5.20347ZM14.253 44.0938H1.94552C1.77349 44.0938 1.6085 44.0255 1.48686 43.9039C1.36521 43.7822 1.29688 43.6172 1.29688 43.4452V41.81C1.29842 40.5696 1.79185 39.3804 2.66894 38.5033C3.54603 37.6262 4.73518 37.1328 5.97558 37.1312H10.2223C11.4628 37.1326 12.6521 37.626 13.5293 38.5031C14.4066 39.3802 14.9001 40.5694 14.9016 41.81V43.4452C14.9016 43.6172 14.8333 43.7822 14.7116 43.9039C14.59 44.0255 14.425 44.0938 14.253 44.0938ZM2.59417 42.7965H13.6043V41.81C13.6031 40.9134 13.2464 40.0539 12.6124 39.42C11.9784 38.7861 11.1188 38.4296 10.2223 38.4285H5.97558C5.07909 38.4296 4.21961 38.7862 3.5857 39.4201C2.95179 40.054 2.5952 40.9135 2.59417 41.81V42.7965ZM8.09925 36.53C7.37708 36.5301 6.67108 36.316 6.07055 35.9149C5.47003 35.5138 5.00194 34.9436 4.72548 34.2764C4.44903 33.6093 4.37663 32.8751 4.51744 32.1668C4.65825 31.4585 5.00595 30.8078 5.51656 30.2971C6.02717 29.7864 6.67775 29.4386 7.38604 29.2977C8.09433 29.1567 8.82851 29.229 9.49573 29.5053C10.1629 29.7817 10.7332 30.2497 11.1345 30.8501C11.5357 31.4506 11.7498 32.1565 11.7498 32.8787C11.7488 33.8466 11.3639 34.7747 10.6795 35.4592C9.99514 36.1437 9.0672 36.5288 8.09925 36.53ZM8.09925 30.5254C7.63363 30.5253 7.17843 30.6632 6.79123 30.9219C6.40402 31.1805 6.10221 31.5481 5.92397 31.9782C5.74572 32.4084 5.69905 32.8817 5.78986 33.3384C5.88066 33.7951 6.10487 34.2146 6.43411 34.5438C6.76336 34.8731 7.18285 35.0973 7.63953 35.1881C8.09621 35.2789 8.56957 35.2322 8.99972 35.054C9.42987 34.8758 9.7975 34.5739 10.0561 34.1867C10.3147 33.7995 10.4527 33.3443 10.4526 32.8787C10.4517 32.2548 10.2035 31.6568 9.76234 31.2156C9.3212 30.7745 8.72312 30.5263 8.09925 30.5254ZM30.1533 44.0938H17.8458C17.6738 44.0938 17.5088 44.0255 17.3872 43.9039C17.2655 43.7822 17.1972 43.6172 17.1972 43.4452V41.81C17.1987 40.5694 17.6923 39.3802 18.5695 38.5031C19.4467 37.626 20.636 37.1326 21.8766 37.1312H26.1226C27.3631 37.1326 28.5524 37.626 29.4297 38.5031C30.3069 39.3802 30.8004 40.5694 30.802 41.81V43.4452C30.802 43.6172 30.7336 43.7822 30.612 43.9039C30.4903 44.0255 30.3253 44.0938 30.1533 44.0938ZM18.4945 42.7965H29.5047V41.81C29.5035 40.9134 29.1467 40.0539 28.5127 39.42C27.8787 38.7861 27.0192 38.4296 26.1226 38.4285H21.8766C20.98 38.4296 20.1205 38.7861 19.4864 39.42C18.8524 40.0539 18.4957 40.9134 18.4945 41.81V42.7965ZM23.9996 36.53C23.2774 36.5301 22.5714 36.316 21.9709 35.9149C21.3703 35.5138 20.9023 34.9436 20.6258 34.2764C20.3494 33.6093 20.277 32.8751 20.4178 32.1668C20.5586 31.4585 20.9063 30.8078 21.4169 30.2971C21.9275 29.7864 22.5781 29.4386 23.2864 29.2977C23.9947 29.1567 24.7288 29.229 25.396 29.5053C26.0633 29.7817 26.6336 30.2497 27.0348 30.8501C27.436 31.4506 27.6502 32.1565 27.6502 32.8787C27.6493 33.8467 27.2644 34.7748 26.58 35.4593C25.8956 36.1439 24.9676 36.5289 23.9996 36.53ZM23.9996 30.5254C23.534 30.5253 23.0788 30.6632 22.6916 30.9219C22.3043 31.1805 22.0025 31.5481 21.8243 31.9782C21.646 32.4084 21.5994 32.8817 21.6902 33.3384C21.781 33.7951 22.0052 34.2146 22.3344 34.5438C22.6637 34.8731 23.0832 35.0973 23.5399 35.1881C23.9965 35.2789 24.4699 35.2322 24.9 35.054C25.3302 34.8758 25.6978 34.5739 25.9564 34.1867C26.215 33.7995 26.353 33.3443 26.3529 32.8787C26.352 32.2548 26.1038 31.6568 25.6627 31.2156C25.2215 30.7745 24.6234 30.5263 23.9996 30.5254ZM46.0536 44.0938H33.7462C33.5741 44.0938 33.4092 44.0255 33.2875 43.9039C33.1659 43.7822 33.0975 43.6172 33.0975 43.4452V41.81C33.0991 40.5694 33.5926 39.3802 34.4698 38.5031C35.3471 37.626 36.5364 37.1326 37.7769 37.1312H42.0236C43.264 37.1328 44.4531 37.6262 45.3302 38.5033C46.2073 39.3804 46.7007 40.5696 46.7023 41.81V43.4452C46.7023 43.6172 46.6339 43.7822 46.5123 43.9039C46.3907 44.0255 46.2257 44.0938 46.0536 44.0938ZM34.3948 42.7965H45.405V41.81C45.404 40.9135 45.0474 40.054 44.4135 39.4201C43.7795 38.7862 42.9201 38.4296 42.0236 38.4285H37.7769C36.8803 38.4296 36.0208 38.7861 35.3868 39.42C34.7528 40.0539 34.396 40.9134 34.3948 41.81V42.7965ZM39.8999 36.53C39.1778 36.53 38.4718 36.3158 37.8714 35.9146C37.2709 35.5134 36.8029 34.9432 36.5266 34.276C36.2502 33.6088 36.1779 32.8747 36.3188 32.1664C36.4597 31.4581 36.8074 30.8075 37.3181 30.2969C37.8287 29.7863 38.4793 29.4385 39.1876 29.2976C39.8959 29.1567 40.63 29.229 41.2972 29.5054C41.9644 29.7818 42.5346 30.2497 42.9358 30.8502C43.337 31.4506 43.5511 32.1566 43.5511 32.8787C43.5501 33.8468 43.1651 34.7749 42.4806 35.4594C41.7961 36.1439 40.868 36.5289 39.8999 36.53ZM39.8999 30.5254C39.4343 30.5254 38.9792 30.6635 38.5921 30.9222C38.2049 31.1809 37.9032 31.5485 37.7251 31.9787C37.5469 32.4089 37.5004 32.8822 37.5912 33.3388C37.6821 33.7955 37.9064 34.2149 38.2356 34.5441C38.5649 34.8733 38.9844 35.0974 39.4411 35.1882C39.8977 35.2789 40.3711 35.2322 40.8012 35.0539C41.2313 34.8757 41.5989 34.5739 41.8575 34.1867C42.116 33.7995 42.254 33.3443 42.2538 32.8787C42.253 32.2547 42.0047 31.6566 41.5634 31.2154C41.1221 30.7742 40.5239 30.5261 39.8999 30.5254Z" fill="#E25730"/>
<path d="M39.8995 30.5254C39.7275 30.5254 39.5625 30.457 39.4408 30.3354C39.3192 30.2137 39.2508 30.0487 39.2508 29.8767V27.8659C39.2507 27.5496 39.1249 27.2463 38.9013 27.0226C38.6776 26.7989 38.3743 26.6732 38.058 26.673H9.94036C9.62404 26.6732 9.32073 26.7989 9.09706 27.0226C8.8734 27.2463 8.74766 27.5496 8.74749 27.8659V29.8767C8.74749 30.0487 8.67915 30.2137 8.55751 30.3354C8.43586 30.457 8.27088 30.5254 8.09884 30.5254C7.92681 30.5254 7.76182 30.457 7.64018 30.3354C7.51853 30.2137 7.4502 30.0487 7.4502 29.8767V27.8659C7.45088 27.2057 7.71346 26.5727 8.18031 26.1058C8.64715 25.639 9.28014 25.3764 9.94036 25.3757H38.058C38.7182 25.3764 39.3512 25.639 39.818 26.1058C40.2849 26.5727 40.5475 27.2057 40.5481 27.8659V29.8767C40.5481 30.0487 40.4798 30.2137 40.3582 30.3354C40.2365 30.457 40.0715 30.5254 39.8995 30.5254Z" fill="#E25730"/>
<path d="M23.9992 30.5254C23.8272 30.5254 23.6622 30.457 23.5406 30.3354C23.4189 30.2137 23.3506 30.0487 23.3506 29.8767V21.9781C23.3506 21.8061 23.4189 21.6411 23.5406 21.5195C23.6622 21.3978 23.8272 21.3295 23.9992 21.3295C24.1713 21.3295 24.3363 21.3978 24.4579 21.5195C24.5795 21.6411 24.6479 21.8061 24.6479 21.9781V29.8767C24.6479 30.0487 24.5795 30.2137 24.4579 30.3354C24.3363 30.457 24.1713 30.5254 23.9992 30.5254Z" fill="#E25730"/>
</svg>
