<svg width="48" height="48" viewBox="0 0 48 48" fill="none" xmlns="http://www.w3.org/2000/svg">
<path d="M23.9997 46.7027C18.6667 46.7027 13.5521 44.5841 9.78113 40.8131C6.01013 37.0421 3.8916 31.9276 3.8916 26.5946C3.8916 21.2616 6.01013 16.147 9.78113 12.376C13.5521 8.60498 18.6667 6.48645 23.9997 6.48645C25.0131 6.48615 26.0251 6.56466 27.0263 6.72126C27.1105 6.73455 27.1912 6.76428 27.2639 6.80877C27.3365 6.85325 27.3997 6.91161 27.4498 6.98052C27.4999 7.04942 27.536 7.12753 27.5559 7.21036C27.5759 7.2932 27.5793 7.37916 27.566 7.46332C27.5527 7.54748 27.523 7.62819 27.4785 7.70086C27.434 7.77353 27.3756 7.83672 27.3067 7.88684C27.2378 7.93695 27.1597 7.973 27.0769 7.99293C26.994 8.01286 26.9081 8.01628 26.8239 8.00299C25.8896 7.85673 24.9454 7.78343 23.9997 7.78375C19.6924 7.78012 15.5141 9.25337 12.1617 11.9578C8.80928 14.6622 6.48541 18.4342 5.57771 22.6448C4.67001 26.8553 5.23335 31.2498 7.17378 35.0952C9.11421 38.9406 12.3144 42.0045 16.2406 43.7758C20.1668 45.5472 24.5816 45.9188 28.7487 44.8288C32.9157 43.7388 36.5831 41.2531 39.1392 37.7862C41.6952 34.3193 42.9853 30.0809 42.7943 25.7778C42.6033 21.4748 40.9428 17.3673 38.0897 14.1405C37.9776 14.0139 37.9184 13.8492 37.9242 13.6802C37.93 13.5113 38.0004 13.351 38.1208 13.2324C38.2404 13.1156 38.4011 13.0506 38.5682 13.0513C38.7353 13.052 38.8954 13.1185 39.014 13.2363L39.0334 13.2557C41.6026 16.1539 43.2802 19.7324 43.8644 23.5611C44.4487 27.3898 43.9148 31.3057 42.327 34.8383C40.7392 38.3709 38.165 41.3697 34.9138 43.4744C31.6626 45.5791 27.8727 46.7001 23.9997 46.7027Z" fill="#E25730"/>
<path d="M38.5813 14.3611H38.5748C38.403 14.3602 38.2386 14.2913 38.1176 14.1694C37.9966 14.0475 37.9289 13.8825 37.9294 13.7108C37.9298 13.539 37.9983 13.3745 38.1199 13.2532C38.2415 13.1319 38.4063 13.0638 38.578 13.0638C38.7498 13.0638 38.9145 13.1319 39.0361 13.2532C39.1577 13.3745 39.2262 13.539 39.2267 13.7108C39.2271 13.8825 39.1594 14.0475 39.0384 14.1694C38.9174 14.2913 38.753 14.3602 38.5813 14.3611ZM23.9996 17.8443C21.1735 17.8529 18.3577 17.5042 15.6191 16.8065C15.5909 16.7991 15.5631 16.79 15.5361 16.7792C13.3094 16.2152 11.1601 15.3811 9.13585 14.2955C9.00375 14.2316 8.89726 14.1247 8.83377 13.9924C8.77028 13.86 8.75354 13.7101 8.7863 13.567C8.81906 13.4239 8.89936 13.2962 9.01411 13.2047C9.12885 13.1131 9.27124 13.0632 9.41801 13.0631C9.52792 13.0631 9.63615 13.0901 9.73325 13.1416C11.6951 14.1956 13.7802 15.0018 15.9408 15.5416C15.9702 15.549 15.9991 15.5585 16.0271 15.5701C20.6498 16.7162 25.465 16.8538 30.1456 15.9736C30.2293 15.9578 30.3153 15.9587 30.3987 15.9762C30.4821 15.9937 30.5612 16.0274 30.6316 16.0755C30.7019 16.1236 30.7621 16.185 30.8087 16.2563C30.8553 16.3277 30.8874 16.4075 30.9032 16.4912C30.919 16.575 30.9181 16.661 30.9006 16.7444C30.8831 16.8278 30.8494 16.9069 30.8013 16.9772C30.7532 17.0476 30.6918 17.1078 30.6205 17.1544C30.5491 17.201 30.4693 17.2331 30.3856 17.2488C28.2799 17.6445 26.1421 17.8438 23.9996 17.8443ZM38.5819 40.1267C38.4746 40.1266 38.3689 40.0998 38.2744 40.0488C33.8703 37.7524 28.9662 36.5816 23.9996 36.6408C19.033 36.5816 14.129 37.7524 9.72482 40.0488C9.57343 40.1306 9.39575 40.149 9.23086 40.0998C9.06597 40.0505 8.92738 39.9379 8.84558 39.7865C8.76378 39.6351 8.74547 39.4574 8.79467 39.2925C8.84388 39.1276 8.95657 38.989 9.10796 38.9072C13.7016 36.5085 18.8177 35.2842 23.9996 35.3435C29.1816 35.2842 34.2976 36.5085 38.8913 38.9072C39.0185 38.9758 39.1191 39.085 39.1772 39.2173C39.2352 39.3496 39.2475 39.4975 39.2119 39.6376C39.1764 39.7776 39.0951 39.9018 38.981 39.9904C38.8669 40.079 38.7264 40.127 38.5819 40.1267Z" fill="#E25730"/>
<path d="M23.9995 46.7027C20.3547 46.7027 17.0512 43.1559 15.163 37.2149C15.1578 37.1991 15.1533 37.183 15.1493 37.1669C14.1095 33.7401 13.5942 30.1756 13.6211 26.5946C13.5942 23.0132 14.1099 19.4485 15.1506 16.0216C15.1506 16.006 15.1584 15.9911 15.163 15.9762C17.0512 10.0333 20.3547 6.48645 23.9995 6.48645C24.1715 6.48645 24.3365 6.55479 24.4582 6.67644C24.5798 6.79808 24.6481 6.96307 24.6481 7.1351C24.6481 7.30713 24.5798 7.47212 24.4582 7.59376C24.3365 7.71541 24.1715 7.78375 23.9995 7.78375C21.0014 7.78375 18.0968 11.0568 16.4103 16.3284C16.4066 16.3438 16.4025 16.3592 16.398 16.3745C15.3894 19.6864 14.8905 23.1325 14.9184 26.5946C14.8909 30.0566 15.3903 33.5028 16.3993 36.8147C16.4045 36.8309 16.4084 36.8471 16.4123 36.8633C18.0968 42.1336 21.0021 45.4054 23.9995 45.4054C26.9969 45.4054 29.9022 42.1323 31.5887 36.8607C31.5924 36.8453 31.5965 36.8299 31.601 36.8147C32.6096 33.5027 33.1085 30.0566 33.0806 26.5946C33.0835 24.7902 32.9535 22.9882 32.6914 21.203C32.6868 21.1701 32.6844 21.137 32.6843 21.1037C32.6836 20.9738 32.7219 20.8467 32.7943 20.7388C32.8667 20.631 32.9699 20.5473 33.0904 20.4988C33.2109 20.4502 33.3432 20.4389 33.4701 20.4664C33.5971 20.4939 33.7129 20.5589 33.8025 20.6529C33.9081 20.7641 33.9717 20.9086 33.9822 21.0616C34.2486 22.8938 34.3808 24.7431 34.3779 26.5946C34.4048 30.1759 33.8891 33.7406 32.8484 37.1675C32.8451 37.1831 32.8406 37.198 32.836 37.2129C30.9478 43.1559 27.6443 46.7027 23.9995 46.7027Z" fill="#E25730"/>
<path d="M23.9992 46.7027C23.8272 46.7027 23.6622 46.6343 23.5406 46.5127C23.4189 46.391 23.3506 46.2261 23.3506 46.054V7.1351C23.3506 6.96307 23.4189 6.79808 23.5406 6.67644C23.6622 6.55479 23.8272 6.48645 23.9992 6.48645C24.1713 6.48645 24.3363 6.55479 24.4579 6.67644C24.5795 6.79808 24.6479 6.96307 24.6479 7.1351V46.054C24.6479 46.2261 24.5795 46.391 24.4579 46.5127C24.3363 46.6343 24.1713 46.7027 23.9992 46.7027Z" fill="#E25730"/>
<path d="M43.4592 27.2432H4.54025C4.36822 27.2432 4.20323 27.1748 4.08159 27.0532C3.95994 26.9316 3.8916 26.7666 3.8916 26.5945C3.8916 26.4225 3.95994 26.2575 4.08159 26.1359C4.20323 26.0142 4.36822 25.9459 4.54025 25.9459H43.4592C43.6312 25.9459 43.7962 26.0142 43.9178 26.1359C44.0395 26.2575 44.1078 26.4225 44.1078 26.5945C44.1078 26.7666 44.0395 26.9316 43.9178 27.0532C43.7962 27.1748 43.6312 27.2432 43.4592 27.2432ZM33.5601 22.054C33.4594 22.054 33.3601 22.0306 33.2701 21.9855C33.18 21.9405 33.1016 21.8751 33.0412 21.7945C32.761 21.4242 26.1403 12.6252 26.1403 8.71454C26.1403 6.74735 26.9217 4.86073 28.3127 3.46972C29.7037 2.0787 31.5904 1.29724 33.5575 1.29724C35.5247 1.29724 37.4114 2.0787 38.8024 3.46972C40.1934 4.86073 40.9748 6.74735 40.9748 8.71454C40.9748 12.6252 34.3586 21.4242 34.0752 21.7965C34.0149 21.8762 33.9371 21.9409 33.8478 21.9855C33.7585 22.0302 33.66 22.0536 33.5601 22.054ZM33.5601 2.59454C31.9371 2.59574 30.3809 3.24083 29.2331 4.38822C28.0852 5.5356 27.4394 7.09154 27.4375 8.71454C27.4375 11.361 31.465 17.4402 33.5575 20.3156C35.6501 17.4402 39.6775 11.3643 39.6775 8.71454C39.6757 7.09244 39.0306 5.53729 37.8839 4.39005C36.7371 3.24281 35.1822 2.59711 33.5601 2.59454Z" fill="#E25730"/>
<path d="M33.5605 13.2207C32.7051 13.2207 31.8689 12.967 31.1576 12.4918C30.4463 12.0165 29.892 11.341 29.5646 10.5507C29.2372 9.76036 29.1516 8.89071 29.3185 8.0517C29.4853 7.2127 29.8973 6.44202 30.5022 5.83713C31.1071 5.23224 31.8777 4.82031 32.7167 4.65342C33.5557 4.48653 34.4254 4.57219 35.2157 4.89955C36.006 5.22691 36.6816 5.78128 37.1568 6.49256C37.6321 7.20383 37.8857 8.04006 37.8857 8.8955C37.8844 10.0422 37.4282 11.1415 36.6174 11.9524C35.8066 12.7632 34.7072 13.2193 33.5605 13.2207ZM33.5605 5.86761C32.9617 5.86761 32.3763 6.04519 31.8783 6.3779C31.3804 6.71061 30.9923 7.1835 30.7631 7.73678C30.534 8.29005 30.474 8.89886 30.5908 9.48622C30.7077 10.0736 30.996 10.6131 31.4195 11.0365C31.843 11.46 32.3825 11.7484 32.9698 11.8652C33.5572 11.982 34.166 11.9221 34.7193 11.6929C35.2725 11.4637 35.7454 11.0756 36.0781 10.5777C36.4109 10.0798 36.5884 9.49436 36.5884 8.8955C36.5872 8.09283 36.2678 7.32337 35.7003 6.75579C35.1327 6.18821 34.3632 5.86881 33.5605 5.86761Z" fill="#E25730"/>
</svg>
