<svg width="17" height="17" viewBox="0 0 17 17" fill="none" xmlns="http://www.w3.org/2000/svg">
<path d="M14.5503 2.50354C13.1238 1.07295 11.2286 0.195251 9.20676 0.0288916C7.18492 -0.137468 5.16972 0.41848 3.525 1.59636C1.88027 2.77425 0.714408 4.49644 0.237896 6.45202C-0.238617 8.40759 0.00562384 10.4677 0.926521 12.2603L0.0242834 16.6041C0.0146227 16.6475 0.0142484 16.6924 0.0231846 16.736C0.0321208 16.7795 0.0501686 16.8207 0.0761619 16.8569C0.113387 16.9117 0.166597 16.9539 0.228673 16.9779C0.29075 17.0019 0.358732 17.0065 0.423524 16.9911L4.70915 15.9823C6.51194 16.8716 8.57444 17.0976 10.5296 16.6202C12.4847 16.1428 14.2055 14.993 15.3858 13.3753C16.5661 11.7576 17.1292 9.77709 16.975 7.78626C16.8208 5.79542 15.9592 3.92345 14.5435 2.50354H14.5503ZM13.2105 13.0991C12.2239 14.0757 10.9536 14.7211 9.57794 14.9446C8.20233 15.168 6.79068 14.9584 5.54147 14.345L4.94148 14.0497L2.3092 14.6671V14.6335L2.86408 12.0009L2.57085 11.4282C1.93211 10.1861 1.70659 8.77524 1.92663 7.3981C2.14667 6.02096 2.80097 4.74834 3.79564 3.76284C5.04457 2.52561 6.73772 1.83066 8.50306 1.83066C10.2684 1.83066 11.9616 2.52561 13.2105 3.76284L13.2398 3.8031C14.4725 5.04426 15.1607 6.71821 15.1543 8.46025C15.148 10.2023 14.4477 11.8713 13.206 13.1036L13.2105 13.0991Z" fill="white"/>
<path d="M12.8969 11.5007C12.5695 12.0555 12.0497 12.7336 11.4017 12.9037C10.2568 13.1996 8.51425 12.9037 6.33207 10.7314L6.30459 10.7043C4.40634 8.79588 3.90259 7.20552 4.01479 5.94556C4.08119 5.22804 4.63532 4.58204 5.10244 4.15794C5.17671 4.09051 5.2646 4.04272 5.35908 4.01839C5.45356 3.99406 5.55202 3.99387 5.64658 4.01783C5.74115 4.04179 5.82919 4.08923 5.90369 4.15637C5.97818 4.22352 6.03706 4.30849 6.07561 4.40451L6.77858 6.11569C6.82447 6.22584 6.84168 6.34735 6.82837 6.46723C6.81506 6.5871 6.77173 6.70082 6.70302 6.79622L6.34581 7.28935C6.27156 7.39172 6.22733 7.51559 6.21877 7.64515C6.2102 7.7747 6.23769 7.90407 6.29772 8.01673C6.63703 8.55524 7.04302 9.04136 7.50445 9.46162C8.00091 9.9761 8.56394 10.4105 9.17601 10.7512C9.28772 10.7996 9.4103 10.8112 9.52815 10.7844C9.646 10.7577 9.75377 10.6937 9.83776 10.6008L10.2476 10.152C10.3256 10.0617 10.4253 9.99639 10.5356 9.96332C10.646 9.93024 10.7626 9.93069 10.8728 9.96461L12.5443 10.4799C12.639 10.509 12.7261 10.5616 12.7984 10.6336C12.8707 10.7055 12.9263 10.7948 12.9606 10.8942C12.995 10.9936 13.0071 11.1003 12.996 11.2057C12.985 11.311 12.951 11.4121 12.8969 11.5007Z" fill="white"/>
</svg>
