<svg width="40" height="40" viewBox="0 0 40 40" fill="none" xmlns="http://www.w3.org/2000/svg">
<path d="M21.4206 22.3666C21.294 22.6216 21.1264 22.8543 20.9247 23.0553C19.8548 24.1256 18.0917 24.0804 17.0804 22.9198C15.9198 21.9085 15.8746 20.1454 16.9446 19.0752C17.146 18.8737 17.3787 18.7062 17.6337 18.5793C18.1833 18.3061 18.7002 17.9726 19.1599 17.5691L14.3942 12.8035L19.1599 8.0378C19.5636 8.49772 19.8972 9.01468 20.1703 9.56461C20.2971 9.8196 20.4646 10.0522 20.6662 10.2534C21.7365 11.3237 23.4998 11.2781 24.5111 10.117C25.6723 9.10562 25.7178 7.34193 24.6475 6.27169C24.4463 6.07015 24.2137 5.90267 23.9588 5.77583C23.4091 5.5027 22.8922 5.1691 22.4322 4.76566L27.1978 0L31.9634 4.76566C32.367 4.30574 32.7005 3.78878 32.9736 3.23909C33.1004 2.98414 33.2679 2.75153 33.4695 2.55041C34.5398 1.48009 36.3028 1.52556 37.3141 2.68588C38.4748 3.69722 38.5199 5.46028 37.4496 6.53044C37.2484 6.73197 37.0158 6.89949 36.7609 7.02646C36.2113 7.29959 35.6943 7.63311 35.2344 8.03662L40 12.8023L35.2344 17.5679C34.8309 17.1079 34.4973 16.591 34.2242 16.0414C34.0974 15.7864 33.9299 15.5538 33.7284 15.3526C32.6581 14.2823 30.8945 14.3278 29.8831 15.489C28.722 16.5004 28.6765 18.2637 29.7467 19.334C29.9479 19.5356 30.1805 19.7031 30.4355 19.8298C30.9855 20.103 31.5023 20.4369 31.962 20.8403L27.1964 25.606L22.4308 20.8403C22.0273 21.2999 21.6938 21.8169 21.4206 22.3665V22.3666Z" fill="#E25730"/>
<path d="M4.76562 22.4309C4.3057 22.0274 3.78875 21.6939 3.23906 21.4207C2.98412 21.2939 2.75152 21.1264 2.55039 20.9249C1.48008 19.8549 1.52555 18.0919 2.68586 17.0802C3.69719 15.9199 5.46023 15.8747 6.53039 16.9447C6.73185 17.146 6.89936 17.3786 7.02641 17.6335C7.29953 18.1835 7.63305 18.7004 8.03656 19.1601L12.8022 14.3944L15.6327 17.2249C15.5362 17.3075 15.443 17.3939 15.3531 17.4837C14.4006 18.4364 13.8806 19.7551 13.9267 21.1019C13.9709 22.3967 14.5373 23.6314 15.4867 24.5135C16.3687 25.4625 17.6034 26.029 18.8983 26.0735C20.2451 26.1196 21.5637 25.5996 22.5165 24.6471C22.6063 24.5572 22.6925 24.4639 22.775 24.3672L25.6058 27.1981L20.8402 31.9638C21.2998 32.3672 21.8167 32.7007 22.3663 32.9739C22.6215 33.1006 22.8542 33.2681 23.0554 33.4698C24.1254 34.5397 24.0802 36.3028 22.9196 37.3141C21.9083 38.4748 20.1452 38.5199 19.0753 37.4499C18.8736 37.2487 18.7061 37.016 18.5794 36.7608C18.3062 36.2112 17.9727 35.6943 17.5692 35.2343L12.8036 40L8.03797 35.2343C8.49766 34.8309 9.01453 34.4974 9.56453 34.2242C9.81952 34.0974 10.0522 33.9299 10.2533 33.7283C11.3236 32.658 11.278 30.8947 10.1169 29.8834C9.10555 28.7222 7.34187 28.6767 6.27164 29.747C6.0701 29.9481 5.90262 30.1808 5.77578 30.4357C5.50266 30.9853 5.16906 31.5024 4.76562 31.9623L0 27.1966L4.76562 22.4309Z" fill="#E25730"/>
</svg>
