<svg width="40" height="40" viewBox="0 0 40 40" fill="none" xmlns="http://www.w3.org/2000/svg">
<path d="M14.025 25.95C13.0305 26.7277 12.2262 27.7217 11.6732 28.8566C11.1201 29.9915 10.8329 31.2375 10.8333 32.5V35H5.83331C4.44998 35 3.33331 33.8833 3.33331 32.5V30.8333C3.33331 27.6083 5.94165 25 9.16665 25H10.8333C12.0166 25 13.1083 25.35 14.025 25.95Z" fill="#E25730"/>
<path d="M30 25C32.0711 25 33.75 23.3211 33.75 21.25C33.75 19.1789 32.0711 17.5 30 17.5C27.9289 17.5 26.25 19.1789 26.25 21.25C26.25 23.3211 27.9289 25 30 25Z" fill="#E25730"/>
<path d="M10 25C12.0711 25 13.75 23.3211 13.75 21.25C13.75 19.1789 12.0711 17.5 10 17.5C7.92893 17.5 6.25 19.1789 6.25 21.25C6.25 23.3211 7.92893 25 10 25Z" fill="#E25730"/>
<path d="M36.6666 30.8333V32.5C36.6666 33.8833 35.55 35 34.1666 35H29.1666V32.5C29.1666 29.8417 27.9166 27.475 25.975 25.95C26.8916 25.35 27.9833 25 29.1666 25H30.8333C34.0583 25 36.6666 27.6083 36.6666 30.8333Z" fill="#E25730"/>
<path d="M20 25.8334C22.5313 25.8334 24.5833 23.7814 24.5833 21.2501C24.5833 18.7188 22.5313 16.6667 20 16.6667C17.4687 16.6667 15.4166 18.7188 15.4166 21.2501C15.4166 23.7814 17.4687 25.8334 20 25.8334Z" fill="#E25730"/>
<path d="M20.8334 25.8334H19.1668C15.4909 25.8334 12.5001 28.8242 12.5001 32.5V35C12.5001 36.3784 13.6218 37.5 15.0001 37.5H25.0001C26.3784 37.5 27.5001 36.3784 27.5001 35V32.5C27.5001 28.8242 24.5093 25.8334 20.8334 25.8334ZM32.0834 13.9034L30.0726 14.6184C29.9407 14.6653 29.7993 14.6793 29.6608 14.6593C29.5222 14.6393 29.3906 14.5858 29.2773 14.5035C29.1641 14.4212 29.0726 14.3125 29.0108 14.1869C28.949 14.0613 28.9187 13.9225 28.9226 13.7825L28.9809 11.6492L27.6793 9.95754C27.594 9.84653 27.537 9.71643 27.5132 9.57847C27.4895 9.44052 27.4996 9.29885 27.5429 9.1657C27.5861 9.03256 27.6611 8.91194 27.7614 8.81426C27.8616 8.71658 27.9842 8.64477 28.1184 8.60504L30.1659 8.00171L31.3726 6.24087C31.4517 6.12538 31.5578 6.0309 31.6817 5.96562C31.8055 5.90034 31.9434 5.86622 32.0834 5.86622C32.2234 5.86622 32.3613 5.90034 32.4852 5.96562C32.609 6.0309 32.7151 6.12538 32.7943 6.24087L34.0009 8.00171L36.0484 8.60504C36.6293 8.77587 36.8568 9.47754 36.4876 9.95754L35.1859 11.6492L35.2443 13.7825C35.248 13.9224 35.2176 14.0611 35.1557 14.1866C35.0938 14.3121 35.0023 14.4207 34.8891 14.503C34.776 14.5853 34.6444 14.6388 34.506 14.6589C34.3675 14.679 34.2262 14.6651 34.0943 14.6184L32.0834 13.9034ZM7.91676 13.9034L5.90593 14.6184C5.77401 14.6653 5.63265 14.6793 5.49409 14.6593C5.35552 14.6393 5.22391 14.5858 5.11066 14.5035C4.99741 14.4212 4.90592 14.3125 4.84411 14.1869C4.7823 14.0613 4.75203 13.9225 4.75593 13.7825L4.81426 11.6492L3.51259 9.95754C3.42731 9.84653 3.37032 9.71643 3.34656 9.57847C3.3228 9.44052 3.33297 9.29885 3.37621 9.1657C3.41944 9.03256 3.49443 8.91194 3.59471 8.81426C3.69498 8.71658 3.81753 8.64477 3.95176 8.60504L5.99926 8.00171L7.20593 6.24087C7.28506 6.12538 7.39114 6.0309 7.515 5.96562C7.63885 5.90034 7.77675 5.86622 7.91676 5.86622C8.05677 5.86622 8.19466 5.90034 8.31852 5.96562C8.44238 6.0309 8.54846 6.12538 8.62759 6.24087L9.83426 8.00171L11.8818 8.60504C12.4626 8.77587 12.6901 9.47754 12.3209 9.95754L11.0193 11.6492L11.0776 13.7825C11.0813 13.9224 11.0509 14.0611 10.989 14.1866C10.9272 14.3121 10.8357 14.4207 10.7225 14.503C10.6093 14.5853 10.4778 14.6388 10.3393 14.6589C10.2008 14.679 10.0595 14.6651 9.92759 14.6184L7.91676 13.9034ZM20.0001 12.0284L17.6159 12.8759C17.4595 12.9314 17.292 12.9481 17.1277 12.9243C16.9635 12.9006 16.8075 12.8372 16.6732 12.7396C16.539 12.6421 16.4305 12.5133 16.3572 12.3644C16.2839 12.2155 16.248 12.0509 16.2526 11.885L16.3218 9.35587L14.7784 7.35004C14.6773 7.21843 14.6098 7.06418 14.5816 6.90063C14.5535 6.73708 14.5656 6.56913 14.6169 6.41129C14.6681 6.25346 14.7571 6.11047 14.8759 5.99468C14.9948 5.8789 15.1401 5.79379 15.2993 5.74671L17.7268 5.03087L19.1576 2.94337C19.2514 2.80639 19.3772 2.69434 19.5241 2.61691C19.6709 2.53949 19.8345 2.49902 20.0005 2.49902C20.1665 2.49902 20.3301 2.53949 20.4769 2.61691C20.6238 2.69434 20.7496 2.80639 20.8434 2.94337L22.2743 5.03087L24.7018 5.74671C24.8609 5.79379 25.0062 5.8789 25.1251 5.99468C25.244 6.11047 25.3329 6.25346 25.3842 6.41129C25.4354 6.56913 25.4475 6.73708 25.4194 6.90063C25.3912 7.06418 25.3237 7.21843 25.2226 7.35004L23.6793 9.35587L23.7484 11.885C23.753 12.0509 23.7171 12.2155 23.6438 12.3644C23.5705 12.5133 23.462 12.6421 23.3278 12.7396C23.1935 12.8372 23.0375 12.9006 22.8733 12.9243C22.709 12.9481 22.5415 12.9314 22.3851 12.8759L20.0001 12.0284Z" fill="#E25730"/>
</svg>
